999
dxflib 3.12.2.0
  0
SECTION
  2
HEADER
  9
$ACADVER
  1
AC1015
  9
$HANDSEED
  5
FFFF
  9
$ANGBASE
 50
0.0
  9
$ATTMODE
 70
1
  9
$AUNITS
 70
0
  9
$AUPREC
 70
0
  9
$CELTSCALE
 40
1.0
  9
$CHAMFERA
 40
0.0
  9
$CHAMFERB
 40
0.0
  9
$CHAMFERC
 40
0.0
  9
$CHAMFERD
 40
0.0
  9
$CMLJUST
 70
0
  9
$CMLSCALE
 40
1.0
  9
$DIMADEC
 70
0
  9
$DIMALTD
 70
2
  9
$DIMALTF
 40
25.3999999999999986
  9
$DIMALTRND
 40
0.0
  9
$DIMALTTD
 70
2
  9
$DIMALTTZ
 70
0
  9
$DIMALTU
 70
2
  9
$DIMALTZ
 70
0
  9
$DIMAPOST
  1

  9
$DIMASZ
 40
0.18
  9
$DIMATFIT
 70
3
  9
$DIMAUNIT
 70
0
  9
$DIMAZIN
 70
0
  9
$DIMCEN
 40
0.09
  9
$DIMDEC
 70
4
  9
$DIMDLE
 40
0.0
  9
$DIMDLI
 40
0.38
  9
$DIMDSEP
 70
46
  9
$DIMEXE
 40
0.18
  9
$DIMEXO
 40
0.0625
  9
$DIMFRAC
 70
0
  9
$DIMGAP
 40
0.09
  9
$DIMJUST
 70
0
  9
$DIMLFAC
 40
1.0
  9
$DIMLUNIT
 70
2
  9
$DIMLWD
 70
-2
  9
$DIMLWE
 70
-2
  9
$DIMPOST
  1

  9
$DIMRND
 40
0.0
  9
$DIMSCALE
 40
1.0
  9
$DIMTAD
 70
0
  9
$DIMTDEC
 70
4
  9
$DIMTFAC
 40
1.0
  9
$DIMTM
 40
0.0
  9
$DIMTOLJ
 70
1
  9
$DIMTP
 40
0.0
  9
$DIMTSZ
 40
0.0
  9
$DIMTVP
 40
0.0
  9
$DIMTXT
 40
0.18
  9
$DIMTZIN
 70
0
  9
$DIMZIN
 70
0
  9
$DWGCODEPAGE
  3
ANSI_1252
  9
$ELEVATION
 40
0.0
  9
$EXTMAX
 10
254.5959486800119862
 20
102.8958959213480995
 30
0.0
  9
$EXTMIN
 10
6.9459297949219092
 20
10.7708959213479503
 30
0.0
  9
$FILLETRAD
 40
0.08
  9
$INSBASE
 10
0.0
 20
0.0
 30
0.0
  9
$INSUNITS
 70
4
  9
$LIMMAX
 10
12.0
 20
9.0
  9
$LIMMIN
 10
0.0
 20
0.0
  9
$LTSCALE
 40
1.0
  9
$LUNITS
 70
2
  9
$LUPREC
 70
4
  9
$MAXACTVP
 70
2
  9
$MEASUREMENT
 70
1
  9
$PDMODE
 70
0
  9
$PDSIZE
 40
0.0
  9
$PELEVATION
 40
0.0
  9
$PEXTMAX
 10
0.0
 20
0.0
 30
0.0
  9
$PEXTMIN
 10
0.0
 20
0.0
 30
0.0
  9
$PINSBASE
 10
0.0
 20
0.0
 30
0.0
  9
$PLIMMAX
 10
12.0
 20
9.0
  9
$PLIMMIN
 10
0.0
 20
0.0
  9
$PLINEWID
 40
0.0
  9
$PROXYGRAPHICS
 70
1
  9
$PUCSORG
 10
0.0
 20
0.0
 30
0.0
  9
$PUCSXDIR
 10
1.0
 20
0.0
 30
0.0
  9
$PUCSYDIR
 10
0.0
 20
1.0
 30
0.0
  9
$SHADEDGE
 70
3
  9
$SHADEDIF
 70
70
  9
$SKETCHINC
 40
0.1
  9
$SPLINESEGS
 70
8
  9
$SPLINETYPE
 70
6
  9
$SURFTAB1
 70
6
  9
$SURFTAB2
 70
6
  9
$SURFTYPE
 70
6
  9
$SURFU
 70
6
  9
$SURFV
 70
6
  9
$TEXTSIZE
 40
2.5
  9
$THICKNESS
 40
0.0
  9
$TRACEWID
 40
0.05
  9
$TREEDEPTH
 70
3020
  9
$UCSORG
 10
0.0
 20
0.0
 30
0.0
  9
$UCSXDIR
 10
1.0
 20
0.0
 30
0.0
  9
$UCSYDIR
 10
0.0
 20
1.0
 30
0.0
  9
$UNITMODE
 70
0
  9
$USERI1
 70
0
  9
$USERI2
 70
0
  9
$USERI3
 70
0
  9
$USERI4
 70
0
  9
$USERI5
 70
0
  9
$USERR1
 40
0.0
  9
$USERR2
 40
0.0
  9
$USERR3
 40
0.0
  9
$USERR4
 40
0.0
  9
$USERR5
 40
0.0
  0
ENDSEC
  0
SECTION
  2
TABLES
  0
TABLE
  2
VPORT
  5
8
100
AcDbSymbolTable
 70
1
  0
VPORT
  5
30
100
AcDbSymbolTableRecord
100
AcDbViewportTableRecord
  2
*Active
 70
0
 10
0.0
 20
0.0
 11
1.0
 21
1.0
 12
286.3055555555554861
 22
148.5
 13
0.0
 23
0.0
 14
10.0
 24
10.0
 15
10.0
 25
10.0
 16
0.0
 26
0.0
 36
1.0
 17
0.0
 27
0.0
 37
0.0
 40
297.0
 41
1.92798353909465
 42
50.0
 43
0.0
 44
0.0
 50
0.0
 51
0.0
 71
0
 72
100
 73
1
 74
3
 75
1
 76
1
 77
0
 78
0
281
0
 65
1
110
0.0
120
0.0
130
0.0
111
1.0
121
0.0
131
0.0
112
0.0
122
1.0
132
0.0
 79
0
146
0.0
  0
ENDTAB
  0
TABLE
  2
LTYPE
  5
5
100
AcDbSymbolTable
 70
56
  0
LTYPE
  5
16
100
AcDbSymbolTableRecord
100
AcDbLinetypeTableRecord
  2
Continuous
 70
0
  3
Solid line
 72
65
 73
0
 40
0.0
  0
LTYPE
  5
31
100
AcDbSymbolTableRecord
100
AcDbLinetypeTableRecord
  2
ACAD_ISO15W100
 70
0
  3
ISO double-dash triple-dot __ __ . . . __ __ . .
 72
65
 73
10
 40
39.0
 49
12.0
 74
0
 49
-3.0
 74
0
 49
12.0
 74
0
 49
-3.0
 74
0
 49
0.0
 74
0
 49
-3.0
 74
0
 49
0.0
 74
0
 49
-3.0
 74
0
 49
0.0
 74
0
 49
-3.0
 74
0
  0
LTYPE
  5
32
100
AcDbSymbolTableRecord
100
AcDbLinetypeTableRecord
  2
HOT_WATER_SUPPLY
 70
0
  3
Hot water supply ---- HW ---- HW ---- HW ----
 72
65
 73
3
 40
22.8599999999999994
 49
12.6999999999999993
 74
0
 49
-5.0800000000000001
 74
0
 49
-5.0800000000000001
 74
0
  0
LTYPE
  5
33
100
AcDbSymbolTableRecord
100
AcDbLinetypeTableRecord
  2
DIVIDE
 70
0
  3
Divide ____ . . ____ . . ____ . . ____ . . ____
 72
65
 73
6
 40
31.75
 49
12.6999999999999993
 74
0
 49
-6.3499999999999996
 74
0
 49
0.0
 74
0
 49
-6.3499999999999996
 74
0
 49
0.0
 74
0
 49
-6.3499999999999996
 74
0
  0
LTYPE
  5
34
100
AcDbSymbolTableRecord
100
AcDbLinetypeTableRecord
  2
ACAD_ISO10W100
 70
0
  3
ISO dash dot __ . __ . __ . __ . __ . __ . __ . 
 72
65
 73
4
 40
18.0
 49
12.0
 74
0
 49
-3.0
 74
0
 49
0.0
 74
0
 49
-3.0
 74
0
  0
LTYPE
  5
35
100
AcDbSymbolTableRecord
100
AcDbLinetypeTableRecord
  2
DOTTINY
 70
0
  3
Dot (.15x) .....................................
 72
65
 73
2
 40
0.9525
 49
0.0
 74
0
 49
-0.9525
 74
0
  0
LTYPE
  5
36
100
AcDbSymbolTableRecord
100
AcDbLinetypeTableRecord
  2
GAS_LINE
 70
0
  3
Gas line ----GAS----GAS----GAS----GAS----GAS----GAS--
 72
65
 73
3
 40
24.1300000000000026
 49
12.6999999999999993
 74
0
 49
-5.0800000000000001
 74
0
 49
-6.3499999999999996
 74
0
  0
LTYPE
  5
37
100
AcDbSymbolTableRecord
100
AcDbLinetypeTableRecord
  2
ACAD_ISO04W100
 70
0
  3
ISO long-dash dot ____ . ____ . ____ . ____ . _
 72
65
 73
4
 40
30.0
 49
24.0
 74
0
 49
-3.0
 74
0
 49
0.0
 74
0
 49
-3.0
 74
0
  0
LTYPE
  5
14
100
AcDbSymbolTableRecord
100
AcDbLinetypeTableRecord
  2
ByBlock
 70
0
  3

 72
65
 73
0
 40
0.0
  0
LTYPE
  5
38
100
AcDbSymbolTableRecord
100
AcDbLinetypeTableRecord
  2
CENTER2
 70
0
  3
Center (.5x) ___ _ ___ _ ___ _ ___ _ ___ _ ___
 72
65
 73
4
 40
28.5750000000000028
 49
19.0500000000000007
 74
0
 49
-3.1749999999999998
 74
0
 49
3.1749999999999998
 74
0
 49
-3.1749999999999998
 74
0
  0
LTYPE
  5
39
100
AcDbSymbolTableRecord
100
AcDbLinetypeTableRecord
  2
ACAD_ISO11W100
 70
0
  3
ISO double-dash dot __ __ . __ __ . __ __ . __ _
 72
65
 73
6
 40
33.0
 49
12.0
 74
0
 49
-3.0
 74
0
 49
12.0
 74
0
 49
-3.0
 74
0
 49
0.0
 74
0
 49
-3.0
 74
0
  0
LTYPE
  5
3A
100
AcDbSymbolTableRecord
100
AcDbLinetypeTableRecord
  2
HIDDEN2
 70
0
  3
Hidden (.5x) _ _ _ _ _ _ _ _ _ _ _ _ _ _ _ _ _ 
 72
65
 73
2
 40
4.7624999999999993
 49
3.1749999999999998
 74
0
 49
-1.5874999999999999
 74
0
  0
LTYPE
  5
3B
100
AcDbSymbolTableRecord
100
AcDbLinetypeTableRecord
  2
BORDERX2
 70
0
  3
Border (2x) ____  ____  .  ____  ____  .  ___
 72
65
 73
6
 40
88.8999999999999915
 49
25.3999999999999986
 74
0
 49
-12.6999999999999993
 74
0
 49
25.3999999999999986
 74
0
 49
-12.6999999999999993
 74
0
 49
0.0
 74
0
 49
-12.6999999999999993
 74
0
  0
LTYPE
  5
3C
100
AcDbSymbolTableRecord
100
AcDbLinetypeTableRecord
  2
BORDERTINY
 70
0
  3
Border (.15x) __.__.__.__.__.__.__.__.__.__.__.
 72
65
 73
6
 40
6.6674999999999995
 49
1.905
 74
0
 49
-0.9525
 74
0
 49
1.905
 74
0
 49
-0.9525
 74
0
 49
0.0
 74
0
 49
-0.9525
 74
0
  0
LTYPE
  5
3D
100
AcDbSymbolTableRecord
100
AcDbLinetypeTableRecord
  2
CENTERTINY
 70
0
  3
Center (.15x) ___ _ ___ _ ___ _ ___ _ ___ _ ___
 72
65
 73
4
 40
7.6199999999999992
 49
4.7625000000000002
 74
0
 49
-0.9525
 74
0
 49
0.9525
 74
0
 49
-0.9525
 74
0
  0
LTYPE
  5
3E
100
AcDbSymbolTableRecord
100
AcDbLinetypeTableRecord
  2
ACAD_ISO05W100
 70
0
  3
ISO long-dash double-dot ____ .. ____ .. ____ . 
 72
65
 73
6
 40
33.0
 49
24.0
 74
0
 49
-3.0
 74
0
 49
0.0
 74
0
 49
-3.0
 74
0
 49
0.0
 74
0
 49
-3.0
 74
0
  0
LTYPE
  5
3F
100
AcDbSymbolTableRecord
100
AcDbLinetypeTableRecord
  2
DASHDOTX2
 70
0
  3
Dash dot (2x) ____  .  ____  .  ____  .  ___
 72
65
 73
4
 40
50.7999999999999972
 49
25.3999999999999986
 74
0
 49
-12.6999999999999993
 74
0
 49
0.0
 74
0
 49
-12.6999999999999993
 74
0
  0
LTYPE
  5
40
100
AcDbSymbolTableRecord
100
AcDbLinetypeTableRecord
  2
HIDDENX2
 70
0
  3
Hidden (2x) ____ ____ ____ ____ ____ ____ ____ 
 72
65
 73
2
 40
19.0499999999999972
 49
12.6999999999999993
 74
0
 49
-6.3499999999999996
 74
0
  0
LTYPE
  5
41
100
AcDbSymbolTableRecord
100
AcDbLinetypeTableRecord
  2
CENTERX2
 70
0
  3
Center (2x) ________  __  ________  __  _____
 72
65
 73
4
 40
101.6000000000000085
 49
63.5
 74
0
 49
-12.6999999999999993
 74
0
 49
12.6999999999999993
 74
0
 49
-12.6999999999999993
 74
0
  0
LTYPE
  5
42
100
AcDbSymbolTableRecord
100
AcDbLinetypeTableRecord
  2
BORDER2
 70
0
  3
Border (.5x) __.__.__.__.__.__.__.__.__.__.__.
 72
65
 73
6
 40
22.2249999999999979
 49
6.3499999999999996
 74
0
 49
-3.1749999999999998
 74
0
 49
6.3499999999999996
 74
0
 49
-3.1749999999999998
 74
0
 49
0.0
 74
0
 49
-3.1749999999999998
 74
0
  0
LTYPE
  5
43
100
AcDbSymbolTableRecord
100
AcDbLinetypeTableRecord
  2
DASHDOT2
 70
0
  3
Dash dot (.5x) _._._._._._._._._._._._._._._.
 72
65
 73
4
 40
12.6999999999999993
 49
6.3499999999999996
 74
0
 49
-3.1749999999999998
 74
0
 49
0.0
 74
0
 49
-3.1749999999999998
 74
0
  0
LTYPE
  5
44
100
AcDbSymbolTableRecord
100
AcDbLinetypeTableRecord
  2
ACAD_ISO12W100
 70
0
  3
ISO dash double-dot __ . . __ . . __ . . __ . . 
 72
65
 73
6
 40
21.0
 49
12.0
 74
0
 49
-3.0
 74
0
 49
0.0
 74
0
 49
-3.0
 74
0
 49
0.0
 74
0
 49
-3.0
 74
0
  0
LTYPE
  5
45
100
AcDbSymbolTableRecord
100
AcDbLinetypeTableRecord
  2
ACAD_ISO07W100
 70
0
  3
ISO dot . . . . . . . . . . . . . . . . . . . . 
 72
65
 73
2
 40
3.0
 49
0.0
 74
0
 49
-3.0
 74
0
  0
LTYPE
  5
46
100
AcDbSymbolTableRecord
100
AcDbLinetypeTableRecord
  2
ACAD_ISO06W100
 70
0
  3
ISO long-dash triple-dot ____ ... ____ ... ____
 72
65
 73
8
 40
36.0
 49
24.0
 74
0
 49
-3.0
 74
0
 49
0.0
 74
0
 49
-3.0
 74
0
 49
0.0
 74
0
 49
-3.0
 74
0
 49
0.0
 74
0
 49
-3.0
 74
0
  0
LTYPE
  5
47
100
AcDbSymbolTableRecord
100
AcDbLinetypeTableRecord
  2
CENTER
 70
0
  3
Center ____ _ ____ _ ____ _ ____ _ ____ _ ____
 72
65
 73
4
 40
50.8000000000000043
 49
31.75
 74
0
 49
-6.3499999999999996
 74
0
 49
6.3499999999999996
 74
0
 49
-6.3499999999999996
 74
0
  0
LTYPE
  5
48
100
AcDbSymbolTableRecord
100
AcDbLinetypeTableRecord
  2
HIDDEN
 70
0
  3
Hidden __ __ __ __ __ __ __ __ __ __ __ __ __ __
 72
65
 73
2
 40
9.5249999999999986
 49
6.3499999999999996
 74
0
 49
-3.1749999999999998
 74
0
  0
LTYPE
  5
49
100
AcDbSymbolTableRecord
100
AcDbLinetypeTableRecord
  2
DOTX2
 70
0
  3
Dot (2x) .  .  .  .  .  .  .  .  .  .  .  .  .
 72
65
 73
2
 40
12.6999999999999993
 49
0.0
 74
0
 49
-12.6999999999999993
 74
0
  0
LTYPE
  5
4A
100
AcDbSymbolTableRecord
100
AcDbLinetypeTableRecord
  2
PHANTOM
 70
0
  3
Phantom ______  __  __  ______  __  __  ______ 
 72
65
 73
6
 40
63.5000000000000071
 49
31.75
 74
0
 49
-6.3499999999999996
 74
0
 49
6.3499999999999996
 74
0
 49
-6.3499999999999996
 74
0
 49
6.3499999999999996
 74
0
 49
-6.3499999999999996
 74
0
  0
LTYPE
  5
4B
100
AcDbSymbolTableRecord
100
AcDbLinetypeTableRecord
  2
ACAD_ISO08W100
 70
0
  3
ISO long-dash short-dash ____ __ ____ __ ____ _
 72
65
 73
4
 40
36.0
 49
24.0
 74
0
 49
-3.0
 74
0
 49
6.0
 74
0
 49
-3.0
 74
0
  0
LTYPE
  5
4C
100
AcDbSymbolTableRecord
100
AcDbLinetypeTableRecord
  2
DASHEDX2
 70
0
  3
Dashed (2x) ____  ____  ____  ____  ____  ___
 72
65
 73
2
 40
38.0999999999999943
 49
25.3999999999999986
 74
0
 49
-12.6999999999999993
 74
0
  0
LTYPE
  5
4D
100
AcDbSymbolTableRecord
100
AcDbLinetypeTableRecord
  2
DRAINAGE
 70
0
  3
Drainage ---->---->---->----
 72
65
 73
2
 40
10.1600000000000001
 49
5.0800000000000001
 74
0
 49
5.0800000000000001
 74
0
  0
LTYPE
  5
4E
100
AcDbSymbolTableRecord
100
AcDbLinetypeTableRecord
  2
ACAD_ISO02W100
 70
0
  3
ISO dash __ __ __ __ __ __ __ __ __ __ __ __ __
 72
65
 73
2
 40
15.0
 49
12.0
 74
0
 49
-3.0
 74
0
  0
LTYPE
  5
4F
100
AcDbSymbolTableRecord
100
AcDbLinetypeTableRecord
  2
PHANTOM2
 70
0
  3
Phantom (.5x) ___ _ _ ___ _ _ ___ _ _ ___ _ _
 72
65
 73
6
 40
31.7500000000000036
 49
15.875
 74
0
 49
-3.1749999999999998
 74
0
 49
3.1749999999999998
 74
0
 49
-3.1749999999999998
 74
0
 49
3.1749999999999998
 74
0
 49
-3.1749999999999998
 74
0
  0
LTYPE
  5
50
100
AcDbSymbolTableRecord
100
AcDbLinetypeTableRecord
  2
DASHED2
 70
0
  3
Dashed (.5x) _ _ _ _ _ _ _ _ _ _ _ _ _ _ _ _ _
 72
65
 73
2
 40
9.5249999999999986
 49
6.3499999999999996
 74
0
 49
-3.1749999999999998
 74
0
  0
LTYPE
  5
51
100
AcDbSymbolTableRecord
100
AcDbLinetypeTableRecord
  2
DASHDOTTINY
 70
0
  3
Dash dot (.15x) _._._._._._._._._._._._._._._.
 72
65
 73
4
 40
3.8100000000000001
 49
1.905
 74
0
 49
-0.9525
 74
0
 49
0.0
 74
0
 49
-0.9525
 74
0
  0
LTYPE
  5
52
100
AcDbSymbolTableRecord
100
AcDbLinetypeTableRecord
  2
ACAD_ISO09W100
 70
0
  3
ISO long-dash double-short-dash ____ __ __ ____
 72
65
 73
6
 40
45.0
 49
24.0
 74
0
 49
-3.0
 74
0
 49
6.0
 74
0
 49
-3.0
 74
0
 49
6.0
 74
0
 49
-3.0
 74
0
  0
LTYPE
  5
53
100
AcDbSymbolTableRecord
100
AcDbLinetypeTableRecord
  2
ACAD_ISO13W100
 70
0
  3
ISO double-dash double-dot __ __ . . __ __ . . _
 72
65
 73
8
 40
36.0
 49
12.0
 74
0
 49
-3.0
 74
0
 49
12.0
 74
0
 49
-3.0
 74
0
 49
0.0
 74
0
 49
-3.0
 74
0
 49
0.0
 74
0
 49
-3.0
 74
0
  0
LTYPE
  5
54
100
AcDbSymbolTableRecord
100
AcDbLinetypeTableRecord
  2
TRACKS
 70
0
  3
Tracks -|-|-|-|-|-|-|-|-|-|-|-|-|-|-|-|-|-|-|-|-|-|-|-|-
 72
65
 73
2
 40
7.6200000000000001
 49
3.8100000000000001
 74
0
 49
3.8100000000000001
 74
0
  0
LTYPE
  5
55
100
AcDbSymbolTableRecord
100
AcDbLinetypeTableRecord
  2
DIVIDETINY
 70
0
  3
Divide (.15x) __..__..__..__..__..__..__..__.._
 72
65
 73
6
 40
4.7625000000000002
 49
1.905
 74
0
 49
-0.9525
 74
0
 49
0.0
 74
0
 49
-0.9525
 74
0
 49
0.0
 74
0
 49
-0.9525
 74
0
  0
LTYPE
  5
56
100
AcDbSymbolTableRecord
100
AcDbLinetypeTableRecord
  2
DRAINAGE2
 70
0
  3
Drainage reversed----<----<----<----
 72
65
 73
2
 40
10.1600000000000001
 49
5.0800000000000001
 74
0
 49
5.0800000000000001
 74
0
  0
LTYPE
  5
57
100
AcDbSymbolTableRecord
100
AcDbLinetypeTableRecord
  2
DOT2
 70
0
  3
Dot (.5x) .....................................
 72
65
 73
2
 40
3.1749999999999998
 49
0.0
 74
0
 49
-3.1749999999999998
 74
0
  0
LTYPE
  5
58
100
AcDbSymbolTableRecord
100
AcDbLinetypeTableRecord
  2
ZIGZAG
 70
0
  3
Zig zag /\/\/\/\/\/\/\/\/\/\/\/\/\/\/\/\/\/\/\/\/\/\/\/
 72
65
 73
4
 40
20.32254
 49
0.00254
 74
0
 49
-5.0800000000000001
 74
0
 49
-10.1600000000000001
 74
0
 49
-5.0800000000000001
 74
0
  0
LTYPE
  5
59
100
AcDbSymbolTableRecord
100
AcDbLinetypeTableRecord
  2
DASHED
 70
0
  3
Dashed _ _ _ _ _ _ _ _ _ _ _ _ _ _ _ _ _
 72
65
 73
2
 40
19.0499999999999972
 49
12.6999999999999993
 74
0
 49
-6.3499999999999996
 74
0
  0
LTYPE
  5
5A
100
AcDbSymbolTableRecord
100
AcDbLinetypeTableRecord
  2
ACAD_ISO14W100
 70
0
  3
ISO dash triple-dot __ . . . __ . . . __ . . . _
 72
65
 73
8
 40
24.0
 49
12.0
 74
0
 49
-3.0
 74
0
 49
0.0
 74
0
 49
-3.0
 74
0
 49
0.0
 74
0
 49
-3.0
 74
0
 49
0.0
 74
0
 49
-3.0
 74
0
  0
LTYPE
  5
5B
100
AcDbSymbolTableRecord
100
AcDbLinetypeTableRecord
  2
PHANTOMX2
 70
0
  3
Phantom (2x) ____________    ____    ____   _
 72
65
 73
6
 40
127.0000000000000142
 49
63.5
 74
0
 49
-12.6999999999999993
 74
0
 49
12.6999999999999993
 74
0
 49
-12.6999999999999993
 74
0
 49
12.6999999999999993
 74
0
 49
-12.6999999999999993
 74
0
  0
LTYPE
  5
5C
100
AcDbSymbolTableRecord
100
AcDbLinetypeTableRecord
  2
DIVIDEX2
 70
0
  3
Divide (2x) ________  .  .  ________  .  .  _
 72
65
 73
6
 40
63.5
 49
25.3999999999999986
 74
0
 49
-12.6999999999999993
 74
0
 49
0.0
 74
0
 49
-12.6999999999999993
 74
0
 49
0.0
 74
0
 49
-12.6999999999999993
 74
0
  0
LTYPE
  5
5D
100
AcDbSymbolTableRecord
100
AcDbLinetypeTableRecord
  2
BORDER
 70
0
  3
Border __ __ . __ __ . __ __ . __ __ . __ __ .
 72
65
 73
6
 40
44.4499999999999957
 49
12.6999999999999993
 74
0
 49
-6.3499999999999996
 74
0
 49
12.6999999999999993
 74
0
 49
-6.3499999999999996
 74
0
 49
0.0
 74
0
 49
-6.3499999999999996
 74
0
  0
LTYPE
  5
5E
100
AcDbSymbolTableRecord
100
AcDbLinetypeTableRecord
  2
DIVIDE2
 70
0
  3
Divide (.5x) __..__..__..__..__..__..__..__.._
 72
65
 73
6
 40
15.875
 49
6.3499999999999996
 74
0
 49
-3.1749999999999998
 74
0
 49
0.0
 74
0
 49
-3.1749999999999998
 74
0
 49
0.0
 74
0
 49
-3.1749999999999998
 74
0
  0
LTYPE
  5
5F
100
AcDbSymbolTableRecord
100
AcDbLinetypeTableRecord
  2
DOT
 70
0
  3
Dot . . . . . . . . . . . . . . . . . . . . . .
 72
65
 73
2
 40
6.3499999999999996
 49
0.0
 74
0
 49
-6.3499999999999996
 74
0
  0
LTYPE
  5
60
100
AcDbSymbolTableRecord
100
AcDbLinetypeTableRecord
  2
DASHEDTINY
 70
0
  3
Dashed (.15x) _ _ _ _ _ _ _ _ _ _ _ _ _ _ _ _ _
 72
65
 73
2
 40
2.8574999999999999
 49
1.905
 74
0
 49
-0.9525
 74
0
  0
LTYPE
  5
61
100
AcDbSymbolTableRecord
100
AcDbLinetypeTableRecord
  2
DASHDOT
 70
0
  3
Dash dot __ . __ . __ . __ . __ . __ . __ . __
 72
65
 73
4
 40
25.3999999999999986
 49
12.6999999999999993
 74
0
 49
-6.3499999999999996
 74
0
 49
0.0
 74
0
 49
-6.3499999999999996
 74
0
  0
LTYPE
  5
62
100
AcDbSymbolTableRecord
100
AcDbLinetypeTableRecord
  2
FENCELINE1
 70
0
  3
Fenceline circle ----0-----0----0-----0----0-----0--
 72
65
 73
4
 40
36.8299999999999983
 49
6.3499999999999996
 74
0
 49
-2.54
 74
0
 49
-2.54
 74
0
 49
25.3999999999999986
 74
0
  0
LTYPE
  5
63
100
AcDbSymbolTableRecord
100
AcDbLinetypeTableRecord
  2
BATTING
 70
0
  3
Batting SSSSSSSSSSSSSSSSSSSSSSSSSSSSSSSSSSSSSSSSSSSSSSS
 72
65
 73
4
 40
10.1625399999999999
 49
0.00254
 74
0
 49
-2.54
 74
0
 49
-5.0800000000000001
 74
0
 49
-2.54
 74
0
  0
LTYPE
  5
64
100
AcDbSymbolTableRecord
100
AcDbLinetypeTableRecord
  2
ACAD_ISO03W100
 70
0
  3
ISO dash space __    __    __    __    __    __
 72
65
 73
2
 40
30.0
 49
12.0
 74
0
 49
-18.0
 74
0
  0
LTYPE
  5
15
100
AcDbSymbolTableRecord
100
AcDbLinetypeTableRecord
  2
ByLayer
 70
0
  3

 72
65
 73
0
 40
0.0
  0
LTYPE
  5
65
100
AcDbSymbolTableRecord
100
AcDbLinetypeTableRecord
  2
FENCELINE2
 70
0
  3
Fenceline square ----[]-----[]----[]-----[]----[]---
 72
65
 73
4
 40
36.8299999999999983
 49
6.3499999999999996
 74
0
 49
-2.54
 74
0
 49
-2.54
 74
0
 49
25.3999999999999986
 74
0
  0
ENDTAB
  0
TABLE
  2
LAYER
  5
2
100
AcDbSymbolTable
 70
1
  0
LAYER
  5
10
100
AcDbSymbolTableRecord
100
AcDbLayerTableRecord
  2
0
 70
0
 62
7
420
16777215
  6
Continuous
370
-3
390
F
  0
ENDTAB
  0
TABLE
  2
STYLE
  5
3
100
AcDbSymbolTable
 70
1
  0
STYLE
  5
66
100
AcDbSymbolTableRecord
100
AcDbTextStyleTableRecord
  2
Standard
 70
0
 40
0.0
 41
1.0
 50
0.0
 71
0
 42
2.5
  3

  4

1001
ACAD
1000
txt
1071
0
  0
ENDTAB
  0
TABLE
  2
VIEW
  5
6
100
AcDbSymbolTable
 70
0
  0
ENDTAB
  0
TABLE
  2
UCS
  5
7
100
AcDbSymbolTable
 70
0
  0
ENDTAB
  0
TABLE
  2
APPID
  5
9
100
AcDbSymbolTable
 70
1
  0
APPID
  5
12
100
AcDbSymbolTableRecord
100
AcDbRegAppTableRecord
  2
ACAD
 70
0
  0
APPID
  5
67
100
AcDbSymbolTableRecord
100
AcDbRegAppTableRecord
  2
QCAD
 70
0
  0
ENDTAB
  0
TABLE
  2
DIMSTYLE
  5
A
100
AcDbSymbolTable
 70
1
100
AcDbDimStyleTable
 71
0
  0
DIMSTYLE
105
27
100
AcDbSymbolTableRecord
100
AcDbDimStyleTableRecord
  2
Standard
 41
0.18
 42
0.0625
 43
3.75
 44
0.18
 70
0
 73
0
 74
0
 77
1
 78
8
140
0.18
141
2.5
143
0.03937007874016
147
0.09
171
3
172
1
271
2
272
2
274
3
278
44
283
0
284
8
340
66
  0
ENDTAB
  0
TABLE
  2
BLOCK_RECORD
  5
1
100
AcDbSymbolTable
 70
1
  0
BLOCK_RECORD
  5
1F
100
AcDbSymbolTableRecord
100
AcDbBlockTableRecord
  2
*Model_Space
340
22
  0
BLOCK_RECORD
  5
1B
100
AcDbSymbolTableRecord
100
AcDbBlockTableRecord
  2
*Paper_Space
340
1E
  0
BLOCK_RECORD
  5
23
100
AcDbSymbolTableRecord
100
AcDbBlockTableRecord
  2
*Paper_Space0
340
26
  0
BLOCK_RECORD
  5
68
100
AcDbSymbolTableRecord
100
AcDbBlockTableRecord
  2
A$C28BF0FCF
340
0
  0
BLOCK_RECORD
  5
69
100
AcDbSymbolTableRecord
100
AcDbBlockTableRecord
  2
A$C20AE5F58
340
0
  0
BLOCK_RECORD
  5
6A
100
AcDbSymbolTableRecord
100
AcDbBlockTableRecord
  2
A$C1EF726D2
340
0
  0
BLOCK_RECORD
  5
6B
100
AcDbSymbolTableRecord
100
AcDbBlockTableRecord
  2
A$C75EA5A0A
340
0
  0
BLOCK_RECORD
  5
6C
100
AcDbSymbolTableRecord
100
AcDbBlockTableRecord
  2
asdf3
340
0
  0
BLOCK_RECORD
  5
6D
100
AcDbSymbolTableRecord
100
AcDbBlockTableRecord
  2
A$C52643D7B
340
0
  0
BLOCK_RECORD
  5
6E
100
AcDbSymbolTableRecord
100
AcDbBlockTableRecord
  2
A$C00452887
340
0
  0
ENDTAB
  0
ENDSEC
  0
SECTION
  2
BLOCKS
  0
BLOCK
  5
20
100
AcDbEntity
  8
0
100
AcDbBlockBegin
  2
*Model_Space
 70
0
 10
0.0
 20
0.0
 30
0.0
  3
*Model_Space
  1

  0
ENDBLK
  5
21
100
AcDbEntity
  8
0
100
AcDbBlockEnd
  0
BLOCK
  5
1C
100
AcDbEntity
 67
1
  8
0
100
AcDbBlockBegin
  2
*Paper_Space
 70
0
 10
0.0
 20
0.0
 30
0.0
  3
*Paper_Space
  1

  0
ENDBLK
  5
1D
100
AcDbEntity
 67
1
  8
0
100
AcDbBlockEnd
  0
BLOCK
  5
24
100
AcDbEntity
  8
0
100
AcDbBlockBegin
  2
*Paper_Space0
 70
0
 10
0.0
 20
0.0
 30
0.0
  3
*Paper_Space0
  1

  0
ENDBLK
  5
25
100
AcDbEntity
  8
0
100
AcDbBlockEnd
  0
BLOCK
  5
6F
100
AcDbEntity
  8
0
100
AcDbBlockBegin
  2
A$C28BF0FCF
 70
0
 10
0.0
 20
0.0
 30
0.0
  3
A$C28BF0FCF
  1

  0
LINE
  5
70
100
AcDbEntity
100
AcDbLine
  8
0
 62
256
370
-1
 48
1.0
  6
ByLayer
 10
4.1713209353631564
 20
5.7714976233099904
 30
0.0
 11
2.7004786862014498
 21
1.2447106472831919
 31
0.0
  0
LINE
  5
71
100
AcDbEntity
100
AcDbLine
  8
0
 62
256
370
-1
 48
1.0
  6
ByLayer
 10
8.9310664378291165
 20
5.7714976233099904
 30
0.0
 11
10.4019086869908204
 21
1.244710647283185
 31
0.0
  0
LINE
  5
72
100
AcDbEntity
100
AcDbLine
  8
0
 62
256
370
-1
 48
1.0
  6
ByLayer
 10
8.0220359357578275
 20
8.5692058343249151
 30
0.0
 11
12.7817814382238204
 21
8.5692058343249151
 31
0.0
  0
LINE
  5
73
100
AcDbEntity
100
AcDbLine
  8
0
 62
256
370
-1
 48
1.0
  6
ByLayer
 10
6.5511936865961502
 20
4.042418858298106
 30
0.0
 11
2.7004786862014498
 21
1.2447106472831919
 31
0.0
  0
LINE
  5
74
100
AcDbEntity
100
AcDbLine
  8
0
 62
256
370
-1
 48
1.0
  6
ByLayer
 10
0.3206059349684551
 20
8.5692058343249151
 30
0.0
 11
4.1713209353631564
 21
5.7714976233099904
 31
0.0
  0
LINE
  5
75
100
AcDbEntity
100
AcDbLine
  8
0
 62
256
370
-1
 48
1.0
  6
ByLayer
 10
10.4019086869908204
 20
1.244710647283185
 30
0.0
 11
6.5511936865961502
 21
4.042418858298106
 31
0.0
  0
LINE
  5
76
100
AcDbEntity
100
AcDbLine
  8
0
 62
256
370
-1
 48
1.0
  6
ByLayer
 10
12.7817814382238204
 20
8.5692058343249151
 30
0.0
 11
8.9310664378291165
 21
5.7714976233099904
 31
0.0
  0
LINE
  5
77
100
AcDbEntity
100
AcDbLine
  8
0
 62
256
370
-1
 48
1.0
  6
ByLayer
 10
6.5511936865961502
 20
13.0959928103517207
 30
0.0
 11
5.0803514374344161
 21
8.5692058343249151
 31
0.0
  0
LINE
  5
78
100
AcDbEntity
100
AcDbLine
  8
0
 62
256
370
-1
 48
1.0
  6
ByLayer
 10
6.5511936865961502
 20
13.0959928103517207
 30
0.0
 11
8.0220359357578275
 21
8.5692058343249151
 31
0.0
  0
LINE
  5
79
100
AcDbEntity
100
AcDbLine
  8
0
 62
256
370
-1
 48
1.0
  6
ByLayer
 10
0.3206059349684551
 20
8.5692058343249151
 30
0.0
 11
5.0803514374344161
 21
8.5692058343249151
 31
0.0
  0
LINE
  5
7A
100
AcDbEntity
100
AcDbLine
  8
0
 62
256
370
-1
 48
1.0
  6
ByLayer
 10
12.7817816588175805
 20
8.5692058692451525
 30
0.0
 11
8.9310666584228784
 21
5.7714976582302304
 31
0.0
  0
POINT
  5
7B
100
AcDbEntity
100
AcDbPoint
  8
0
 62
256
370
-1
 48
1.0
  6
ByLayer
 10
5.8157725620152974
 20
10.8325993223383197
 30
0.0
  0
POINT
  5
7C
100
AcDbEntity
100
AcDbPoint
  8
0
 62
256
370
-1
 48
1.0
  6
ByLayer
 10
0.4008385928947575
 20
8.5692058343249151
 30
0.0
  0
POINT
  5
7D
100
AcDbEntity
100
AcDbPoint
  8
0
 62
256
370
-1
 48
1.0
  6
ByLayer
 10
1.9606762077413009
 20
8.5692058343249151
 30
0.0
  0
POINT
  5
7E
100
AcDbEntity
100
AcDbPoint
  8
0
 62
256
370
-1
 48
1.0
  6
ByLayer
 10
3.5205138225878732
 20
8.5692058343249151
 30
0.0
  0
LINE
  5
7F
100
AcDbEntity
100
AcDbLine
  8
0
 62
256
370
-1
 48
1.0
  6
ByLayer
 10
7.4632544102288989
 20
13.0321936924629096
 30
0.0
 11
7.7600654715646158
 21
12.1187031753385295
 31
0.0
  0
LINE
  5
80
100
AcDbEntity
100
AcDbLine
  8
0
 62
256
370
-1
 48
1.0
  6
ByLayer
 10
12.4392625908835708
 20
9.4169121520591936
 30
0.0
 11
11.4787618166071201
 21
9.4169121520591936
 31
0.0
  0
LINE
  5
81
100
AcDbEntity
100
AcDbLine
  8
0
 62
256
370
-1
 48
1.0
  6
ByLayer
 10
5.6391329629633447
 20
13.0321936924629096
 30
0.0
 11
5.3423219016276562
 21
12.1187031753385295
 31
0.0
  0
LINE
  5
82
100
AcDbEntity
100
AcDbLine
  8
0
 62
256
370
-1
 48
1.0
  6
ByLayer
 10
0.6631247652749437
 20
9.4169121171389563
 30
0.0
 11
1.623625536231089
 21
9.4169121171389438
 31
0.0
  0
LINE
  5
83
100
AcDbEntity
100
AcDbLine
  8
0
 62
256
370
-1
 48
1.0
  6
ByLayer
 10
13.0029471545140893
 20
7.6820694170842412
 30
0.0
 11
12.2258856998994894
 21
7.1175012234330293
 31
0.0
  0
LINE
  5
84
100
AcDbEntity
100
AcDbLine
  8
0
 62
256
370
-1
 48
1.0
  6
ByLayer
 10
11.1022811317073398
 20
1.832421060427905
 30
0.0
 11
10.8054700703716495
 21
2.745911577552278
 31
0.0
  0
LINE
  5
85
100
AcDbEntity
100
AcDbLine
  8
0
 62
256
370
-1
 48
1.0
  6
ByLayer
 10
3.4758514921265662
 20
0.7602293753348377
 30
0.0
 11
4.2529129389403693
 21
1.324797563318413
 31
0.0
  0
LINE
  5
86
100
AcDbEntity
100
AcDbLine
  8
0
 62
256
370
-1
 48
1.0
  6
ByLayer
 10
9.6265358810657062
 20
0.7602293753348235
 30
0.0
 11
8.8494744342519027
 21
1.324797563318405
 31
0.0
  0
LINE
  5
87
100
AcDbEntity
100
AcDbLine
  8
0
 62
256
370
-1
 48
1.0
  6
ByLayer
 10
2.0001062414848998
 20
1.832421060427905
 30
0.0
 11
2.296917302820646
 21
2.7459115775522851
 31
0.0
  0
LINE
  5
88
100
AcDbEntity
100
AcDbLine
  8
0
 62
256
370
-1
 48
1.0
  6
ByLayer
 10
0.0994402382660553
 20
7.6820695282033391
 30
0.0
 11
0.8765016850798304
 21
7.1175013402197482
 31
0.0
  0
ARC
  5
89
100
AcDbEntity
  8
0
 62
256
370
-1
 48
1.0
  6
ByLayer
100
AcDbCircle
 10
6.5511936865961218
 20
6.5447651547136019
 30
0.0
 40
6.5512276556381153
100
AcDbArc
 50
98.0027030188906281
 51
153.9972969811090024
  0
ARC
  5
8A
100
AcDbEntity
  8
0
 62
256
370
-1
 48
1.0
  6
ByLayer
100
AcDbCircle
 10
6.5511936865961218
 20
6.5447651547136019
 30
0.0
 40
5.7035213728240697
100
AcDbArc
 50
102.2367589635697982
 51
149.7632410364298892
  0
ARC
  5
8B
100
AcDbEntity
  8
0
 62
256
370
-1
 48
1.0
  6
ByLayer
100
AcDbCircle
 10
6.5511936865961502
 20
6.5447651547136214
 30
0.0
 40
5.7035213728240519
100
AcDbArc
 50
30.2367593696085493
 51
77.7632410364301592
  0
ARC
  5
8C
100
AcDbEntity
  8
0
 62
256
370
-1
 48
1.0
  6
ByLayer
100
AcDbCircle
 10
6.5511936865961218
 20
6.5447651547135406
 30
0.0
 40
6.5512276556381774
100
AcDbArc
 50
26.002703358694319
 51
81.9972969811093719
  0
ARC
  5
8D
100
AcDbEntity
  8
0
 62
256
370
-1
 48
1.0
  6
ByLayer
100
AcDbCircle
 10
6.5511936865960934
 20
6.5447651547135974
 30
0.0
 40
5.7035213728241274
100
AcDbArc
 50
318.2367589635704235
 51
5.7632398572671004
  0
ARC
  5
8E
100
AcDbEntity
  8
0
 62
256
370
-1
 48
1.0
  6
ByLayer
100
AcDbCircle
 10
6.5511936865961502
 20
6.5447651547135788
 30
0.0
 40
6.5512276556381304
100
AcDbArc
 50
314.0027030188892923
 51
9.997295994299451
  0
ARC
  5
8F
100
AcDbEntity
  8
0
 62
256
370
-1
 48
1.0
  6
ByLayer
100
AcDbCircle
 10
6.5511936865961786
 20
6.5447651547135974
 30
0.0
 40
6.5512276556381757
100
AcDbArc
 50
170.0027030188905712
 51
225.9972969811086898
  0
ARC
  5
90
100
AcDbEntity
  8
0
 62
256
370
-1
 48
1.0
  6
ByLayer
100
AcDbCircle
 10
6.5511936865960934
 20
6.5447651547135717
 30
0.0
 40
5.7035213728240439
100
AcDbArc
 50
174.2367589635699119
 51
221.7632410364296618
  0
ARC
  5
91
100
AcDbEntity
  8
0
 62
256
370
-1
 48
1.0
  6
ByLayer
100
AcDbCircle
 10
6.5511936865961502
 20
6.5447651547135486
 30
0.0
 40
5.7035213728240626
100
AcDbArc
 50
246.2367589635703098
 51
293.7632410364296902
  0
ARC
  5
92
100
AcDbEntity
  8
0
 62
256
370
-1
 48
1.0
  6
ByLayer
100
AcDbCircle
 10
6.5511936865961502
 20
6.544765154713561
 30
0.0
 40
6.5512276556381126
100
AcDbArc
 50
242.0027030188915376
 51
297.9972969811083203
  0
ENDBLK
  5
93
100
AcDbEntity
  8
0
100
AcDbBlockEnd
  0
BLOCK
  5
94
100
AcDbEntity
  8
0
100
AcDbBlockBegin
  2
A$C20AE5F58
 70
0
 10
0.0
 20
0.0
 30
0.0
  3
A$C20AE5F58
  1

  0
LINE
  5
95
100
AcDbEntity
100
AcDbLine
  8
0
 62
256
370
-1
 48
1.0
  6
ByLayer
 10
6.4065400064371829
 20
8.8749686839338224
 30
0.0
 11
4.1473206875144513
 21
1.9218065792170551
 31
0.0
  0
LINE
  5
96
100
AcDbEntity
100
AcDbLine
  8
0
 62
256
370
-1
 48
1.0
  6
ByLayer
 10
13.7175272985519108
 20
8.8749686839338224
 30
0.0
 11
15.9767466174746495
 21
1.921806579217048
 31
0.0
  0
LINE
  5
97
100
AcDbEntity
100
AcDbLine
  8
0
 62
256
370
-1
 48
1.0
  6
ByLayer
 10
12.3212529714172696
 20
13.1722591939365508
 30
0.0
 11
19.6322402635320294
 21
13.1722591939365508
 31
0.0
  0
LINE
  5
98
100
AcDbEntity
100
AcDbLine
  8
0
 62
256
370
-1
 48
1.0
  6
ByLayer
 10
10.0620336524945593
 20
6.2190970892197726
 30
0.0
 11
4.1473206875144513
 21
1.9218065792170551
 31
0.0
  0
LINE
  5
99
100
AcDbEntity
100
AcDbLine
  8
0
 62
256
370
-1
 48
1.0
  6
ByLayer
 10
0.4918270414570998
 20
13.1722591939365508
 30
0.0
 11
6.4065400064371829
 21
8.8749686839338224
 31
0.0
  0
LINE
  5
9A
100
AcDbEntity
100
AcDbLine
  8
0
 62
256
370
-1
 48
1.0
  6
ByLayer
 10
15.9767466174746495
 20
1.921806579217048
 30
0.0
 11
10.0620336524945593
 21
6.2190970892197726
 31
0.0
  0
LINE
  5
9B
100
AcDbEntity
100
AcDbLine
  8
0
 62
256
370
-1
 48
1.0
  6
ByLayer
 10
19.6322402635320294
 20
13.1722591939365508
 30
0.0
 11
13.7175272985519108
 21
8.8749686839338224
 31
0.0
  0
LINE
  5
9C
100
AcDbEntity
100
AcDbLine
  8
0
 62
256
370
-1
 48
1.0
  6
ByLayer
 10
10.0620336524945593
 20
20.125421298653329
 30
0.0
 11
7.8028143335718028
 21
13.1722591939365508
 31
0.0
  0
LINE
  5
9D
100
AcDbEntity
100
AcDbLine
  8
0
 62
256
370
-1
 48
1.0
  6
ByLayer
 10
10.0620336524945593
 20
20.125421298653329
 30
0.0
 11
12.3212529714172696
 21
13.1722591939365508
 31
0.0
  0
LINE
  5
9E
100
AcDbEntity
100
AcDbLine
  8
0
 62
256
370
-1
 48
1.0
  6
ByLayer
 10
0.4918270414570998
 20
13.1722591939365508
 30
0.0
 11
7.8028143335718028
 21
13.1722591939365508
 31
0.0
  0
LINE
  5
9F
100
AcDbEntity
100
AcDbLine
  8
0
 62
256
370
-1
 48
1.0
  6
ByLayer
 10
19.6322406023648703
 20
13.1722592475741695
 30
0.0
 11
13.7175276373847606
 21
8.8749687375714412
 31
0.0
  0
POINT
  5
A0
100
AcDbEntity
100
AcDbPoint
  8
0
 62
256
370
-1
 48
1.0
  6
ByLayer
 10
8.9324239930331828
 20
16.6488402462949416
 30
0.0
  0
POINT
  5
A1
100
AcDbEntity
100
AcDbPoint
  8
0
 62
256
370
-1
 48
1.0
  6
ByLayer
 10
0.6150647108257203
 20
13.1722591939365508
 30
0.0
  0
POINT
  5
A2
100
AcDbEntity
100
AcDbPoint
  8
0
 62
256
370
-1
 48
1.0
  6
ByLayer
 10
3.0109812517411001
 20
13.1722591939365508
 30
0.0
  0
POINT
  5
A3
100
AcDbEntity
100
AcDbPoint
  8
0
 62
256
370
-1
 48
1.0
  6
ByLayer
 10
5.4068977926564799
 20
13.1722591939365508
 30
0.0
  0
LINE
  5
A4
100
AcDbEntity
100
AcDbLine
  8
0
 62
256
370
-1
 48
1.0
  6
ByLayer
 10
11.4629624115345905
 20
20.0274256096208809
 30
0.0
 11
11.9188653366931607
 21
18.6243006823104587
 31
0.0
  0
LINE
  5
A5
100
AcDbEntity
100
AcDbLine
  8
0
 62
256
370
-1
 48
1.0
  6
ByLayer
 10
19.1061300042929609
 20
14.4743393394379805
 30
0.0
 11
17.6307971422390004
 21
14.4743393394379805
 31
0.0
  0
LINE
  5
A6
100
AcDbEntity
100
AcDbLine
  8
0
 62
256
370
-1
 48
1.0
  6
ByLayer
 10
8.6611048934544783
 20
20.0274256096208809
 30
0.0
 11
8.2052019682959667
 21
18.6243006823104587
 31
0.0
  0
LINE
  5
A7
100
AcDbEntity
100
AcDbLine
  8
0
 62
256
370
-1
 48
1.0
  6
ByLayer
 10
1.0179372745322151
 20
14.4743392858003705
 30
0.0
 11
2.4932701314861561
 21
14.4743392858003492
 31
0.0
  0
LINE
  5
A8
100
AcDbEntity
100
AcDbLine
  8
0
 62
256
370
-1
 48
1.0
  6
ByLayer
 10
19.9719516494479308
 20
11.8096142648203806
 30
0.0
 11
18.77838228383035
 21
10.9424353605748106
 31
0.0
  0
LINE
  5
A9
100
AcDbEntity
100
AcDbLine
  8
0
 62
256
370
-1
 48
1.0
  6
ByLayer
 10
17.0525213706451702
 20
2.8245320210959188
 30
0.0
 11
16.5966184454866301
 21
4.2276569484063273
 31
0.0
  0
LINE
  5
AA
100
AcDbEntity
100
AcDbLine
  8
0
 62
256
370
-1
 48
1.0
  6
ByLayer
 10
5.3382962822879563
 20
1.1776414929436569
 30
0.0
 11
6.5318656359234808
 21
2.0448203884837142
 31
0.0
  0
LINE
  5
AB
100
AcDbEntity
100
AcDbLine
  8
0
 62
256
370
-1
 48
1.0
  6
ByLayer
 10
14.7857710227011392
 20
1.177641492943643
 30
0.0
 11
13.59220166906562
 21
2.0448203884837
 31
0.0
  0
LINE
  5
AC
100
AcDbEntity
100
AcDbLine
  8
0
 62
256
370
-1
 48
1.0
  6
ByLayer
 10
3.0715459343439311
 20
2.8245320210959188
 30
0.0
 11
3.5274488595024711
 21
4.227656948406338
 31
0.0
  0
LINE
  5
AD
100
AcDbEntity
100
AcDbLine
  8
0
 62
256
370
-1
 48
1.0
  6
ByLayer
 10
0.152115685628246
 20
11.8096144354997303
 30
0.0
 11
1.3456850392637421
 21
10.9424355399596607
 31
0.0
  0
ARC
  5
AE
100
AcDbEntity
  8
0
 62
256
370
-1
 48
1.0
  6
ByLayer
100
AcDbCircle
 10
10.0620336524945309
 20
10.0627105689921308
 30
0.0
 40
10.0627107296611893
100
AcDbArc
 50
98.0027030188906281
 51
153.9972969811090024
  0
ARC
  5
AF
100
AcDbEntity
  8
0
 62
256
370
-1
 48
1.0
  6
ByLayer
100
AcDbCircle
 10
10.0620336524945309
 20
10.0627105689921308
 30
0.0
 40
8.7606306377973642
100
AcDbArc
 50
102.2367589635697982
 51
149.7632410364298892
  0
ARC
  5
B0
100
AcDbEntity
  8
0
 62
256
370
-1
 48
1.0
  6
ByLayer
100
AcDbCircle
 10
10.0620336524945895
 20
10.0627105689921592
 30
0.0
 40
8.7606306377973375
100
AcDbArc
 50
30.2367593696087305
 51
77.7632410364301592
  0
ARC
  5
B1
100
AcDbEntity
  8
0
 62
256
370
-1
 48
1.0
  6
ByLayer
100
AcDbCircle
 10
10.0620336524945309
 20
10.0627105689920402
 30
0.0
 40
10.0627107296612799
100
AcDbArc
 50
26.002703358694319
 51
81.9972969811093719
  0
ARC
  5
B2
100
AcDbEntity
  8
0
 62
256
370
-1
 48
1.0
  6
ByLayer
100
AcDbCircle
 10
10.0620336524945095
 20
10.0627105689921201
 30
0.0
 40
8.760630637797453
100
AcDbArc
 50
318.2367589635704235
 51
5.7632398572671004
  0
ARC
  5
B3
100
AcDbEntity
  8
0
 62
256
370
-1
 48
1.0
  6
ByLayer
100
AcDbCircle
 10
10.0620336524945593
 20
10.0627105689920899
 30
0.0
 40
10.0627107296612106
100
AcDbArc
 50
314.0027030188892923
 51
9.997295994299451
  0
ARC
  5
B4
100
AcDbEntity
  8
0
 62
256
370
-1
 48
1.0
  6
ByLayer
100
AcDbCircle
 10
10.0620336524946197
 20
10.0627105689921201
 30
0.0
 40
10.0627107296612799
100
AcDbArc
 50
170.0027030188905712
 51
225.9972969811086898
  0
ARC
  5
B5
100
AcDbEntity
  8
0
 62
256
370
-1
 48
1.0
  6
ByLayer
100
AcDbCircle
 10
10.0620336524944793
 20
10.0627105689920793
 30
0.0
 40
8.7606306377973251
100
AcDbArc
 50
174.2367589635699119
 51
221.7632410364296618
  0
ARC
  5
B6
100
AcDbEntity
  8
0
 62
256
370
-1
 48
1.0
  6
ByLayer
100
AcDbCircle
 10
10.0620336524945895
 20
10.0627105689920509
 30
0.0
 40
8.7606306377973535
100
AcDbArc
 50
246.2367589635703098
 51
293.7632410364296902
  0
ARC
  5
B7
100
AcDbEntity
  8
0
 62
256
370
-1
 48
1.0
  6
ByLayer
100
AcDbCircle
 10
10.0620336524945593
 20
10.0627105689920704
 30
0.0
 40
10.0627107296611804
100
AcDbArc
 50
242.0027030188915376
 51
297.9972969811083203
  0
ENDBLK
  5
B8
100
AcDbEntity
  8
0
100
AcDbBlockEnd
  0
BLOCK
  5
B9
100
AcDbEntity
  8
0
100
AcDbBlockBegin
  2
A$C1EF726D2
 70
0
 10
0.0
 20
0.0
 30
0.0
  3
A$C1EF726D2
  1

  0
LINE
  5
BA
100
AcDbEntity
100
AcDbLine
  8
0
 62
256
370
-1
 48
1.0
  6
ByLayer
 10
2.5846796019834808
 20
0.0000000303324299
 30
0.0
 11
3.5846796019834808
 21
0.9529774128694797
 31
0.0
  0
LINE
  5
BB
100
AcDbEntity
100
AcDbLine
  8
0
 62
256
370
-1
 48
1.0
  6
ByLayer
 10
2.5846796019834808
 20
0.0000000303324299
 30
0.0
 11
-0.0000000443148132
 21
8.8002531684935299
 31
0.0
  0
LINE
  5
BC
100
AcDbEntity
100
AcDbLine
  8
0
 62
256
370
-1
 48
1.0
  6
ByLayer
 10
3.5846796681753972
 20
0.9529774432019096
 30
0.0
 11
4.5846796681753972
 21
1.9059548257389589
 31
0.0
  0
LINE
  5
BD
100
AcDbEntity
100
AcDbLine
  8
0
 62
256
370
-1
 48
1.0
  6
ByLayer
 10
-0.0000000443148132
 20
8.8002531684935299
 30
0.0
 11
2.9581740224409749
 21
7.4438408974657708
 31
0.0
  0
LINE
  5
BE
100
AcDbEntity
100
AcDbLine
  8
0
 62
256
370
-1
 48
1.0
  6
ByLayer
 10
4.5846796681753972
 20
1.9059548257389589
 30
0.0
 11
2.9581740224409749
 21
7.4438408974657708
 31
0.0
  0
LINE
  5
BF
100
AcDbEntity
100
AcDbLine
  8
0
 62
256
370
-1
 48
1.0
  6
ByLayer
 10
5.0024971543027981
 20
2.321336437328966
 30
0.0
 11
5.5024971543027981
 21
2.7978251285974909
 31
0.0
  0
LINE
  5
C0
100
AcDbEntity
100
AcDbLine
  8
0
 62
256
370
-1
 48
1.0
  6
ByLayer
 10
5.0024971543027981
 20
2.321336437328966
 30
0.0
 11
4.1328603806202118
 21
5.2822541501375468
 31
0.0
  0
LINE
  5
C1
100
AcDbEntity
100
AcDbLine
  8
0
 62
256
370
-1
 48
1.0
  6
ByLayer
 10
5.502497187398756
 20
2.7978251437637058
 30
0.0
 11
6.002497187398756
 21
3.2743138350322312
 31
0.0
  0
LINE
  5
C2
100
AcDbEntity
100
AcDbLine
  8
0
 62
256
370
-1
 48
1.0
  6
ByLayer
 10
4.1328603806202118
 20
5.2822541501375477
 30
0.0
 11
5.6119474139981058
 21
4.6040480146236691
 31
0.0
  0
LINE
  5
C3
100
AcDbEntity
100
AcDbLine
  8
0
 62
256
370
-1
 48
1.0
  6
ByLayer
 10
6.002497187398756
 20
3.2743138350322312
 30
0.0
 11
5.6119474139981023
 21
4.6040480146236673
 31
0.0
  0
ENDBLK
  5
C4
100
AcDbEntity
  8
0
100
AcDbBlockEnd
  0
BLOCK
  5
C5
100
AcDbEntity
  8
0
100
AcDbBlockBegin
  2
A$C75EA5A0A
 70
0
 10
0.0
 20
0.0
 30
0.0
  3
A$C75EA5A0A
  1

  0
LINE
  5
C6
100
AcDbEntity
100
AcDbLine
  8
0
 62
256
370
-1
 48
1.0
  6
ByLayer
 10
5.8135539567893488
 20
8.0510429661148954
 30
0.0
 11
3.763444700100536
 21
1.7414554573931511
 31
0.0
  0
LINE
  5
C7
100
AcDbEntity
100
AcDbLine
  8
0
 62
256
370
-1
 48
1.0
  6
ByLayer
 10
12.4478468727359104
 20
8.0510429661148954
 30
0.0
 11
14.4979561294247201
 21
1.74145545739314
 31
0.0
  0
LINE
  5
C8
100
AcDbEntity
100
AcDbLine
  8
0
 62
256
370
-1
 48
1.0
  6
ByLayer
 10
11.1808096714514704
 20
11.9505825014967204
 30
0.0
 11
17.8151025873980302
 21
11.9505825014967204
 31
0.0
  0
LINE
  5
C9
100
AcDbEntity
100
AcDbLine
  8
0
 62
256
370
-1
 48
1.0
  6
ByLayer
 10
9.1307004147626571
 20
5.6409949927749601
 30
0.0
 11
3.763444700100536
 21
1.7414554573931511
 31
0.0
  0
LINE
  5
CA
100
AcDbEntity
100
AcDbLine
  8
0
 62
256
370
-1
 48
1.0
  6
ByLayer
 10
0.4462982421272841
 20
11.9505825014967204
 30
0.0
 11
5.8135539567893488
 21
8.0510429661148954
 31
0.0
  0
LINE
  5
CB
100
AcDbEntity
100
AcDbLine
  8
0
 62
256
370
-1
 48
1.0
  6
ByLayer
 10
14.4979561294247201
 20
1.74145545739314
 30
0.0
 11
9.1307004147626571
 21
5.6409949927749601
 31
0.0
  0
LINE
  5
CC
100
AcDbEntity
100
AcDbLine
  8
0
 62
256
370
-1
 48
1.0
  6
ByLayer
 10
17.8151025873980302
 20
11.9505825014967204
 30
0.0
 11
12.4478468727359104
 21
8.0510429661148954
 31
0.0
  0
LINE
  5
CD
100
AcDbEntity
100
AcDbLine
  8
0
 62
256
370
-1
 48
1.0
  6
ByLayer
 10
9.1307004147626571
 20
18.2601700102184701
 30
0.0
 11
7.0805911580738439
 21
11.9505825014967204
 31
0.0
  0
LINE
  5
CE
100
AcDbEntity
100
AcDbLine
  8
0
 62
256
370
-1
 48
1.0
  6
ByLayer
 10
9.1307004147626571
 20
18.2601700102184701
 30
0.0
 11
11.1808096714514704
 21
11.9505825014967204
 31
0.0
  0
LINE
  5
CF
100
AcDbEntity
100
AcDbLine
  8
0
 62
256
370
-1
 48
1.0
  6
ByLayer
 10
0.4462982421272841
 20
11.9505825014967204
 30
0.0
 11
7.0805911580738439
 21
11.9505825014967204
 31
0.0
  0
LINE
  5
D0
100
AcDbEntity
100
AcDbLine
  8
0
 62
256
370
-1
 48
1.0
  6
ByLayer
 10
17.8151028948690318
 20
11.9505825501697096
 30
0.0
 11
12.4478471802069102
 21
8.0510430147878935
 31
0.0
  0
POINT
  5
D1
100
AcDbEntity
100
AcDbPoint
  8
0
 62
256
370
-1
 48
1.0
  6
ByLayer
 10
8.1056457864182789
 20
15.1053762558575997
 30
0.0
  0
POINT
  5
D2
100
AcDbEntity
100
AcDbPoint
  8
0
 62
256
370
-1
 48
1.0
  6
ByLayer
 10
0.5581292116260101
 20
11.9505825014967204
 30
0.0
  0
POINT
  5
D3
100
AcDbEntity
100
AcDbPoint
  8
0
 62
256
370
-1
 48
1.0
  6
ByLayer
 10
2.7322831937752881
 20
11.9505825014967204
 30
0.0
  0
POINT
  5
D4
100
AcDbEntity
100
AcDbPoint
  8
0
 62
256
370
-1
 48
1.0
  6
ByLayer
 10
4.906437175924566
 20
11.9505825014967204
 30
0.0
  0
LINE
  5
D5
100
AcDbEntity
100
AcDbLine
  8
0
 62
256
370
-1
 48
1.0
  6
ByLayer
 10
10.4019612404885606
 20
18.1712446599798803
 30
0.0
 11
10.8156664523688697
 21
16.8979909401322814
 31
0.0
  0
LINE
  5
D6
100
AcDbEntity
100
AcDbLine
  8
0
 62
256
370
-1
 48
1.0
  6
ByLayer
 10
17.3376883304151193
 20
13.1321439979326104
 30
0.0
 11
15.9989101374965799
 21
13.1321439979326104
 31
0.0
  0
LINE
  5
D7
100
AcDbEntity
100
AcDbLine
  8
0
 62
256
370
-1
 48
1.0
  6
ByLayer
 10
7.8594395890367537
 20
18.1712446599798803
 30
0.0
 11
7.445734377156441
 21
16.8979909401322814
 31
0.0
  0
LINE
  5
D8
100
AcDbEntity
100
AcDbLine
  8
0
 62
256
370
-1
 48
1.0
  6
ByLayer
 10
0.9237124753679495
 20
13.1321439492596106
 30
0.0
 11
2.2624906636585251
 21
13.1321439492595893
 31
0.0
  0
LINE
  5
D9
100
AcDbEntity
100
AcDbLine
  8
0
 62
256
370
-1
 48
1.0
  6
ByLayer
 10
18.1233707803244783
 20
10.7140620099433796
 30
0.0
 11
17.0402764634258084
 21
9.9271479268755982
 31
0.0
  0
LINE
  5
DA
100
AcDbEntity
100
AcDbLine
  8
0
 62
256
370
-1
 48
1.0
  6
ByLayer
 10
15.4741587322949403
 20
2.5606259421457409
 30
0.0
 11
15.0604535204146295
 21
3.833879661993322
 31
0.0
  0
LINE
  5
DB
100
AcDbEntity
100
AcDbLine
  8
0
 62
256
370
-1
 48
1.0
  6
ByLayer
 10
4.8441853218211008
 20
1.0661692117881041
 30
0.0
 11
5.9272796278467581
 21
1.8530832869561391
 31
0.0
  0
LINE
  5
DC
100
AcDbEntity
100
AcDbLine
  8
0
 62
256
370
-1
 48
1.0
  6
ByLayer
 10
13.4172155077042099
 20
1.0661692117880861
 30
0.0
 11
12.3341212016785597
 21
1.853083286956132
 31
0.0
  0
LINE
  5
DD
100
AcDbEntity
100
AcDbLine
  8
0
 62
256
370
-1
 48
1.0
  6
ByLayer
 10
2.7872420972303189
 20
2.5606259421457409
 30
0.0
 11
3.2009473091106879
 21
3.8338796619933331
 31
0.0
  0
LINE
  5
DE
100
AcDbEntity
100
AcDbLine
  8
0
 62
256
370
-1
 48
1.0
  6
ByLayer
 10
0.1380300765030711
 20
10.7140621648249006
 30
0.0
 11
1.2211243825286719
 21
9.9271480896568427
 31
0.0
  0
ARC
  5
DF
100
AcDbEntity
  8
0
 62
256
370
-1
 48
1.0
  6
ByLayer
100
AcDbCircle
 10
9.1307004147626571
 20
9.1288491855996625
 30
0.0
 40
9.1313208246188022
100
AcDbArc
 50
98.0027030188906281
 51
153.9972969811090024
  0
ARC
  5
E0
100
AcDbEntity
  8
0
 62
256
370
-1
 48
1.0
  6
ByLayer
100
AcDbCircle
 10
9.1307004147626571
 20
9.1288491855996625
 30
0.0
 40
7.9497593768559067
100
AcDbArc
 50
102.2367589635697982
 51
149.7632410364297186
  0
ARC
  5
E1
100
AcDbEntity
  8
0
 62
256
370
-1
 48
1.0
  6
ByLayer
100
AcDbCircle
 10
9.1307004147626571
 20
9.1288491855996874
 30
0.0
 40
7.9497593768558819
100
AcDbArc
 50
30.2367593696085493
 51
77.763241036430216
  0
ARC
  5
E2
100
AcDbEntity
  8
0
 62
256
370
-1
 48
1.0
  6
ByLayer
100
AcDbCircle
 10
9.1307004147626571
 20
9.1288491855995773
 30
0.0
 40
9.1313208246188893
100
AcDbArc
 50
26.002703358694319
 51
81.9972969811093719
  0
ARC
  5
E3
100
AcDbEntity
  8
0
 62
256
370
-1
 48
1.0
  6
ByLayer
100
AcDbCircle
 10
9.1307004147626003
 20
9.1288491855996554
 30
0.0
 40
7.9497593768559884
100
AcDbArc
 50
318.2367589635704235
 51
5.7632398572671004
  0
ARC
  5
E4
100
AcDbEntity
  8
0
 62
256
370
-1
 48
1.0
  6
ByLayer
100
AcDbCircle
 10
9.1307004147626571
 20
9.1288491855996305
 30
0.0
 40
9.1313208246188236
100
AcDbArc
 50
314.0027030188892923
 51
9.997295994299451
  0
ARC
  5
E5
100
AcDbEntity
  8
0
 62
256
370
-1
 48
1.0
  6
ByLayer
100
AcDbCircle
 10
9.130700414762714
 20
9.1288491855996554
 30
0.0
 40
9.1313208246188857
100
AcDbArc
 50
170.0027030188905712
 51
225.9972969811086898
  0
ARC
  5
E6
100
AcDbEntity
  8
0
 62
256
370
-1
 48
1.0
  6
ByLayer
100
AcDbCircle
 10
9.1307004147626003
 20
9.1288491855996199
 30
0.0
 40
7.9497593768558712
100
AcDbArc
 50
174.2367589635699119
 51
221.7632410364296049
  0
ARC
  5
E7
100
AcDbEntity
  8
0
 62
256
370
-1
 48
1.0
  6
ByLayer
100
AcDbCircle
 10
9.1307004147626571
 20
9.1288491855995879
 30
0.0
 40
7.949759376855897
100
AcDbArc
 50
246.2367589635702245
 51
293.7632410364296902
  0
ARC
  5
E8
100
AcDbEntity
  8
0
 62
256
370
-1
 48
1.0
  6
ByLayer
100
AcDbCircle
 10
9.1307004147626571
 20
9.1288491855996057
 30
0.0
 40
9.1313208246187987
100
AcDbArc
 50
242.0027030188915376
 51
297.9972969811083203
  0
ENDBLK
  5
E9
100
AcDbEntity
  8
0
100
AcDbBlockEnd
  0
BLOCK
  5
EA
100
AcDbEntity
  8
0
100
AcDbBlockBegin
  2
asdf3
 70
0
 10
0.0
 20
0.0
 30
0.0
  3
asdf3
  1

  0
LINE
  5
EB
100
AcDbEntity
100
AcDbLine
  8
0
 62
256
370
-1
 48
1.0
  6
ByLayer
 10
-51.0749999999999886
 20
6.4000489971501011
 30
0.0
 11
-66.6750000000000114
 21
6.4000489971501011
 31
0.0
  0
LINE
  5
EC
100
AcDbEntity
100
AcDbLine
  8
0
 62
256
370
-1
 48
1.0
  6
ByLayer
 10
-51.0749999999999886
 20
-6.3999510028499067
 30
0.0
 11
-66.6750000000000114
 21
-6.3999510028499067
 31
0.0
  0
LINE
  5
ED
100
AcDbEntity
100
AcDbLine
  8
0
 62
256
370
-1
 48
1.0
  6
ByLayer
 10
-51.0749999999999886
 20
-6.3999510028498854
 30
0.0
 11
-51.0749999999999886
 21
6.4000489971501366
 31
0.0
  0
LINE
  5
EE
100
AcDbEntity
100
AcDbLine
  8
0
 62
256
370
-1
 48
1.0
  6
ByLayer
 10
-66.6750000000000114
 20
-6.3999510028498854
 30
0.0
 11
-66.6750000000000114
 21
6.4000489971501366
 31
0.0
  0
LINE
  5
EF
100
AcDbEntity
100
AcDbLine
  8
0
 62
256
370
-1
 48
1.0
  6
ByLayer
 10
-74.3052000000001271
 20
-3.8734010028499242
 30
0.0
 11
-71.6381999999999834
 21
-3.8734010028499242
 31
0.0
  0
LINE
  5
F0
100
AcDbEntity
100
AcDbLine
  8
0
 62
256
370
-1
 48
1.0
  6
ByLayer
 10
-71.6381999999999834
 20
-3.8734010028499242
 30
0.0
 11
-71.6381999999999834
 21
-9.0804010028499178
 31
0.0
  0
LINE
  5
F1
100
AcDbEntity
100
AcDbLine
  8
0
 62
256
370
-1
 48
1.0
  6
ByLayer
 10
-74.3052000000001271
 20
-3.8734010028499242
 30
0.0
 11
-74.3052000000001271
 21
-9.0804010028499178
 31
0.0
  0
LINE
  5
F2
100
AcDbEntity
100
AcDbLine
  8
0
 62
256
370
-1
 48
1.0
  6
ByLayer
 10
-74.3052000000001271
 20
-9.0804010028499178
 30
0.0
 11
-71.6381999999999834
 21
-9.0804010028499178
 31
0.0
  0
LINE
  5
F3
100
AcDbEntity
100
AcDbLine
  8
0
 62
256
370
-1
 48
1.0
  6
ByLayer
 10
-43.4448000000001002
 20
-3.8734010028499242
 30
0.0
 11
-46.1118000000000166
 21
-3.8734010028499242
 31
0.0
  0
LINE
  5
F4
100
AcDbEntity
100
AcDbLine
  8
0
 62
256
370
-1
 48
1.0
  6
ByLayer
 10
-46.1118000000000166
 20
-3.8734010028499242
 30
0.0
 11
-46.1118000000000166
 21
-9.0804010028499178
 31
0.0
  0
LINE
  5
F5
100
AcDbEntity
100
AcDbLine
  8
0
 62
256
370
-1
 48
1.0
  6
ByLayer
 10
-43.4447999999998729
 20
-3.8734010028499242
 30
0.0
 11
-43.4447999999998729
 21
-9.0804010028499178
 31
0.0
  0
LINE
  5
F6
100
AcDbEntity
100
AcDbLine
  8
0
 62
256
370
-1
 48
1.0
  6
ByLayer
 10
-43.4448000000001002
 20
-9.0804010028499178
 30
0.0
 11
-46.1118000000000166
 21
-9.0804010028499178
 31
0.0
  0
LINE
  5
F7
100
AcDbEntity
100
AcDbLine
  8
0
 62
256
370
-1
 48
1.0
  6
ByLayer
 10
-35.71875
 20
-6.3999510028499067
 30
0.0
 11
-35.71875
 21
6.4000489971501011
 31
0.0
  0
LINE
  5
F8
100
AcDbEntity
100
AcDbLine
  8
0
 62
256
370
-1
 48
1.0
  6
ByLayer
 10
-28.0565499999999908
 20
-3.8734010028499242
 30
0.0
 11
-30.7235500000001913
 21
-3.8734010028499242
 31
0.0
  0
LINE
  5
F9
100
AcDbEntity
100
AcDbLine
  8
0
 62
256
370
-1
 48
1.0
  6
ByLayer
 10
-30.7235500000001913
 20
-3.8734010028499242
 30
0.0
 11
-30.7235500000001913
 21
-9.080401002850035
 31
0.0
  0
LINE
  5
FA
100
AcDbEntity
100
AcDbLine
  8
0
 62
256
370
-1
 48
1.0
  6
ByLayer
 10
-28.0565499999999908
 20
-3.8734010028499242
 30
0.0
 11
-28.0565499999999908
 21
-9.080401002850035
 31
0.0
  0
LINE
  5
FB
100
AcDbEntity
100
AcDbLine
  8
0
 62
256
370
-1
 48
1.0
  6
ByLayer
 10
-28.0565499999999908
 20
-9.080401002850035
 30
0.0
 11
-30.7235500000001913
 21
-9.080401002850035
 31
0.0
  0
LINE
  5
FC
100
AcDbEntity
100
AcDbLine
  8
0
 62
256
370
-1
 48
1.0
  6
ByLayer
 10
15.1235500000000194
 20
-3.8734010028499242
 30
0.0
 11
12.4565499999998792
 21
-3.8734010028499242
 31
0.0
  0
LINE
  5
FD
100
AcDbEntity
100
AcDbLine
  8
0
 62
256
370
-1
 48
1.0
  6
ByLayer
 10
12.4565499999998792
 20
-3.8734010028499242
 30
0.0
 11
12.4565499999998792
 21
-9.080401002850035
 31
0.0
  0
LINE
  5
FE
100
AcDbEntity
100
AcDbLine
  8
0
 62
256
370
-1
 48
1.0
  6
ByLayer
 10
15.1235500000000194
 20
-3.8734010028499242
 30
0.0
 11
15.1235500000000194
 21
-9.080401002850035
 31
0.0
  0
LINE
  5
FF
100
AcDbEntity
100
AcDbLine
  8
0
 62
256
370
-1
 48
1.0
  6
ByLayer
 10
15.1235500000000194
 20
-9.080401002850035
 30
0.0
 11
12.4565499999998792
 21
-9.080401002850035
 31
0.0
  0
LINE
  5
100
100
AcDbEntity
100
AcDbLine
  8
0
 62
256
370
-1
 48
1.0
  6
ByLayer
 10
0.0
 20
6.4000489971500443
 30
0.0
 11
-15.6000000000000796
 21
6.4000489971500443
 31
0.0
  0
LINE
  5
101
100
AcDbEntity
100
AcDbLine
  8
0
 62
256
370
-1
 48
1.0
  6
ByLayer
 10
0.0
 20
-6.3999510028499671
 30
0.0
 11
-15.6000000000000796
 21
-6.3999510028499671
 31
0.0
  0
LINE
  5
102
100
AcDbEntity
100
AcDbLine
  8
0
 62
256
370
-1
 48
1.0
  6
ByLayer
 10
0.0
 20
-6.3999510028499351
 30
0.0
 11
0.0
 21
6.4000489971500727
 31
0.0
  0
LINE
  5
103
100
AcDbEntity
100
AcDbLine
  8
0
 62
256
370
-1
 48
1.0
  6
ByLayer
 10
-15.6000000000000796
 20
-6.3999510028499351
 30
0.0
 11
-15.6000000000000796
 21
6.4000489971500727
 31
0.0
  0
LINE
  5
104
100
AcDbEntity
100
AcDbLine
  8
0
 62
256
370
-1
 48
1.0
  6
ByLayer
 10
35.7187255562381125
 20
6.3999999999999773
 30
0.0
 11
20.118725556238001
 21
6.3999999999999773
 31
0.0
  0
LINE
  5
105
100
AcDbEntity
100
AcDbLine
  8
0
 62
256
370
-1
 48
1.0
  6
ByLayer
 10
35.7187255562381125
 20
-6.4000000000000341
 30
0.0
 11
20.118725556238001
 21
-6.4000000000000341
 31
0.0
  0
LINE
  5
106
100
AcDbEntity
100
AcDbLine
  8
0
 62
256
370
-1
 48
1.0
  6
ByLayer
 10
35.7187255562381125
 20
-6.4000000000000021
 30
0.0
 11
35.7187255562381125
 21
6.4000000000000057
 31
0.0
  0
LINE
  5
107
100
AcDbEntity
100
AcDbLine
  8
0
 62
256
370
-1
 48
1.0
  6
ByLayer
 10
20.118725556238001
 20
-6.4000000000000021
 30
0.0
 11
20.118725556238001
 21
6.4000000000000057
 31
0.0
  0
LINE
  5
108
100
AcDbEntity
100
AcDbLine
  8
0
 62
256
370
-1
 48
1.0
  6
ByLayer
 10
57.1507350594374728
 20
6.3999999999999773
 30
0.0
 11
41.5507350594374714
 21
6.3999999999999773
 31
0.0
  0
LINE
  5
109
100
AcDbEntity
100
AcDbLine
  8
0
 62
256
370
-1
 48
1.0
  6
ByLayer
 10
57.1507350594374728
 20
-6.4000000000000341
 30
0.0
 11
41.5507350594374714
 21
-6.4000000000000341
 31
0.0
  0
LINE
  5
10A
100
AcDbEntity
100
AcDbLine
  8
0
 62
256
370
-1
 48
1.0
  6
ByLayer
 10
41.5507350594374714
 20
-6.4000000000000057
 30
0.0
 11
41.5507350594374714
 21
6.4000000000000057
 31
0.0
  0
LINE
  5
10B
100
AcDbEntity
100
AcDbLine
  8
0
 62
256
370
-1
 48
1.0
  6
ByLayer
 10
76.200735059437477
 20
6.3999999999999773
 30
0.0
 11
60.6007350594374472
 21
6.3999999999999773
 31
0.0
  0
LINE
  5
10C
100
AcDbEntity
100
AcDbLine
  8
0
 62
256
370
-1
 48
1.0
  6
ByLayer
 10
76.200735059437477
 20
-6.4000000000000341
 30
0.0
 11
60.6007350594374472
 21
-6.4000000000000341
 31
0.0
  0
LINE
  5
10D
100
AcDbEntity
100
AcDbLine
  8
0
 62
256
370
-1
 48
1.0
  6
ByLayer
 10
76.200735059437477
 20
-6.4000000000000057
 30
0.0
 11
76.200735059437477
 21
6.4000000000000057
 31
0.0
  0
LINE
  5
10E
100
AcDbEntity
100
AcDbLine
  8
0
 62
256
370
-1
 48
1.0
  6
ByLayer
 10
60.6007350594374472
 20
-6.4000000000000057
 30
0.0
 11
60.6007350594374472
 21
6.4000000000000057
 31
0.0
  0
LINE
  5
10F
100
AcDbEntity
100
AcDbLine
  8
0
 62
256
370
-1
 48
1.0
  6
ByLayer
 10
57.1507350594374728
 20
-6.4000000000000057
 30
0.0
 11
57.1507350594374728
 21
6.4000000000000057
 31
0.0
  0
ENDBLK
  5
110
100
AcDbEntity
  8
0
100
AcDbBlockEnd
  0
BLOCK
  5
111
100
AcDbEntity
  8
0
100
AcDbBlockBegin
  2
A$C52643D7B
 70
0
 10
0.0
 20
0.0
 30
0.0
  3
A$C52643D7B
  1

  0
ENDBLK
  5
112
100
AcDbEntity
  8
0
100
AcDbBlockEnd
  0
BLOCK
  5
113
100
AcDbEntity
  8
0
100
AcDbBlockBegin
  2
A$C00452887
 70
0
 10
0.0
 20
0.0
 30
0.0
  3
A$C00452887
  1

  0
ENDBLK
  5
114
100
AcDbEntity
  8
0
100
AcDbBlockEnd
  0
ENDSEC
  0
SECTION
  2
ENTITIES
  0
LINE
  5
115
100
AcDbEntity
100
AcDbLine
  8
0
 62
256
370
-1
 48
1.0
  6
ByLayer
 10
6.9459297949219643
 20
100.3958959213480995
 30
0.0
 11
6.945929794921935
 21
48.8288137611383277
 31
0.0
  0
ARC
  5
116
100
AcDbEntity
  8
0
 62
256
370
-1
 48
1.0
  6
ByLayer
100
AcDbCircle
 10
9.4459297949219643
 20
100.3958959213480995
 30
0.0
 40
2.5
100
AcDbArc
 50
90.0
 51
180.0
  0
LINE
  5
117
100
AcDbEntity
100
AcDbLine
  8
0
 62
256
370
-1
 48
1.0
  6
ByLayer
 10
254.5959486800119009
 20
100.3958959213480995
 30
0.0
 11
254.5959486800119862
 21
48.828803098528013
 31
0.0
  0
ARC
  5
118
100
AcDbEntity
  8
0
 62
256
370
-1
 48
1.0
  6
ByLayer
100
AcDbCircle
 10
252.0959486800117872
 20
100.3958959213480995
 30
0.0
 40
2.5
100
AcDbArc
 50
0.0
 51
89.9999999999987068
  0
LINE
  5
119
100
AcDbEntity
100
AcDbLine
  8
0
 62
256
370
-1
 48
1.0
  6
ByLayer
 10
9.4459297949219643
 20
102.8958959213480995
 30
0.0
 11
252.0959486800117872
 21
102.8958959213480995
 31
0.0
  0
LINE
  5
11A
100
AcDbEntity
100
AcDbLine
  8
0
 62
256
370
-1
 48
1.0
  6
ByLayer
 10
228.6766596656779029
 20
25.6958750000000009
 30
0.0
 11
32.8653802829959076
 21
25.6958750000000009
 31
0.0
  0
LINE
  5
11B
100
AcDbEntity
100
AcDbLine
  8
0
 62
256
370
-1
 48
1.0
  6
ByLayer
 10
231.9516091424868023
 20
26.9176868198865193
 30
0.0
 11
252.870898156820914
 21
45.0506149184145102
 31
0.0
  0
ARC
  5
11C
100
AcDbEntity
  8
0
 62
256
370
-1
 48
1.0
  6
ByLayer
100
AcDbCircle
 10
228.6766596656779029
 20
30.6958750000000009
 30
0.0
 40
5.0
100
AcDbArc
 50
270.0
 51
310.9188837721928849
  0
ARC
  5
11D
100
AcDbEntity
  8
0
 62
256
370
-1
 48
1.0
  6
ByLayer
100
AcDbCircle
 10
249.5959486800119862
 20
48.8288030985279988
 30
0.0
 40
5.0
100
AcDbArc
 50
310.9188837721928849
 51
0.0
  0
LINE
  5
11E
100
AcDbEntity
100
AcDbLine
  8
0
 62
256
370
-1
 48
1.0
  6
ByLayer
 10
29.5904441405656087
 20
26.9176752616320485
 30
0.0
 11
8.6709936524916209
 21
45.0506140227703895
 31
0.0
  0
ARC
  5
11F
100
AcDbEntity
  8
0
 62
256
370
-1
 48
1.0
  6
ByLayer
100
AcDbCircle
 10
32.8653802829959218
 20
30.6958750000000009
 30
0.0
 40
5.0
100
AcDbArc
 50
229.0813184417806951
 51
269.9999999999998863
  0
ARC
  5
120
100
AcDbEntity
  8
0
 62
256
370
-1
 48
1.0
  6
ByLayer
100
AcDbCircle
 10
11.9459297949219305
 20
48.8288137611383277
 30
0.0
 40
5.0
100
AcDbArc
 50
180.0
 51
229.0813184417806099
  0
CIRCLE
  5
121
100
AcDbEntity
100
AcDbCircle
  8
0
 62
256
370
-1
 48
1.0
  6
ByLayer
 10
235.5459299999999985
 20
83.8459000000000003
 30
0.0
 40
1.4000000000000059
  0
CIRCLE
  5
122
100
AcDbEntity
100
AcDbCircle
  8
0
 62
256
370
-1
 48
1.0
  6
ByLayer
 10
25.9959300000000013
 20
83.8459000000000003
 30
0.0
 40
1.399999999999999
  0
CIRCLE
  5
123
100
AcDbEntity
100
AcDbCircle
  8
0
 62
256
370
-1
 48
1.0
  6
ByLayer
 10
211.7333999999999889
 20
45.7460000000000022
 30
0.0
 40
1.4000000000000059
  0
CIRCLE
  5
124
100
AcDbEntity
100
AcDbCircle
  8
0
 62
256
370
-1
 48
1.0
  6
ByLayer
 10
37.9024500000000018
 20
45.7460000000000022
 30
0.0
 40
1.399999999999999
  0
CIRCLE
  5
125
100
AcDbEntity
100
AcDbCircle
  8
0
 62
256
370
-1
 48
1.0
  6
ByLayer
 10
126.0
 20
64.795895999999999
 30
0.0
 40
1.4000000000000059
  0
ENDSEC
  0
SECTION
  2
OBJECTS
  0
DICTIONARY
  5
C
100
AcDbDictionary
280
0
281
1
  3
ACAD_GROUP
350
D
  3
ACAD_LAYOUT
350
1A
  3
ACAD_MLINESTYLE
350
17
  3
ACAD_PLOTSETTINGS
350
19
  3
ACAD_PLOTSTYLENAME
350
E
  3
AcDbVariableDictionary
350
126
  3
QCAD_OBJECTS
350
127
  0
DICTIONARY
  5
D
100
AcDbDictionary
280
0
281
1
  0
ACDBDICTIONARYWDFLT
  5
E
100
AcDbDictionary
281
1
  3
Normal
350
F
100
AcDbDictionaryWithDefault
340
F
  0
ACDBPLACEHOLDER
  5
F
  0
DICTIONARY
  5
17
100
AcDbDictionary
280
0
281
1
  3
Standard
350
18
  0
MLINESTYLE
  5
18
100
AcDbMlineStyle
  2
STANDARD
 70
0
  3

 62
256
 51
90.0
 52
90.0
 71
2
 49
0.5
 62
256
  6
BYLAYER
 49
-0.5
 62
256
  6
BYLAYER
  0
DICTIONARY
  5
19
100
AcDbDictionary
280
0
281
1
  0
DICTIONARY
  5
1A
100
AcDbDictionary
281
1
  3
Layout1
350
1E
  3
Layout2
350
26
  3
Model
350
22
  0
LAYOUT
  5
1E
100
AcDbPlotSettings
  1

  2
none_device
  4

  6

 40
0.0
 41
0.0
 42
0.0
 43
0.0
 44
0.0
 45
0.0
 46
0.0
 47
0.0
 48
0.0
 49
0.0
140
0.0
141
0.0
142
1.0
143
1.0
 70
688
 72
0
 73
0
 74
5
  7

 75
16
147
1.0
148
0.0
149
0.0
100
AcDbLayout
  1
Layout1
 70
1
 71
1
 10
0.0
 20
0.0
 11
420.0
 21
297.0
 12
0.0
 22
0.0
 32
0.0
 14
100000000000000000000.0
 24
100000000000000000000.0
 34
100000000000000000000.0
 15
-100000000000000000000.0
 25
-100000000000000000000.0
 35
-100000000000000000000.0
146
0.0
 13
0.0
 23
0.0
 33
0.0
 16
1.0
 26
0.0
 36
0.0
 17
0.0
 27
1.0
 37
0.0
 76
0
330
1B
  0
LAYOUT
  5
22
100
AcDbPlotSettings
  1

  2
none_device
  4

  6

 40
0.0
 41
0.0
 42
0.0
 43
0.0
 44
0.0
 45
0.0
 46
0.0
 47
0.0
 48
0.0
 49
0.0
140
0.0
141
0.0
142
1.0
143
1.0
 70
1712
 72
0
 73
0
 74
0
  7

 75
0
147
1.0
148
0.0
149
0.0
100
AcDbLayout
  1
Model
 70
1
 71
0
 10
0.0
 20
0.0
 11
12.0
 21
9.0
 12
0.0
 22
0.0
 32
0.0
 14
0.0
 24
0.0
 34
0.0
 15
0.0
 25
0.0
 35
0.0
146
0.0
 13
0.0
 23
0.0
 33
0.0
 16
1.0
 26
0.0
 36
0.0
 17
0.0
 27
1.0
 37
0.0
 76
0
330
1F
  0
LAYOUT
  5
26
100
AcDbPlotSettings
  1

  2
none_device
  4

  6

 40
0.0
 41
0.0
 42
0.0
 43
0.0
 44
0.0
 45
0.0
 46
0.0
 47
0.0
 48
0.0
 49
0.0
140
0.0
141
0.0
142
1.0
143
1.0
 70
688
 72
0
 73
0
 74
5
  7

 75
16
147
1.0
148
0.0
149
0.0
100
AcDbLayout
  1
Layout2
 70
1
 71
2
 10
0.0
 20
0.0
 11
12.0
 21
9.0
 12
0.0
 22
0.0
 32
0.0
 14
0.0
 24
0.0
 34
0.0
 15
0.0
 25
0.0
 35
0.0
146
0.0
 13
0.0
 23
0.0
 33
0.0
 16
1.0
 26
0.0
 36
0.0
 17
0.0
 27
1.0
 37
0.0
 76
0
330
23
  0
DICTIONARY
  5
126
100
AcDbDictionary
281
1
  3
DIMASSOC
350
129
  3
HIDETEXT
350
128
  0
DICTIONARYVAR
  5
128
100
DictionaryVariables
280
0
  1
2
  0
DICTIONARYVAR
  5
129
100
DictionaryVariables
280
0
  1
1
  0
DICTIONARY
  5
127
100
AcDbDictionary
281
1
  3
ColorSettings/BackgroundColor
350
12A
  3
ColorSettings/ColorMode
350
12B
  3
Grid/DisplayGrid00
350
12C
  3
Grid/DisplayGrid01
350
12D
  3
Grid/DisplayGrid02
350
12E
  3
Grid/DisplayGrid03
350
12F
  3
Grid/GridSpacingX00
350
130
  3
Grid/GridSpacingX01
350
131
  3
Grid/GridSpacingX02
350
132
  3
Grid/GridSpacingX03
350
133
  3
Grid/GridSpacingY00
350
134
  3
Grid/GridSpacingY01
350
135
  3
Grid/GridSpacingY02
350
136
  3
Grid/GridSpacingY03
350
137
  3
Grid/IsometricGrid00
350
138
  3
Grid/IsometricGrid01
350
139
  3
Grid/IsometricGrid02
350
13A
  3
Grid/IsometricGrid03
350
13B
  3
Grid/IsometricProjection00
350
13C
  3
Grid/IsometricProjection01
350
13D
  3
Grid/IsometricProjection02
350
13E
  3
Grid/IsometricProjection03
350
13F
  3
Grid/MetaGridSpacingX00
350
140
  3
Grid/MetaGridSpacingX01
350
141
  3
Grid/MetaGridSpacingX02
350
142
  3
Grid/MetaGridSpacingX03
350
143
  3
Grid/MetaGridSpacingY00
350
144
  3
Grid/MetaGridSpacingY01
350
145
  3
Grid/MetaGridSpacingY02
350
146
  3
Grid/MetaGridSpacingY03
350
147
  3
MultiPageSettings/Columns
350
148
  3
MultiPageSettings/GlueMarginsBottom
350
149
  3
MultiPageSettings/GlueMarginsLeft
350
14A
  3
MultiPageSettings/GlueMarginsRight
350
14B
  3
MultiPageSettings/GlueMarginsTop
350
14C
  3
MultiPageSettings/PrintCropMarks
350
14D
  3
MultiPageSettings/Rows
350
14E
  3
PageSettings/OffsetX
350
14F
  3
PageSettings/OffsetY
350
150
  3
PageSettings/PageOrientation
350
151
  3
PageSettings/PaperHeight
350
152
  3
PageSettings/PaperWidth
350
153
  3
PageSettings/Scale
350
154
  3
PageSettings/ShowPaperBorders
350
155
  3
QCADVersion
350
156
  3
UnitSettings/PaperUnit
350
157
  0
XRECORD
  5
12A
330
127
100
AcDbXrecord
280
1
1000
White
  0
XRECORD
  5
12B
330
127
100
AcDbXrecord
280
1
1000
FullColor
  0
XRECORD
  5
12C
330
127
100
AcDbXrecord
280
1
290
1
  0
XRECORD
  5
12D
330
127
100
AcDbXrecord
280
1
290
1
  0
XRECORD
  5
12E
330
127
100
AcDbXrecord
280
1
290
1
  0
XRECORD
  5
12F
330
127
100
AcDbXrecord
280
1
290
1
  0
XRECORD
  5
130
330
127
100
AcDbXrecord
280
1
1000
auto
  0
XRECORD
  5
131
330
127
100
AcDbXrecord
280
1
1000
auto
  0
XRECORD
  5
132
330
127
100
AcDbXrecord
280
1
1000
auto
  0
XRECORD
  5
133
330
127
100
AcDbXrecord
280
1
1000
auto
  0
XRECORD
  5
134
330
127
100
AcDbXrecord
280
1
1000
auto
  0
XRECORD
  5
135
330
127
100
AcDbXrecord
280
1
1000
auto
  0
XRECORD
  5
136
330
127
100
AcDbXrecord
280
1
1000
auto
  0
XRECORD
  5
137
330
127
100
AcDbXrecord
280
1
1000
auto
  0
XRECORD
  5
138
330
127
100
AcDbXrecord
280
1
290
0
  0
XRECORD
  5
139
330
127
100
AcDbXrecord
280
1
290
0
  0
XRECORD
  5
13A
330
127
100
AcDbXrecord
280
1
290
0
  0
XRECORD
  5
13B
330
127
100
AcDbXrecord
280
1
290
0
  0
XRECORD
  5
13C
330
127
100
AcDbXrecord
280
1
 90
0
  0
XRECORD
  5
13D
330
127
100
AcDbXrecord
280
1
 90
0
  0
XRECORD
  5
13E
330
127
100
AcDbXrecord
280
1
 90
0
  0
XRECORD
  5
13F
330
127
100
AcDbXrecord
280
1
 90
0
  0
XRECORD
  5
140
330
127
100
AcDbXrecord
280
1
1000
auto
  0
XRECORD
  5
141
330
127
100
AcDbXrecord
280
1
1000
auto
  0
XRECORD
  5
142
330
127
100
AcDbXrecord
280
1
1000
auto
  0
XRECORD
  5
143
330
127
100
AcDbXrecord
280
1
1000
auto
  0
XRECORD
  5
144
330
127
100
AcDbXrecord
280
1
1000
auto
  0
XRECORD
  5
145
330
127
100
AcDbXrecord
280
1
1000
auto
  0
XRECORD
  5
146
330
127
100
AcDbXrecord
280
1
1000
auto
  0
XRECORD
  5
147
330
127
100
AcDbXrecord
280
1
1000
auto
  0
XRECORD
  5
148
330
127
100
AcDbXrecord
280
1
 90
1
  0
XRECORD
  5
149
330
127
100
AcDbXrecord
280
1
 40
10.0
  0
XRECORD
  5
14A
330
127
100
AcDbXrecord
280
1
 40
10.0
  0
XRECORD
  5
14B
330
127
100
AcDbXrecord
280
1
 40
10.0
  0
XRECORD
  5
14C
330
127
100
AcDbXrecord
280
1
 40
10.0
  0
XRECORD
  5
14D
330
127
100
AcDbXrecord
280
1
290
0
  0
XRECORD
  5
14E
330
127
100
AcDbXrecord
280
1
 90
1
  0
XRECORD
  5
14F
330
127
100
AcDbXrecord
280
1
 40
0.0
  0
XRECORD
  5
150
330
127
100
AcDbXrecord
280
1
 40
0.0
  0
XRECORD
  5
151
330
127
100
AcDbXrecord
280
1
1000
Portrait
  0
XRECORD
  5
152
330
127
100
AcDbXrecord
280
1
 40
297.0
  0
XRECORD
  5
153
330
127
100
AcDbXrecord
280
1
 40
210.0
  0
XRECORD
  5
154
330
127
100
AcDbXrecord
280
1
1000
1:1
  0
XRECORD
  5
155
330
127
100
AcDbXrecord
280
1
290
1
  0
XRECORD
  5
156
330
127
100
AcDbXrecord
280
1
1000
3.12.4
  0
XRECORD
  5
157
330
127
100
AcDbXrecord
280
1
 90
4
  0
ENDSEC
  0
EOF
