G04 #@! TF.FileFunction,Copper,L1,Top,Signal*
%FSLAX46Y46*%
G04 Gerber Fmt 4.6, Leading zero omitted, Abs format (unit mm)*
G04 Created by KiCad (PCBNEW 4.0.7) date Monday, 20 November 2017 'AMt' 10:57:51*
%MOMM*%
%LPD*%
G01*
G04 APERTURE LIST*
%ADD10C,0.100000*%
%ADD11C,0.149860*%
%ADD12R,1.143000X0.635000*%
%ADD13R,0.635000X1.143000*%
%ADD14R,1.498600X0.248920*%
%ADD15R,0.248920X1.498600*%
%ADD16R,0.797560X0.797560*%
%ADD17O,1.879600X1.879600*%
%ADD18C,1.879600*%
%ADD19R,1.600000X1.100000*%
%ADD20C,2.150000*%
%ADD21R,1.850000X0.400000*%
%ADD22R,1.800000X1.200000*%
%ADD23R,0.330000X0.500000*%
%ADD24C,0.685800*%
%ADD25C,0.250000*%
%ADD26C,0.152400*%
%ADD27C,0.180000*%
%ADD28C,0.254000*%
G04 APERTURE END LIST*
D10*
D11*
X176283620Y-100076000D02*
X177284380Y-100076000D01*
D12*
X153670000Y-96674000D03*
X153670000Y-95858000D03*
D13*
X177546000Y-100076000D03*
X176022000Y-100076000D03*
X158242000Y-96520000D03*
X159766000Y-96520000D03*
D14*
X173207680Y-104348280D03*
X173207680Y-103847900D03*
X173207680Y-103347520D03*
X173207680Y-102849680D03*
X173207680Y-102349300D03*
X173207680Y-101848920D03*
X173207680Y-101351080D03*
X173207680Y-100850700D03*
X173207680Y-100350320D03*
X173207680Y-99852480D03*
X173207680Y-99352100D03*
X173207680Y-98851720D03*
D15*
X171658280Y-97302320D03*
X171157900Y-97302320D03*
X170657520Y-97302320D03*
X170159680Y-97302320D03*
X169659300Y-97302320D03*
X169158920Y-97302320D03*
X168661080Y-97302320D03*
X168160700Y-97302320D03*
X167660320Y-97302320D03*
X167162480Y-97302320D03*
X166662100Y-97302320D03*
X166161720Y-97302320D03*
D14*
X164612320Y-98851720D03*
X164612320Y-99352100D03*
X164612320Y-99852480D03*
X164612320Y-100350320D03*
X164612320Y-100850700D03*
X164612320Y-101351080D03*
X164612320Y-101848920D03*
X164612320Y-102349300D03*
X164612320Y-102849680D03*
X164612320Y-103347520D03*
X164612320Y-103847900D03*
X164612320Y-104348280D03*
D15*
X166161720Y-105897680D03*
X166662100Y-105897680D03*
X167162480Y-105897680D03*
X167660320Y-105897680D03*
X168160700Y-105897680D03*
X168661080Y-105897680D03*
X169158920Y-105897680D03*
X169659300Y-105897680D03*
X170159680Y-105897680D03*
X170657520Y-105897680D03*
X171157900Y-105897680D03*
X171658280Y-105897680D03*
D13*
X174498000Y-105981500D03*
X172974000Y-105981500D03*
X163322000Y-105981500D03*
X164846000Y-105981500D03*
X163068000Y-97155000D03*
X164592000Y-97155000D03*
X174498000Y-97028000D03*
X172974000Y-97028000D03*
X161417000Y-102870000D03*
X159893000Y-102870000D03*
D16*
X158762700Y-104648000D03*
X160261300Y-104648000D03*
D17*
X156210000Y-96570800D03*
D13*
X176022000Y-103124000D03*
X177546000Y-103124000D03*
X158750000Y-106172000D03*
X160274000Y-106172000D03*
D18*
X153670000Y-93853000D03*
X156210000Y-94107000D03*
X158750000Y-93853000D03*
X161290000Y-94107000D03*
X163830000Y-93853000D03*
X166370000Y-94107000D03*
X168910000Y-93853000D03*
X171450000Y-94107000D03*
X173990000Y-93853000D03*
X176530000Y-94107000D03*
X179070000Y-93853000D03*
X181610000Y-94107000D03*
X184150000Y-93853000D03*
X186690000Y-94107000D03*
X186690000Y-109347000D03*
X184150000Y-109093000D03*
X181610000Y-109347000D03*
X179070000Y-109093000D03*
X176530000Y-109347000D03*
X173990000Y-109093000D03*
X171450000Y-109347000D03*
X168910000Y-109093000D03*
X166370000Y-109347000D03*
X163830000Y-109093000D03*
X161290000Y-109347000D03*
X158750000Y-109093000D03*
X156210000Y-109347000D03*
X153670000Y-109093000D03*
X186563000Y-106680000D03*
X186817000Y-104140000D03*
X186563000Y-101600000D03*
X186728100Y-98958400D03*
X186651900Y-96621600D03*
D19*
X179456000Y-97193100D03*
X179456000Y-98894000D03*
X183256000Y-97193100D03*
X183256000Y-98894900D03*
X183256000Y-106006900D03*
X183256000Y-104306000D03*
X179456000Y-106006900D03*
X179456000Y-104305100D03*
D20*
X153670000Y-104425000D03*
D21*
X156670000Y-102900000D03*
X156670000Y-102250000D03*
X156670000Y-101600000D03*
X156670000Y-100950000D03*
X156670000Y-100300000D03*
D20*
X153670000Y-98775000D03*
D22*
X153670000Y-100700000D03*
X153670000Y-102500000D03*
D13*
X176022000Y-101600000D03*
X177546000Y-101600000D03*
D23*
X159385000Y-98795000D03*
X158885000Y-100595000D03*
X159885000Y-100595000D03*
X159385000Y-100595000D03*
X159885000Y-98795000D03*
X158885000Y-98795000D03*
D12*
X161925000Y-100103000D03*
X161925000Y-99287000D03*
D24*
X161036000Y-98094800D03*
X165531800Y-97967800D03*
X173913800Y-96393000D03*
X169037000Y-103809800D03*
X166293800Y-103835200D03*
X162052000Y-103632000D03*
X160528000Y-99568000D03*
X170688000Y-99060000D03*
X169926000Y-99060000D03*
X163195000Y-103657400D03*
X183642000Y-100838000D03*
X166014400Y-95885000D03*
X172593000Y-96189800D03*
X163779200Y-95986600D03*
X170865800Y-104648000D03*
X173990000Y-106781600D03*
X162737800Y-105283000D03*
X159994600Y-97358200D03*
X160299400Y-102844600D03*
X159537400Y-99669600D03*
X175310800Y-99720400D03*
X178562000Y-102793800D03*
X175006000Y-101879400D03*
X171805600Y-103759000D03*
X171323000Y-102743000D03*
X176149000Y-105003600D03*
X174726600Y-103606600D03*
X181965600Y-97942400D03*
X174752000Y-100990400D03*
X181203600Y-106019600D03*
X171958000Y-99390200D03*
X178130200Y-97307400D03*
X174701200Y-99110800D03*
X167792400Y-95885000D03*
X166979600Y-95580200D03*
X169468800Y-99974400D03*
X166268400Y-99466400D03*
X170688000Y-100584000D03*
X170484800Y-101422200D03*
X162687000Y-100990400D03*
X163220400Y-101676200D03*
X166446200Y-102692200D03*
X167462200Y-102057200D03*
X158750000Y-102438200D03*
X176809400Y-105638600D03*
X176580800Y-103174800D03*
X172529500Y-107378500D03*
X169545000Y-107378500D03*
D25*
X161925000Y-99287000D02*
X161925000Y-98983800D01*
X161925000Y-98983800D02*
X161036000Y-98094800D01*
X165501320Y-97937320D02*
X165531800Y-97967800D01*
X166161720Y-97302320D02*
X165501320Y-97937320D01*
X173913800Y-96393000D02*
X174498000Y-96875600D01*
X174498000Y-96875600D02*
X174498000Y-97028000D01*
X171658280Y-104424480D02*
X171658280Y-105897680D01*
X170789600Y-103809800D02*
X171658280Y-104424480D01*
X169037000Y-103809800D02*
X170789600Y-103809800D01*
X165780720Y-104348280D02*
X166293800Y-103835200D01*
X164612320Y-104348280D02*
X165780720Y-104348280D01*
X173207680Y-104348280D02*
X179412820Y-104348280D01*
X179412820Y-104348280D02*
X179456000Y-104305100D01*
X177546000Y-100076000D02*
X177546000Y-99542600D01*
X177546000Y-99542600D02*
X175031400Y-97028000D01*
X175031400Y-97028000D02*
X174498000Y-97028000D01*
X183256000Y-104306000D02*
X186651000Y-104306000D01*
X186651000Y-104306000D02*
X186817000Y-104140000D01*
X172974000Y-106172000D02*
X172974000Y-104581960D01*
X172974000Y-104581960D02*
X173207680Y-104348280D01*
X172974000Y-106172000D02*
X171932600Y-106172000D01*
X171932600Y-106172000D02*
X171658280Y-105897680D01*
X179456000Y-104305100D02*
X183255100Y-104305100D01*
X183255100Y-104305100D02*
X183256000Y-104306000D01*
X161417000Y-102997000D02*
X161417000Y-102870000D01*
X162052000Y-103632000D02*
X161417000Y-102997000D01*
X160809000Y-99287000D02*
X160528000Y-99568000D01*
X161925000Y-99287000D02*
X160809000Y-99287000D01*
X161925000Y-99287000D02*
X161771000Y-99287000D01*
X164592000Y-97155000D02*
X166014400Y-97155000D01*
X166014400Y-97155000D02*
X166161720Y-97302320D01*
X161925000Y-99287000D02*
X162460000Y-99287000D01*
X162460000Y-99287000D02*
X164592000Y-97155000D01*
X161417000Y-102870000D02*
X161417000Y-102743000D01*
X164612320Y-104348280D02*
X162895280Y-104348280D01*
X162895280Y-104348280D02*
X161417000Y-102870000D01*
X164846000Y-106172000D02*
X164846000Y-104581960D01*
X164846000Y-104581960D02*
X164612320Y-104348280D01*
D26*
X168160700Y-97302320D02*
X168160700Y-98056700D01*
X169164000Y-99060000D02*
X169926000Y-99060000D01*
X168160700Y-98056700D02*
X169164000Y-99060000D01*
D25*
X156670000Y-102900000D02*
X157586200Y-102900000D01*
X157586200Y-102900000D02*
X157988000Y-103301800D01*
X159461200Y-103301800D02*
X159893000Y-102870000D01*
X157988000Y-103301800D02*
X159461200Y-103301800D01*
X159766000Y-96520000D02*
X159689800Y-96520000D01*
X159689800Y-96520000D02*
X158445200Y-95275400D01*
X158445200Y-95275400D02*
X158064200Y-95275400D01*
X158064200Y-95275400D02*
X156895800Y-94107000D01*
X156895800Y-94107000D02*
X156210000Y-94107000D01*
D26*
X170688000Y-99060000D02*
X171196000Y-99060000D01*
X170688000Y-99060000D02*
X169926000Y-99060000D01*
X171196000Y-99060000D02*
X171272200Y-98983800D01*
D25*
X164612320Y-103847900D02*
X163385500Y-103847900D01*
X163385500Y-103847900D02*
X163195000Y-103657400D01*
X159385000Y-98795000D02*
X159385000Y-99517200D01*
X159385000Y-99517200D02*
X159537400Y-99669600D01*
X179456000Y-98894000D02*
X177557800Y-98894000D01*
X172974000Y-96215200D02*
X172974000Y-97028000D01*
X173534798Y-95654402D02*
X172974000Y-96215200D01*
X174777400Y-95654402D02*
X173534798Y-95654402D01*
X175310800Y-96187802D02*
X174777400Y-95654402D01*
X175310800Y-96647000D02*
X175310800Y-96187802D01*
X177557800Y-98894000D02*
X175310800Y-96647000D01*
X173207680Y-100850700D02*
X171818300Y-100850700D01*
X171818300Y-100850700D02*
X171272200Y-100304600D01*
X171272200Y-100304600D02*
X171272200Y-98983800D01*
X171272200Y-98983800D02*
X172974000Y-97282000D01*
X172974000Y-97282000D02*
X172974000Y-97028000D01*
X183256000Y-100452000D02*
X183256000Y-98894900D01*
X183642000Y-100838000D02*
X183256000Y-100452000D01*
X180048800Y-98894000D02*
X179456000Y-98894000D01*
X166662100Y-97302320D02*
X166662100Y-96253300D01*
X166293800Y-95885000D02*
X166014400Y-95885000D01*
X166662100Y-96253300D02*
X166293800Y-95885000D01*
X163068000Y-97155000D02*
X163068000Y-96697800D01*
X163068000Y-96697800D02*
X163779200Y-95986600D01*
X172593000Y-96189800D02*
X172974000Y-96570800D01*
X172974000Y-96570800D02*
X172974000Y-97028000D01*
X171157900Y-105897680D02*
X171157900Y-104889300D01*
X171157900Y-104889300D02*
X170865800Y-104648000D01*
X174066200Y-106857800D02*
X174498000Y-105981500D01*
X173990000Y-106781600D02*
X174066200Y-106857800D01*
X162737800Y-105283000D02*
X163322000Y-105867200D01*
X163322000Y-105867200D02*
X163322000Y-105981500D01*
X186563000Y-101600000D02*
X185961100Y-101600000D01*
X185961100Y-101600000D02*
X183256000Y-98894900D01*
X177546000Y-101600000D02*
X177723800Y-101600000D01*
X177723800Y-101600000D02*
X179456000Y-99867800D01*
X179456000Y-99867800D02*
X179456000Y-98894000D01*
X179456000Y-98894000D02*
X183255100Y-98894000D01*
X183255100Y-98894000D02*
X183256000Y-98894900D01*
X177546000Y-103124000D02*
X177546000Y-101600000D01*
X159766000Y-96520000D02*
X159766000Y-97129600D01*
X159766000Y-97129600D02*
X159994600Y-97358200D01*
X159893000Y-102870000D02*
X160274000Y-102870000D01*
X160274000Y-102870000D02*
X160299400Y-102844600D01*
X159385000Y-99822000D02*
X159385000Y-100595000D01*
X159537400Y-99669600D02*
X159385000Y-99822000D01*
X159766000Y-96520000D02*
X162433000Y-96520000D01*
X162433000Y-96520000D02*
X163068000Y-97155000D01*
X163322000Y-105981500D02*
X161594800Y-105981500D01*
X161594800Y-105981500D02*
X160261300Y-104648000D01*
X153670000Y-109093000D02*
X153670000Y-107670600D01*
X156670000Y-104670600D02*
X156670000Y-102900000D01*
X153670000Y-107670600D02*
X156670000Y-104670600D01*
X159893000Y-102870000D02*
X159893000Y-104279700D01*
X159893000Y-104279700D02*
X160261300Y-104648000D01*
X159863000Y-102900000D02*
X159893000Y-102870000D01*
X153670000Y-95858000D02*
X154763800Y-95858000D01*
X154763800Y-95858000D02*
X155270200Y-95351600D01*
X155270200Y-95351600D02*
X157073600Y-95351600D01*
X157073600Y-95351600D02*
X158242000Y-96520000D01*
X153670000Y-95858000D02*
X153670000Y-93853000D01*
X153670000Y-95858000D02*
X154078000Y-95858000D01*
X158885000Y-98795000D02*
X158885000Y-100595000D01*
X158885000Y-98795000D02*
X158885000Y-97163000D01*
X158885000Y-97163000D02*
X158242000Y-96520000D01*
X158242000Y-96520000D02*
X158242000Y-96139000D01*
X176022000Y-100076000D02*
X175666400Y-100076000D01*
X175666400Y-100076000D02*
X175310800Y-99720400D01*
X173207680Y-100350320D02*
X175747680Y-100350320D01*
X175747680Y-100350320D02*
X176022000Y-100076000D01*
X176022000Y-101600000D02*
X176022000Y-100076000D01*
D26*
X173207680Y-102349300D02*
X174282100Y-102349300D01*
X178562000Y-103428800D02*
X178562000Y-102793800D01*
X177996122Y-103994678D02*
X178562000Y-103428800D01*
X175463200Y-103994678D02*
X177996122Y-103994678D01*
X175310800Y-103842278D02*
X175463200Y-103994678D01*
X175310800Y-103378000D02*
X175310800Y-103842278D01*
X174282100Y-102349300D02*
X175310800Y-103378000D01*
X173207680Y-101848920D02*
X174975520Y-101848920D01*
X174975520Y-101848920D02*
X175006000Y-101879400D01*
D25*
X158762700Y-104648000D02*
X158762700Y-106159300D01*
X158762700Y-106159300D02*
X158750000Y-106172000D01*
D26*
X173207680Y-103847900D02*
X171894500Y-103847900D01*
X171894500Y-103847900D02*
X171805600Y-103759000D01*
X173207680Y-103347520D02*
X172206920Y-103347520D01*
X171450000Y-102743000D02*
X171323000Y-102743000D01*
X172206920Y-103347520D02*
X171450000Y-102743000D01*
X177419000Y-105402378D02*
X177419000Y-107442000D01*
X177419000Y-107442000D02*
X178206400Y-108229400D01*
X176149000Y-105003600D02*
X177020222Y-105003600D01*
X177020222Y-105003600D02*
X177419000Y-105402378D01*
X173207680Y-102849680D02*
X173969680Y-102849680D01*
X178206400Y-108229400D02*
X179070000Y-109093000D01*
X173969680Y-102849680D02*
X174726600Y-103606600D01*
X173207680Y-101351080D02*
X174391320Y-101351080D01*
X181965600Y-97942400D02*
X182714900Y-97193100D01*
X174391320Y-101351080D02*
X174752000Y-100990400D01*
X182714900Y-97193100D02*
X183256000Y-97193100D01*
D25*
X179456000Y-97193100D02*
X183256000Y-97193100D01*
D26*
X161035992Y-106933992D02*
X166573200Y-106933992D01*
X166662100Y-106845092D02*
X166573200Y-106933992D01*
X160274000Y-106172000D02*
X161035992Y-106933992D01*
X166662100Y-106845092D02*
X166662100Y-105897680D01*
X171996100Y-99352100D02*
X173207680Y-99352100D01*
X171958000Y-99390200D02*
X171996100Y-99352100D01*
X181203600Y-106019600D02*
X181203600Y-106006900D01*
X181203600Y-106006900D02*
X181203600Y-106019600D01*
X181203600Y-106019600D02*
X181203600Y-106006900D01*
D25*
X179456000Y-106006900D02*
X181203600Y-106006900D01*
X181203600Y-106006900D02*
X183256000Y-106006900D01*
D26*
X173207680Y-98851720D02*
X174442120Y-98851720D01*
X181660800Y-96342200D02*
X184150000Y-93853000D01*
X178562000Y-96342200D02*
X181660800Y-96342200D01*
X178384200Y-96520000D02*
X178562000Y-96342200D01*
X178384200Y-97053400D02*
X178384200Y-96520000D01*
X178130200Y-97307400D02*
X178384200Y-97053400D01*
X174442120Y-98851720D02*
X174701200Y-99110800D01*
X171658280Y-97302320D02*
X171658280Y-95829122D01*
X180416200Y-95300800D02*
X181610000Y-94107000D01*
X172592256Y-95300800D02*
X180416200Y-95300800D01*
X172211254Y-95681802D02*
X172592256Y-95300800D01*
X171805600Y-95681802D02*
X172211254Y-95681802D01*
X171658280Y-95829122D02*
X171805600Y-95681802D01*
X171157900Y-97302320D02*
X171157900Y-95643700D01*
X172085000Y-95377000D02*
X173609000Y-93853000D01*
X171424600Y-95377000D02*
X172085000Y-95377000D01*
X171157900Y-95643700D02*
X171424600Y-95377000D01*
X173609000Y-93853000D02*
X173990000Y-93853000D01*
X170657520Y-97302320D02*
X170657520Y-94899480D01*
X170657520Y-94899480D02*
X171450000Y-94107000D01*
X170159680Y-97302320D02*
X170159680Y-95102680D01*
X170159680Y-95102680D02*
X168910000Y-93853000D01*
X169659300Y-97302320D02*
X169659300Y-95592900D01*
X167436800Y-95173800D02*
X166370000Y-94107000D01*
X169240200Y-95173800D02*
X167436800Y-95173800D01*
X169659300Y-95592900D02*
X169240200Y-95173800D01*
X167660320Y-97302320D02*
X167660320Y-96017080D01*
X167660320Y-96017080D02*
X167792400Y-95885000D01*
X167162480Y-97302320D02*
X167162480Y-95763080D01*
X167162480Y-95763080D02*
X166979600Y-95580200D01*
X164612320Y-98851720D02*
X168346120Y-98851720D01*
X168346120Y-98851720D02*
X169468800Y-99974400D01*
X164612320Y-99352100D02*
X166154100Y-99352100D01*
X166154100Y-99352100D02*
X166268400Y-99466400D01*
X170688000Y-100584000D02*
X166370000Y-100584000D01*
X165638480Y-99852480D02*
X164612320Y-99852480D01*
X166370000Y-100584000D02*
X165638480Y-99852480D01*
X170484800Y-101422200D02*
X166700200Y-101422200D01*
X165628320Y-100350320D02*
X164612320Y-100350320D01*
X166700200Y-101422200D02*
X165628320Y-100350320D01*
X163347400Y-100990400D02*
X162687000Y-100990400D01*
X164612320Y-101351080D02*
X163708080Y-101351080D01*
X163708080Y-101351080D02*
X163347400Y-100990400D01*
X164612320Y-101848920D02*
X163393120Y-101848920D01*
X163393120Y-101848920D02*
X163220400Y-101676200D01*
X164612320Y-103347520D02*
X165790880Y-103347520D01*
X165790880Y-103347520D02*
X166446200Y-102692200D01*
X166161720Y-105897680D02*
X166161720Y-105008680D01*
X167462200Y-103708200D02*
X167462200Y-102057200D01*
X166161720Y-105008680D02*
X167462200Y-103708200D01*
X167162480Y-105897680D02*
X167162480Y-106957296D01*
X157708602Y-107848398D02*
X156210000Y-109347000D01*
X161926490Y-107848398D02*
X157708602Y-107848398D01*
X162536094Y-107238794D02*
X161926490Y-107848398D01*
X166880982Y-107238794D02*
X162536094Y-107238794D01*
X167162480Y-106957296D02*
X166880982Y-107238794D01*
X167660320Y-105897680D02*
X167660320Y-106890512D01*
X159689800Y-108153200D02*
X158750000Y-109093000D01*
X162052744Y-108153200D02*
X159689800Y-108153200D01*
X162662348Y-107543596D02*
X162052744Y-108153200D01*
X167007236Y-107543596D02*
X162662348Y-107543596D01*
X167660320Y-106890512D02*
X167007236Y-107543596D01*
X168160700Y-105897680D02*
X168160700Y-106821188D01*
X162788602Y-107848398D02*
X161290000Y-109347000D01*
X167133490Y-107848398D02*
X162788602Y-107848398D01*
X168160700Y-106821188D02*
X167133490Y-107848398D01*
X168661080Y-105897680D02*
X168661080Y-106751864D01*
X164769800Y-108153200D02*
X163830000Y-109093000D01*
X167259744Y-108153200D02*
X164769800Y-108153200D01*
X168661080Y-106751864D02*
X167259744Y-108153200D01*
X169158920Y-105897680D02*
X169158920Y-106685080D01*
X169158920Y-106685080D02*
X166497000Y-109347000D01*
X166497000Y-109347000D02*
X166370000Y-109347000D01*
X170159680Y-107843320D02*
X168910000Y-109093000D01*
X170159680Y-105897680D02*
X170159680Y-107843320D01*
X170657520Y-105897680D02*
X170657520Y-108554520D01*
X170657520Y-108554520D02*
X171450000Y-109347000D01*
D25*
X159885000Y-100595000D02*
X161433000Y-100595000D01*
X161433000Y-100595000D02*
X161925000Y-100103000D01*
X153670000Y-96674000D02*
X156056000Y-96674000D01*
X156056000Y-96674000D02*
X156210000Y-96520000D01*
X155802000Y-96928000D02*
X156210000Y-96520000D01*
X156670000Y-100300000D02*
X156670000Y-96980000D01*
X156670000Y-96980000D02*
X156210000Y-96520000D01*
D27*
X163418180Y-102419490D02*
X163488370Y-102349300D01*
X163488370Y-102349300D02*
X164612320Y-102349300D01*
X162126558Y-101420000D02*
X163126048Y-102419490D01*
X163126048Y-102419490D02*
X163418180Y-102419490D01*
X158570558Y-101420000D02*
X162126558Y-101420000D01*
X158245558Y-101095000D02*
X158570558Y-101420000D01*
X156670000Y-100950000D02*
X157395000Y-100950000D01*
X157395000Y-100950000D02*
X157540000Y-101095000D01*
X157540000Y-101095000D02*
X158245558Y-101095000D01*
D26*
X158724600Y-102412800D02*
X158750000Y-102438200D01*
X158724600Y-102412800D02*
X158724600Y-101780000D01*
D27*
X161977442Y-101780000D02*
X162976932Y-102779490D01*
X162976932Y-102779490D02*
X163418180Y-102779490D01*
X163418180Y-102779490D02*
X163488370Y-102849680D01*
X163488370Y-102849680D02*
X164612320Y-102849680D01*
X158421442Y-101780000D02*
X158724600Y-101780000D01*
X158724600Y-101780000D02*
X161977442Y-101780000D01*
X158096442Y-101455000D02*
X158421442Y-101780000D01*
X156670000Y-101600000D02*
X157395000Y-101600000D01*
X157395000Y-101600000D02*
X157540000Y-101455000D01*
X157540000Y-101455000D02*
X158096442Y-101455000D01*
D26*
X172529500Y-107378500D02*
X175069500Y-107378500D01*
X175069500Y-107378500D02*
X176809400Y-105638600D01*
X176530000Y-103124000D02*
X176580800Y-103174800D01*
X172529500Y-107378500D02*
X172580300Y-107429300D01*
X169760900Y-107162600D02*
X169545000Y-107378500D01*
X176022000Y-103124000D02*
X176530000Y-103124000D01*
X169659300Y-105897680D02*
X169760900Y-107162600D01*
D28*
G36*
X155240132Y-97567539D02*
X155685111Y-97864864D01*
X156113200Y-97950016D01*
X156113200Y-99006436D01*
X155961208Y-98943323D01*
X155680026Y-98943078D01*
X155420153Y-99050455D01*
X155221154Y-99249107D01*
X155113323Y-99508792D01*
X155113078Y-99789974D01*
X155220455Y-100049847D01*
X155304741Y-100134280D01*
X155304741Y-100500000D01*
X155329125Y-100629589D01*
X155304741Y-100750000D01*
X155304741Y-101150000D01*
X155329125Y-101279589D01*
X155304741Y-101400000D01*
X155304741Y-101800000D01*
X155329125Y-101929589D01*
X155304741Y-102050000D01*
X155304741Y-102242233D01*
X155206673Y-102340302D01*
X155110000Y-102573691D01*
X155110000Y-102641250D01*
X155268750Y-102800000D01*
X155492381Y-102800000D01*
X155573715Y-102855573D01*
X155624766Y-102865911D01*
X155420153Y-102950455D01*
X155370521Y-103000000D01*
X155268750Y-103000000D01*
X155110000Y-103158750D01*
X155110000Y-103226309D01*
X155149500Y-103321669D01*
X155113323Y-103408792D01*
X155113078Y-103689974D01*
X155220455Y-103949847D01*
X155419107Y-104148846D01*
X155678792Y-104256677D01*
X155959974Y-104256922D01*
X156219847Y-104149545D01*
X156418846Y-103950893D01*
X156526677Y-103691208D01*
X156526763Y-103592487D01*
X156543000Y-103576250D01*
X156543000Y-103000000D01*
X156269654Y-103000000D01*
X156220893Y-102951154D01*
X156074242Y-102890259D01*
X156817000Y-102890259D01*
X156817000Y-103000000D01*
X156797000Y-103000000D01*
X156797000Y-103576250D01*
X156955750Y-103735000D01*
X157721310Y-103735000D01*
X157954699Y-103638327D01*
X158133327Y-103459698D01*
X158230000Y-103226309D01*
X158230000Y-103158750D01*
X158098252Y-103027002D01*
X158230000Y-103027002D01*
X158230000Y-103013840D01*
X158310595Y-103094576D01*
X158595227Y-103212765D01*
X158903421Y-103213034D01*
X158940500Y-103197713D01*
X158940500Y-103567810D01*
X159037173Y-103801199D01*
X159044935Y-103808961D01*
X158363920Y-103808961D01*
X158203905Y-103839070D01*
X158056940Y-103933639D01*
X157958347Y-104077935D01*
X157923661Y-104249220D01*
X157923661Y-105046780D01*
X157953770Y-105206795D01*
X158048339Y-105353760D01*
X158068889Y-105367801D01*
X158026927Y-105429215D01*
X157992241Y-105600500D01*
X157992241Y-106743500D01*
X158022350Y-106903515D01*
X158116919Y-107050480D01*
X158261215Y-107149073D01*
X158432500Y-107183759D01*
X159067500Y-107183759D01*
X159227515Y-107153650D01*
X159374480Y-107059081D01*
X159473073Y-106914785D01*
X159507759Y-106743500D01*
X159507759Y-105600500D01*
X159505035Y-105586024D01*
X159518078Y-105591426D01*
X159516241Y-105600500D01*
X159516241Y-106743500D01*
X159546350Y-106903515D01*
X159640919Y-107050480D01*
X159785215Y-107149073D01*
X159956500Y-107183759D01*
X160567338Y-107183759D01*
X160676781Y-107293202D01*
X160747414Y-107340398D01*
X157708602Y-107340398D01*
X157546452Y-107372652D01*
X157514198Y-107379067D01*
X157349392Y-107489188D01*
X156751766Y-108086814D01*
X156484025Y-107975639D01*
X155938369Y-107975163D01*
X155434066Y-108183536D01*
X155134060Y-108483019D01*
X155039580Y-108254923D01*
X154778968Y-108163637D01*
X153849605Y-109093000D01*
X153490395Y-109093000D01*
X153476253Y-109078858D01*
X153655858Y-108899253D01*
X153670000Y-108913395D01*
X154599363Y-107984032D01*
X154508077Y-107723420D01*
X153920167Y-107506955D01*
X153294172Y-107531951D01*
X152906800Y-107692405D01*
X152906800Y-105739631D01*
X153368964Y-105931538D01*
X153968406Y-105932061D01*
X154522419Y-105703148D01*
X154946658Y-105279648D01*
X155176538Y-104726036D01*
X155177061Y-104126594D01*
X154948148Y-103572581D01*
X154824885Y-103449103D01*
X154876980Y-103415581D01*
X154975573Y-103271285D01*
X155010259Y-103100000D01*
X155010259Y-101900000D01*
X154980150Y-101739985D01*
X154888886Y-101598156D01*
X154975573Y-101471285D01*
X155010259Y-101300000D01*
X155010259Y-100100000D01*
X154980150Y-99939985D01*
X154885581Y-99793020D01*
X154824683Y-99751410D01*
X154946658Y-99629648D01*
X155176538Y-99076036D01*
X155177061Y-98476594D01*
X154948148Y-97922581D01*
X154524648Y-97498342D01*
X154326005Y-97415858D01*
X154401515Y-97401650D01*
X154548480Y-97307081D01*
X154600600Y-97230800D01*
X155015131Y-97230800D01*
X155240132Y-97567539D01*
X155240132Y-97567539D01*
G37*
X155240132Y-97567539D02*
X155685111Y-97864864D01*
X156113200Y-97950016D01*
X156113200Y-99006436D01*
X155961208Y-98943323D01*
X155680026Y-98943078D01*
X155420153Y-99050455D01*
X155221154Y-99249107D01*
X155113323Y-99508792D01*
X155113078Y-99789974D01*
X155220455Y-100049847D01*
X155304741Y-100134280D01*
X155304741Y-100500000D01*
X155329125Y-100629589D01*
X155304741Y-100750000D01*
X155304741Y-101150000D01*
X155329125Y-101279589D01*
X155304741Y-101400000D01*
X155304741Y-101800000D01*
X155329125Y-101929589D01*
X155304741Y-102050000D01*
X155304741Y-102242233D01*
X155206673Y-102340302D01*
X155110000Y-102573691D01*
X155110000Y-102641250D01*
X155268750Y-102800000D01*
X155492381Y-102800000D01*
X155573715Y-102855573D01*
X155624766Y-102865911D01*
X155420153Y-102950455D01*
X155370521Y-103000000D01*
X155268750Y-103000000D01*
X155110000Y-103158750D01*
X155110000Y-103226309D01*
X155149500Y-103321669D01*
X155113323Y-103408792D01*
X155113078Y-103689974D01*
X155220455Y-103949847D01*
X155419107Y-104148846D01*
X155678792Y-104256677D01*
X155959974Y-104256922D01*
X156219847Y-104149545D01*
X156418846Y-103950893D01*
X156526677Y-103691208D01*
X156526763Y-103592487D01*
X156543000Y-103576250D01*
X156543000Y-103000000D01*
X156269654Y-103000000D01*
X156220893Y-102951154D01*
X156074242Y-102890259D01*
X156817000Y-102890259D01*
X156817000Y-103000000D01*
X156797000Y-103000000D01*
X156797000Y-103576250D01*
X156955750Y-103735000D01*
X157721310Y-103735000D01*
X157954699Y-103638327D01*
X158133327Y-103459698D01*
X158230000Y-103226309D01*
X158230000Y-103158750D01*
X158098252Y-103027002D01*
X158230000Y-103027002D01*
X158230000Y-103013840D01*
X158310595Y-103094576D01*
X158595227Y-103212765D01*
X158903421Y-103213034D01*
X158940500Y-103197713D01*
X158940500Y-103567810D01*
X159037173Y-103801199D01*
X159044935Y-103808961D01*
X158363920Y-103808961D01*
X158203905Y-103839070D01*
X158056940Y-103933639D01*
X157958347Y-104077935D01*
X157923661Y-104249220D01*
X157923661Y-105046780D01*
X157953770Y-105206795D01*
X158048339Y-105353760D01*
X158068889Y-105367801D01*
X158026927Y-105429215D01*
X157992241Y-105600500D01*
X157992241Y-106743500D01*
X158022350Y-106903515D01*
X158116919Y-107050480D01*
X158261215Y-107149073D01*
X158432500Y-107183759D01*
X159067500Y-107183759D01*
X159227515Y-107153650D01*
X159374480Y-107059081D01*
X159473073Y-106914785D01*
X159507759Y-106743500D01*
X159507759Y-105600500D01*
X159505035Y-105586024D01*
X159518078Y-105591426D01*
X159516241Y-105600500D01*
X159516241Y-106743500D01*
X159546350Y-106903515D01*
X159640919Y-107050480D01*
X159785215Y-107149073D01*
X159956500Y-107183759D01*
X160567338Y-107183759D01*
X160676781Y-107293202D01*
X160747414Y-107340398D01*
X157708602Y-107340398D01*
X157546452Y-107372652D01*
X157514198Y-107379067D01*
X157349392Y-107489188D01*
X156751766Y-108086814D01*
X156484025Y-107975639D01*
X155938369Y-107975163D01*
X155434066Y-108183536D01*
X155134060Y-108483019D01*
X155039580Y-108254923D01*
X154778968Y-108163637D01*
X153849605Y-109093000D01*
X153490395Y-109093000D01*
X153476253Y-109078858D01*
X153655858Y-108899253D01*
X153670000Y-108913395D01*
X154599363Y-107984032D01*
X154508077Y-107723420D01*
X153920167Y-107506955D01*
X153294172Y-107531951D01*
X152906800Y-107692405D01*
X152906800Y-105739631D01*
X153368964Y-105931538D01*
X153968406Y-105932061D01*
X154522419Y-105703148D01*
X154946658Y-105279648D01*
X155176538Y-104726036D01*
X155177061Y-104126594D01*
X154948148Y-103572581D01*
X154824885Y-103449103D01*
X154876980Y-103415581D01*
X154975573Y-103271285D01*
X155010259Y-103100000D01*
X155010259Y-101900000D01*
X154980150Y-101739985D01*
X154888886Y-101598156D01*
X154975573Y-101471285D01*
X155010259Y-101300000D01*
X155010259Y-100100000D01*
X154980150Y-99939985D01*
X154885581Y-99793020D01*
X154824683Y-99751410D01*
X154946658Y-99629648D01*
X155176538Y-99076036D01*
X155177061Y-98476594D01*
X154948148Y-97922581D01*
X154524648Y-97498342D01*
X154326005Y-97415858D01*
X154401515Y-97401650D01*
X154548480Y-97307081D01*
X154600600Y-97230800D01*
X155015131Y-97230800D01*
X155240132Y-97567539D01*
G36*
X161394859Y-104070259D02*
X161612595Y-104288376D01*
X161897227Y-104406565D01*
X162166366Y-104406800D01*
X162501563Y-104741997D01*
X162676183Y-104858674D01*
X162644802Y-104871673D01*
X162466173Y-105050301D01*
X162369500Y-105283690D01*
X162369500Y-105695750D01*
X162528250Y-105854500D01*
X163195000Y-105854500D01*
X163195000Y-105834500D01*
X163449000Y-105834500D01*
X163449000Y-105854500D01*
X163469000Y-105854500D01*
X163469000Y-106108500D01*
X163449000Y-106108500D01*
X163449000Y-106128500D01*
X163195000Y-106128500D01*
X163195000Y-106108500D01*
X162528250Y-106108500D01*
X162369500Y-106267250D01*
X162369500Y-106425992D01*
X161246413Y-106425992D01*
X161031759Y-106211338D01*
X161031759Y-105600500D01*
X161027424Y-105577461D01*
X161198407Y-105406479D01*
X161295080Y-105173090D01*
X161295080Y-104933750D01*
X161136330Y-104775000D01*
X160388300Y-104775000D01*
X160388300Y-104795000D01*
X160134300Y-104795000D01*
X160134300Y-104775000D01*
X160114300Y-104775000D01*
X160114300Y-104521000D01*
X160134300Y-104521000D01*
X160134300Y-104501000D01*
X160388300Y-104501000D01*
X160388300Y-104521000D01*
X161136330Y-104521000D01*
X161295080Y-104362250D01*
X161295080Y-104122910D01*
X161198407Y-103889521D01*
X161190645Y-103881759D01*
X161316972Y-103881759D01*
X161394859Y-104070259D01*
X161394859Y-104070259D01*
G37*
X161394859Y-104070259D02*
X161612595Y-104288376D01*
X161897227Y-104406565D01*
X162166366Y-104406800D01*
X162501563Y-104741997D01*
X162676183Y-104858674D01*
X162644802Y-104871673D01*
X162466173Y-105050301D01*
X162369500Y-105283690D01*
X162369500Y-105695750D01*
X162528250Y-105854500D01*
X163195000Y-105854500D01*
X163195000Y-105834500D01*
X163449000Y-105834500D01*
X163449000Y-105854500D01*
X163469000Y-105854500D01*
X163469000Y-106108500D01*
X163449000Y-106108500D01*
X163449000Y-106128500D01*
X163195000Y-106128500D01*
X163195000Y-106108500D01*
X162528250Y-106108500D01*
X162369500Y-106267250D01*
X162369500Y-106425992D01*
X161246413Y-106425992D01*
X161031759Y-106211338D01*
X161031759Y-105600500D01*
X161027424Y-105577461D01*
X161198407Y-105406479D01*
X161295080Y-105173090D01*
X161295080Y-104933750D01*
X161136330Y-104775000D01*
X160388300Y-104775000D01*
X160388300Y-104795000D01*
X160134300Y-104795000D01*
X160134300Y-104775000D01*
X160114300Y-104775000D01*
X160114300Y-104521000D01*
X160134300Y-104521000D01*
X160134300Y-104501000D01*
X160388300Y-104501000D01*
X160388300Y-104521000D01*
X161136330Y-104521000D01*
X161295080Y-104362250D01*
X161295080Y-104122910D01*
X161198407Y-103889521D01*
X161190645Y-103881759D01*
X161316972Y-103881759D01*
X161394859Y-104070259D01*
G36*
X175491859Y-105441859D02*
X175709595Y-105659976D01*
X175963976Y-105765604D01*
X175450500Y-106279080D01*
X175450500Y-106267250D01*
X175291750Y-106108500D01*
X174625000Y-106108500D01*
X174625000Y-106128500D01*
X174371000Y-106128500D01*
X174371000Y-106108500D01*
X174351000Y-106108500D01*
X174351000Y-105854500D01*
X174371000Y-105854500D01*
X174371000Y-105834500D01*
X174625000Y-105834500D01*
X174625000Y-105854500D01*
X175291750Y-105854500D01*
X175450500Y-105695750D01*
X175450500Y-105341763D01*
X175491859Y-105441859D01*
X175491859Y-105441859D01*
G37*
X175491859Y-105441859D02*
X175709595Y-105659976D01*
X175963976Y-105765604D01*
X175450500Y-106279080D01*
X175450500Y-106267250D01*
X175291750Y-106108500D01*
X174625000Y-106108500D01*
X174625000Y-106128500D01*
X174371000Y-106128500D01*
X174371000Y-106108500D01*
X174351000Y-106108500D01*
X174351000Y-105854500D01*
X174371000Y-105854500D01*
X174371000Y-105834500D01*
X174625000Y-105834500D01*
X174625000Y-105854500D01*
X175291750Y-105854500D01*
X175450500Y-105695750D01*
X175450500Y-105341763D01*
X175491859Y-105441859D01*
G36*
X162743275Y-103238870D02*
X162777248Y-103261570D01*
X162976932Y-103301290D01*
X163243084Y-103301290D01*
X163285413Y-103329573D01*
X163288686Y-103331760D01*
X163345394Y-103343040D01*
X163324693Y-103363741D01*
X163228020Y-103597130D01*
X163228020Y-103626920D01*
X163321998Y-103720898D01*
X163228020Y-103720898D01*
X163228020Y-103791480D01*
X163125914Y-103791480D01*
X162826822Y-103492388D01*
X162826834Y-103478579D01*
X162721882Y-103224576D01*
X162743275Y-103238870D01*
X162743275Y-103238870D01*
G37*
X162743275Y-103238870D02*
X162777248Y-103261570D01*
X162976932Y-103301290D01*
X163243084Y-103301290D01*
X163285413Y-103329573D01*
X163288686Y-103331760D01*
X163345394Y-103343040D01*
X163324693Y-103363741D01*
X163228020Y-103597130D01*
X163228020Y-103626920D01*
X163321998Y-103720898D01*
X163228020Y-103720898D01*
X163228020Y-103791480D01*
X163125914Y-103791480D01*
X162826822Y-103492388D01*
X162826834Y-103478579D01*
X162721882Y-103224576D01*
X162743275Y-103238870D01*
G36*
X185526536Y-94882934D02*
X185912037Y-95269108D01*
X186122223Y-95356385D01*
X185875966Y-95458136D01*
X185489792Y-95843637D01*
X185280539Y-96347575D01*
X185280063Y-96893231D01*
X185488436Y-97397534D01*
X185873937Y-97783708D01*
X185937128Y-97809947D01*
X185565992Y-98180437D01*
X185356739Y-98684375D01*
X185356263Y-99230031D01*
X185564636Y-99734334D01*
X185950137Y-100120508D01*
X185970181Y-100128831D01*
X185724923Y-100230420D01*
X185633637Y-100491032D01*
X186563000Y-101420395D01*
X186563000Y-101779605D01*
X185633637Y-102708968D01*
X185724923Y-102969580D01*
X185960971Y-103056491D01*
X185654892Y-103362037D01*
X185494128Y-103749200D01*
X184494979Y-103749200D01*
X184466150Y-103595985D01*
X184371581Y-103449020D01*
X184227285Y-103350427D01*
X184056000Y-103315741D01*
X182456000Y-103315741D01*
X182295985Y-103345850D01*
X182149020Y-103440419D01*
X182050427Y-103584715D01*
X182017300Y-103748300D01*
X180694979Y-103748300D01*
X180666150Y-103595085D01*
X180571581Y-103448120D01*
X180427285Y-103349527D01*
X180256000Y-103314841D01*
X179136597Y-103314841D01*
X179218376Y-103233205D01*
X179336565Y-102948573D01*
X179336834Y-102640379D01*
X179219141Y-102355541D01*
X179001405Y-102137424D01*
X178716773Y-102019235D01*
X178498500Y-102019044D01*
X178498500Y-101885750D01*
X178339750Y-101727000D01*
X177673000Y-101727000D01*
X177673000Y-102997000D01*
X177693000Y-102997000D01*
X177693000Y-103251000D01*
X177673000Y-103251000D01*
X177673000Y-103271000D01*
X177419000Y-103271000D01*
X177419000Y-103251000D01*
X177399000Y-103251000D01*
X177399000Y-102997000D01*
X177419000Y-102997000D01*
X177419000Y-101727000D01*
X177399000Y-101727000D01*
X177399000Y-101473000D01*
X177419000Y-101473000D01*
X177419000Y-101453000D01*
X177673000Y-101453000D01*
X177673000Y-101473000D01*
X178339750Y-101473000D01*
X178462917Y-101349833D01*
X184976955Y-101349833D01*
X185001951Y-101975828D01*
X185193420Y-102438077D01*
X185454032Y-102529363D01*
X186383395Y-101600000D01*
X185454032Y-100670637D01*
X185193420Y-100761923D01*
X184976955Y-101349833D01*
X178462917Y-101349833D01*
X178498500Y-101314250D01*
X178498500Y-100902190D01*
X178401827Y-100668801D01*
X178303759Y-100570734D01*
X178303759Y-99985416D01*
X178529691Y-100079000D01*
X179170250Y-100079000D01*
X179329000Y-99920250D01*
X179329000Y-99021000D01*
X179583000Y-99021000D01*
X179583000Y-99920250D01*
X179741750Y-100079000D01*
X180382309Y-100079000D01*
X180615698Y-99982327D01*
X180794327Y-99803699D01*
X180891000Y-99570310D01*
X180891000Y-99180650D01*
X181821000Y-99180650D01*
X181821000Y-99571210D01*
X181917673Y-99804599D01*
X182096302Y-99983227D01*
X182329691Y-100079900D01*
X182970250Y-100079900D01*
X183129000Y-99921150D01*
X183129000Y-99021900D01*
X183383000Y-99021900D01*
X183383000Y-99921150D01*
X183541750Y-100079900D01*
X184182309Y-100079900D01*
X184415698Y-99983227D01*
X184594327Y-99804599D01*
X184691000Y-99571210D01*
X184691000Y-99180650D01*
X184532250Y-99021900D01*
X183383000Y-99021900D01*
X183129000Y-99021900D01*
X181979750Y-99021900D01*
X181821000Y-99180650D01*
X180891000Y-99180650D01*
X180891000Y-99179750D01*
X180732250Y-99021000D01*
X179583000Y-99021000D01*
X179329000Y-99021000D01*
X178179750Y-99021000D01*
X178074611Y-99126139D01*
X178034785Y-99098927D01*
X177863500Y-99064241D01*
X177855075Y-99064241D01*
X175425117Y-96634283D01*
X175255759Y-96521122D01*
X175255759Y-96456500D01*
X175225650Y-96296485D01*
X175131081Y-96149520D01*
X174986785Y-96050927D01*
X174815500Y-96016241D01*
X174596352Y-96016241D01*
X174570941Y-95954741D01*
X174425255Y-95808800D01*
X180416200Y-95808800D01*
X180610603Y-95770131D01*
X180775410Y-95660010D01*
X181068234Y-95367186D01*
X181335975Y-95478361D01*
X181805809Y-95478771D01*
X181450380Y-95834200D01*
X178562000Y-95834200D01*
X178367596Y-95872869D01*
X178202790Y-95982990D01*
X178024990Y-96160790D01*
X177914869Y-96325597D01*
X177876200Y-96520000D01*
X177876200Y-96574125D01*
X177691941Y-96650259D01*
X177473824Y-96867995D01*
X177355635Y-97152627D01*
X177355366Y-97460821D01*
X177473059Y-97745659D01*
X177690795Y-97963776D01*
X177975427Y-98081965D01*
X178077182Y-98082054D01*
X178021000Y-98217690D01*
X178021000Y-98608250D01*
X178179750Y-98767000D01*
X179329000Y-98767000D01*
X179329000Y-98747000D01*
X179583000Y-98747000D01*
X179583000Y-98767000D01*
X180732250Y-98767000D01*
X180891000Y-98608250D01*
X180891000Y-98217690D01*
X180794327Y-97984301D01*
X180672155Y-97862130D01*
X180694882Y-97749900D01*
X181206701Y-97749900D01*
X181191035Y-97787627D01*
X181190766Y-98095821D01*
X181308459Y-98380659D01*
X181526195Y-98598776D01*
X181810827Y-98716965D01*
X181928918Y-98717068D01*
X181979750Y-98767900D01*
X183129000Y-98767900D01*
X183129000Y-98747900D01*
X183383000Y-98747900D01*
X183383000Y-98767900D01*
X184532250Y-98767900D01*
X184691000Y-98609150D01*
X184691000Y-98218590D01*
X184594327Y-97985201D01*
X184472003Y-97862878D01*
X184496259Y-97743100D01*
X184496259Y-96643100D01*
X184466150Y-96483085D01*
X184371581Y-96336120D01*
X184227285Y-96237527D01*
X184056000Y-96202841D01*
X182518579Y-96202841D01*
X183608235Y-95113186D01*
X183875975Y-95224361D01*
X184421631Y-95224837D01*
X184925934Y-95016464D01*
X185312108Y-94630963D01*
X185367402Y-94497799D01*
X185526536Y-94882934D01*
X185526536Y-94882934D01*
G37*
X185526536Y-94882934D02*
X185912037Y-95269108D01*
X186122223Y-95356385D01*
X185875966Y-95458136D01*
X185489792Y-95843637D01*
X185280539Y-96347575D01*
X185280063Y-96893231D01*
X185488436Y-97397534D01*
X185873937Y-97783708D01*
X185937128Y-97809947D01*
X185565992Y-98180437D01*
X185356739Y-98684375D01*
X185356263Y-99230031D01*
X185564636Y-99734334D01*
X185950137Y-100120508D01*
X185970181Y-100128831D01*
X185724923Y-100230420D01*
X185633637Y-100491032D01*
X186563000Y-101420395D01*
X186563000Y-101779605D01*
X185633637Y-102708968D01*
X185724923Y-102969580D01*
X185960971Y-103056491D01*
X185654892Y-103362037D01*
X185494128Y-103749200D01*
X184494979Y-103749200D01*
X184466150Y-103595985D01*
X184371581Y-103449020D01*
X184227285Y-103350427D01*
X184056000Y-103315741D01*
X182456000Y-103315741D01*
X182295985Y-103345850D01*
X182149020Y-103440419D01*
X182050427Y-103584715D01*
X182017300Y-103748300D01*
X180694979Y-103748300D01*
X180666150Y-103595085D01*
X180571581Y-103448120D01*
X180427285Y-103349527D01*
X180256000Y-103314841D01*
X179136597Y-103314841D01*
X179218376Y-103233205D01*
X179336565Y-102948573D01*
X179336834Y-102640379D01*
X179219141Y-102355541D01*
X179001405Y-102137424D01*
X178716773Y-102019235D01*
X178498500Y-102019044D01*
X178498500Y-101885750D01*
X178339750Y-101727000D01*
X177673000Y-101727000D01*
X177673000Y-102997000D01*
X177693000Y-102997000D01*
X177693000Y-103251000D01*
X177673000Y-103251000D01*
X177673000Y-103271000D01*
X177419000Y-103271000D01*
X177419000Y-103251000D01*
X177399000Y-103251000D01*
X177399000Y-102997000D01*
X177419000Y-102997000D01*
X177419000Y-101727000D01*
X177399000Y-101727000D01*
X177399000Y-101473000D01*
X177419000Y-101473000D01*
X177419000Y-101453000D01*
X177673000Y-101453000D01*
X177673000Y-101473000D01*
X178339750Y-101473000D01*
X178462917Y-101349833D01*
X184976955Y-101349833D01*
X185001951Y-101975828D01*
X185193420Y-102438077D01*
X185454032Y-102529363D01*
X186383395Y-101600000D01*
X185454032Y-100670637D01*
X185193420Y-100761923D01*
X184976955Y-101349833D01*
X178462917Y-101349833D01*
X178498500Y-101314250D01*
X178498500Y-100902190D01*
X178401827Y-100668801D01*
X178303759Y-100570734D01*
X178303759Y-99985416D01*
X178529691Y-100079000D01*
X179170250Y-100079000D01*
X179329000Y-99920250D01*
X179329000Y-99021000D01*
X179583000Y-99021000D01*
X179583000Y-99920250D01*
X179741750Y-100079000D01*
X180382309Y-100079000D01*
X180615698Y-99982327D01*
X180794327Y-99803699D01*
X180891000Y-99570310D01*
X180891000Y-99180650D01*
X181821000Y-99180650D01*
X181821000Y-99571210D01*
X181917673Y-99804599D01*
X182096302Y-99983227D01*
X182329691Y-100079900D01*
X182970250Y-100079900D01*
X183129000Y-99921150D01*
X183129000Y-99021900D01*
X183383000Y-99021900D01*
X183383000Y-99921150D01*
X183541750Y-100079900D01*
X184182309Y-100079900D01*
X184415698Y-99983227D01*
X184594327Y-99804599D01*
X184691000Y-99571210D01*
X184691000Y-99180650D01*
X184532250Y-99021900D01*
X183383000Y-99021900D01*
X183129000Y-99021900D01*
X181979750Y-99021900D01*
X181821000Y-99180650D01*
X180891000Y-99180650D01*
X180891000Y-99179750D01*
X180732250Y-99021000D01*
X179583000Y-99021000D01*
X179329000Y-99021000D01*
X178179750Y-99021000D01*
X178074611Y-99126139D01*
X178034785Y-99098927D01*
X177863500Y-99064241D01*
X177855075Y-99064241D01*
X175425117Y-96634283D01*
X175255759Y-96521122D01*
X175255759Y-96456500D01*
X175225650Y-96296485D01*
X175131081Y-96149520D01*
X174986785Y-96050927D01*
X174815500Y-96016241D01*
X174596352Y-96016241D01*
X174570941Y-95954741D01*
X174425255Y-95808800D01*
X180416200Y-95808800D01*
X180610603Y-95770131D01*
X180775410Y-95660010D01*
X181068234Y-95367186D01*
X181335975Y-95478361D01*
X181805809Y-95478771D01*
X181450380Y-95834200D01*
X178562000Y-95834200D01*
X178367596Y-95872869D01*
X178202790Y-95982990D01*
X178024990Y-96160790D01*
X177914869Y-96325597D01*
X177876200Y-96520000D01*
X177876200Y-96574125D01*
X177691941Y-96650259D01*
X177473824Y-96867995D01*
X177355635Y-97152627D01*
X177355366Y-97460821D01*
X177473059Y-97745659D01*
X177690795Y-97963776D01*
X177975427Y-98081965D01*
X178077182Y-98082054D01*
X178021000Y-98217690D01*
X178021000Y-98608250D01*
X178179750Y-98767000D01*
X179329000Y-98767000D01*
X179329000Y-98747000D01*
X179583000Y-98747000D01*
X179583000Y-98767000D01*
X180732250Y-98767000D01*
X180891000Y-98608250D01*
X180891000Y-98217690D01*
X180794327Y-97984301D01*
X180672155Y-97862130D01*
X180694882Y-97749900D01*
X181206701Y-97749900D01*
X181191035Y-97787627D01*
X181190766Y-98095821D01*
X181308459Y-98380659D01*
X181526195Y-98598776D01*
X181810827Y-98716965D01*
X181928918Y-98717068D01*
X181979750Y-98767900D01*
X183129000Y-98767900D01*
X183129000Y-98747900D01*
X183383000Y-98747900D01*
X183383000Y-98767900D01*
X184532250Y-98767900D01*
X184691000Y-98609150D01*
X184691000Y-98218590D01*
X184594327Y-97985201D01*
X184472003Y-97862878D01*
X184496259Y-97743100D01*
X184496259Y-96643100D01*
X184466150Y-96483085D01*
X184371581Y-96336120D01*
X184227285Y-96237527D01*
X184056000Y-96202841D01*
X182518579Y-96202841D01*
X183608235Y-95113186D01*
X183875975Y-95224361D01*
X184421631Y-95224837D01*
X184925934Y-95016464D01*
X185312108Y-94630963D01*
X185367402Y-94497799D01*
X185526536Y-94882934D01*
G36*
X160020000Y-102743000D02*
X160040000Y-102743000D01*
X160040000Y-102997000D01*
X160020000Y-102997000D01*
X160020000Y-103017000D01*
X159766000Y-103017000D01*
X159766000Y-102997000D01*
X159746000Y-102997000D01*
X159746000Y-102743000D01*
X159766000Y-102743000D01*
X159766000Y-102723000D01*
X160020000Y-102723000D01*
X160020000Y-102743000D01*
X160020000Y-102743000D01*
G37*
X160020000Y-102743000D02*
X160040000Y-102743000D01*
X160040000Y-102997000D01*
X160020000Y-102997000D01*
X160020000Y-103017000D01*
X159766000Y-103017000D01*
X159766000Y-102997000D01*
X159746000Y-102997000D01*
X159746000Y-102743000D01*
X159766000Y-102743000D01*
X159766000Y-102723000D01*
X160020000Y-102723000D01*
X160020000Y-102743000D01*
G36*
X173389750Y-95821500D02*
X173259750Y-95821500D01*
X173101000Y-95980250D01*
X173101000Y-96901000D01*
X173121000Y-96901000D01*
X173121000Y-97155000D01*
X173101000Y-97155000D01*
X173101000Y-98075750D01*
X173259750Y-98234500D01*
X173417809Y-98234500D01*
X173651198Y-98137827D01*
X173829827Y-97959199D01*
X173856855Y-97893948D01*
X173864919Y-97906480D01*
X174009215Y-98005073D01*
X174180500Y-98039759D01*
X174815500Y-98039759D01*
X174975515Y-98009650D01*
X175122480Y-97915081D01*
X175125957Y-97909991D01*
X176280207Y-99064241D01*
X175750422Y-99064241D01*
X175750205Y-99064024D01*
X175472443Y-98948688D01*
X175358341Y-98672541D01*
X175140605Y-98454424D01*
X174855973Y-98336235D01*
X174547779Y-98335966D01*
X174500776Y-98355387D01*
X174442120Y-98343720D01*
X174160511Y-98343720D01*
X174128265Y-98321687D01*
X173956980Y-98287001D01*
X172458380Y-98287001D01*
X172298365Y-98317110D01*
X172151400Y-98411679D01*
X172052807Y-98555975D01*
X172040738Y-98615572D01*
X171804579Y-98615366D01*
X171519741Y-98733059D01*
X171301624Y-98950795D01*
X171183435Y-99235427D01*
X171183166Y-99543621D01*
X171300859Y-99828459D01*
X171518595Y-100046576D01*
X171803227Y-100164765D01*
X172030453Y-100164963D01*
X172018121Y-100225860D01*
X172018121Y-100268474D01*
X171920053Y-100366541D01*
X171823380Y-100599930D01*
X171823380Y-100629720D01*
X171982130Y-100788470D01*
X172152619Y-100788470D01*
X172244411Y-100851188D01*
X172151400Y-100911039D01*
X172150108Y-100912930D01*
X171982130Y-100912930D01*
X171823380Y-101071680D01*
X171823380Y-101101470D01*
X171920053Y-101334859D01*
X172018121Y-101432926D01*
X172018121Y-101475540D01*
X172042400Y-101604569D01*
X172018121Y-101724460D01*
X172018121Y-101973380D01*
X172042647Y-102103725D01*
X172018121Y-102224840D01*
X172018121Y-102396659D01*
X171980141Y-102304741D01*
X171762405Y-102086624D01*
X171477773Y-101968435D01*
X171169579Y-101968166D01*
X170938980Y-102063448D01*
X171141176Y-101861605D01*
X171259365Y-101576973D01*
X171259634Y-101268779D01*
X171212601Y-101154950D01*
X171344376Y-101023405D01*
X171462565Y-100738773D01*
X171462834Y-100430579D01*
X171345141Y-100145741D01*
X171127405Y-99927624D01*
X170842773Y-99809435D01*
X170534579Y-99809166D01*
X170249741Y-99926859D01*
X170243536Y-99933053D01*
X170243634Y-99820979D01*
X170125941Y-99536141D01*
X169908205Y-99318024D01*
X169623573Y-99199835D01*
X169412471Y-99199651D01*
X168705330Y-98492510D01*
X168704386Y-98491879D01*
X168785540Y-98491879D01*
X168914569Y-98467600D01*
X169034460Y-98491879D01*
X169283380Y-98491879D01*
X169413725Y-98467353D01*
X169534840Y-98491879D01*
X169783760Y-98491879D01*
X169914105Y-98467353D01*
X170035220Y-98491879D01*
X170284140Y-98491879D01*
X170413169Y-98467600D01*
X170533060Y-98491879D01*
X170781980Y-98491879D01*
X170912325Y-98467353D01*
X171033440Y-98491879D01*
X171282360Y-98491879D01*
X171412705Y-98467353D01*
X171533820Y-98491879D01*
X171782740Y-98491879D01*
X171942755Y-98461770D01*
X172089720Y-98367201D01*
X172188313Y-98222905D01*
X172220910Y-98061935D01*
X172296802Y-98137827D01*
X172530191Y-98234500D01*
X172688250Y-98234500D01*
X172847000Y-98075750D01*
X172847000Y-97155000D01*
X172827000Y-97155000D01*
X172827000Y-96901000D01*
X172847000Y-96901000D01*
X172847000Y-95980250D01*
X172739113Y-95872363D01*
X172802676Y-95808800D01*
X173402472Y-95808800D01*
X173389750Y-95821500D01*
X173389750Y-95821500D01*
G37*
X173389750Y-95821500D02*
X173259750Y-95821500D01*
X173101000Y-95980250D01*
X173101000Y-96901000D01*
X173121000Y-96901000D01*
X173121000Y-97155000D01*
X173101000Y-97155000D01*
X173101000Y-98075750D01*
X173259750Y-98234500D01*
X173417809Y-98234500D01*
X173651198Y-98137827D01*
X173829827Y-97959199D01*
X173856855Y-97893948D01*
X173864919Y-97906480D01*
X174009215Y-98005073D01*
X174180500Y-98039759D01*
X174815500Y-98039759D01*
X174975515Y-98009650D01*
X175122480Y-97915081D01*
X175125957Y-97909991D01*
X176280207Y-99064241D01*
X175750422Y-99064241D01*
X175750205Y-99064024D01*
X175472443Y-98948688D01*
X175358341Y-98672541D01*
X175140605Y-98454424D01*
X174855973Y-98336235D01*
X174547779Y-98335966D01*
X174500776Y-98355387D01*
X174442120Y-98343720D01*
X174160511Y-98343720D01*
X174128265Y-98321687D01*
X173956980Y-98287001D01*
X172458380Y-98287001D01*
X172298365Y-98317110D01*
X172151400Y-98411679D01*
X172052807Y-98555975D01*
X172040738Y-98615572D01*
X171804579Y-98615366D01*
X171519741Y-98733059D01*
X171301624Y-98950795D01*
X171183435Y-99235427D01*
X171183166Y-99543621D01*
X171300859Y-99828459D01*
X171518595Y-100046576D01*
X171803227Y-100164765D01*
X172030453Y-100164963D01*
X172018121Y-100225860D01*
X172018121Y-100268474D01*
X171920053Y-100366541D01*
X171823380Y-100599930D01*
X171823380Y-100629720D01*
X171982130Y-100788470D01*
X172152619Y-100788470D01*
X172244411Y-100851188D01*
X172151400Y-100911039D01*
X172150108Y-100912930D01*
X171982130Y-100912930D01*
X171823380Y-101071680D01*
X171823380Y-101101470D01*
X171920053Y-101334859D01*
X172018121Y-101432926D01*
X172018121Y-101475540D01*
X172042400Y-101604569D01*
X172018121Y-101724460D01*
X172018121Y-101973380D01*
X172042647Y-102103725D01*
X172018121Y-102224840D01*
X172018121Y-102396659D01*
X171980141Y-102304741D01*
X171762405Y-102086624D01*
X171477773Y-101968435D01*
X171169579Y-101968166D01*
X170938980Y-102063448D01*
X171141176Y-101861605D01*
X171259365Y-101576973D01*
X171259634Y-101268779D01*
X171212601Y-101154950D01*
X171344376Y-101023405D01*
X171462565Y-100738773D01*
X171462834Y-100430579D01*
X171345141Y-100145741D01*
X171127405Y-99927624D01*
X170842773Y-99809435D01*
X170534579Y-99809166D01*
X170249741Y-99926859D01*
X170243536Y-99933053D01*
X170243634Y-99820979D01*
X170125941Y-99536141D01*
X169908205Y-99318024D01*
X169623573Y-99199835D01*
X169412471Y-99199651D01*
X168705330Y-98492510D01*
X168704386Y-98491879D01*
X168785540Y-98491879D01*
X168914569Y-98467600D01*
X169034460Y-98491879D01*
X169283380Y-98491879D01*
X169413725Y-98467353D01*
X169534840Y-98491879D01*
X169783760Y-98491879D01*
X169914105Y-98467353D01*
X170035220Y-98491879D01*
X170284140Y-98491879D01*
X170413169Y-98467600D01*
X170533060Y-98491879D01*
X170781980Y-98491879D01*
X170912325Y-98467353D01*
X171033440Y-98491879D01*
X171282360Y-98491879D01*
X171412705Y-98467353D01*
X171533820Y-98491879D01*
X171782740Y-98491879D01*
X171942755Y-98461770D01*
X172089720Y-98367201D01*
X172188313Y-98222905D01*
X172220910Y-98061935D01*
X172296802Y-98137827D01*
X172530191Y-98234500D01*
X172688250Y-98234500D01*
X172847000Y-98075750D01*
X172847000Y-97155000D01*
X172827000Y-97155000D01*
X172827000Y-96901000D01*
X172847000Y-96901000D01*
X172847000Y-95980250D01*
X172739113Y-95872363D01*
X172802676Y-95808800D01*
X173402472Y-95808800D01*
X173389750Y-95821500D01*
G36*
X159626250Y-99680000D02*
X159676310Y-99680000D01*
X159753230Y-99648139D01*
X159753166Y-99721421D01*
X159763343Y-99746050D01*
X159676310Y-99710000D01*
X159626250Y-99710000D01*
X159512002Y-99824248D01*
X159512002Y-99710000D01*
X159441800Y-99710000D01*
X159441800Y-99680000D01*
X159512002Y-99680000D01*
X159512002Y-99565752D01*
X159626250Y-99680000D01*
X159626250Y-99680000D01*
G37*
X159626250Y-99680000D02*
X159676310Y-99680000D01*
X159753230Y-99648139D01*
X159753166Y-99721421D01*
X159763343Y-99746050D01*
X159676310Y-99710000D01*
X159626250Y-99710000D01*
X159512002Y-99824248D01*
X159512002Y-99710000D01*
X159441800Y-99710000D01*
X159441800Y-99680000D01*
X159512002Y-99680000D01*
X159512002Y-99565752D01*
X159626250Y-99680000D01*
G36*
X165206536Y-94882934D02*
X165592037Y-95269108D01*
X166095975Y-95478361D01*
X166204989Y-95478456D01*
X166204766Y-95733621D01*
X166300011Y-95964130D01*
X166177942Y-96014693D01*
X166079873Y-96112761D01*
X166037260Y-96112761D01*
X165877245Y-96142870D01*
X165730280Y-96237439D01*
X165631687Y-96381735D01*
X165597001Y-96553020D01*
X165597001Y-96598200D01*
X165349759Y-96598200D01*
X165349759Y-96583500D01*
X165319650Y-96423485D01*
X165225081Y-96276520D01*
X165080785Y-96177927D01*
X164909500Y-96143241D01*
X164274500Y-96143241D01*
X164114485Y-96173350D01*
X163967520Y-96267919D01*
X163951695Y-96291080D01*
X163923827Y-96223801D01*
X163745198Y-96045173D01*
X163511809Y-95948500D01*
X163353750Y-95948500D01*
X163195000Y-96107250D01*
X163195000Y-97028000D01*
X163215000Y-97028000D01*
X163215000Y-97282000D01*
X163195000Y-97282000D01*
X163195000Y-97302000D01*
X162941000Y-97302000D01*
X162941000Y-97282000D01*
X162274250Y-97282000D01*
X162115500Y-97440750D01*
X162115500Y-97852810D01*
X162212173Y-98086199D01*
X162390802Y-98264827D01*
X162605718Y-98353848D01*
X162430325Y-98529241D01*
X162257875Y-98529241D01*
X161810711Y-98082077D01*
X161810834Y-97941379D01*
X161693141Y-97656541D01*
X161475405Y-97438424D01*
X161190773Y-97320235D01*
X160882579Y-97319966D01*
X160633567Y-97422856D01*
X160718500Y-97217810D01*
X160718500Y-96805750D01*
X160559750Y-96647000D01*
X159893000Y-96647000D01*
X159893000Y-97567750D01*
X160051750Y-97726500D01*
X160209809Y-97726500D01*
X160379240Y-97656319D01*
X160261435Y-97940027D01*
X160261237Y-98166725D01*
X160221285Y-98139427D01*
X160050000Y-98104741D01*
X160007766Y-98104741D01*
X159909699Y-98006673D01*
X159676310Y-97910000D01*
X159626250Y-97910000D01*
X159512002Y-98024248D01*
X159512002Y-97910000D01*
X159441800Y-97910000D01*
X159441800Y-97726500D01*
X159480250Y-97726500D01*
X159639000Y-97567750D01*
X159639000Y-96647000D01*
X159619000Y-96647000D01*
X159619000Y-96457190D01*
X162115500Y-96457190D01*
X162115500Y-96869250D01*
X162274250Y-97028000D01*
X162941000Y-97028000D01*
X162941000Y-96107250D01*
X162782250Y-95948500D01*
X162624191Y-95948500D01*
X162390802Y-96045173D01*
X162212173Y-96223801D01*
X162115500Y-96457190D01*
X159619000Y-96457190D01*
X159619000Y-96393000D01*
X159639000Y-96393000D01*
X159639000Y-95472250D01*
X159893000Y-95472250D01*
X159893000Y-96393000D01*
X160559750Y-96393000D01*
X160718500Y-96234250D01*
X160718500Y-95822190D01*
X160621827Y-95588801D01*
X160443198Y-95410173D01*
X160209809Y-95313500D01*
X160051750Y-95313500D01*
X159893000Y-95472250D01*
X159639000Y-95472250D01*
X159480250Y-95313500D01*
X159322191Y-95313500D01*
X159088802Y-95410173D01*
X158910173Y-95588801D01*
X158883145Y-95654052D01*
X158875081Y-95641520D01*
X158730785Y-95542927D01*
X158559500Y-95508241D01*
X158017675Y-95508241D01*
X157486955Y-94977521D01*
X157579580Y-94945077D01*
X157666491Y-94709029D01*
X157972037Y-95015108D01*
X158475975Y-95224361D01*
X159021631Y-95224837D01*
X159525934Y-95016464D01*
X159912108Y-94630963D01*
X159967402Y-94497799D01*
X160126536Y-94882934D01*
X160512037Y-95269108D01*
X161015975Y-95478361D01*
X161561631Y-95478837D01*
X162065934Y-95270464D01*
X162452108Y-94884963D01*
X162612612Y-94498427D01*
X162666536Y-94628934D01*
X163052037Y-95015108D01*
X163555975Y-95224361D01*
X164101631Y-95224837D01*
X164605934Y-95016464D01*
X164992108Y-94630963D01*
X165047402Y-94497799D01*
X165206536Y-94882934D01*
X165206536Y-94882934D01*
G37*
X165206536Y-94882934D02*
X165592037Y-95269108D01*
X166095975Y-95478361D01*
X166204989Y-95478456D01*
X166204766Y-95733621D01*
X166300011Y-95964130D01*
X166177942Y-96014693D01*
X166079873Y-96112761D01*
X166037260Y-96112761D01*
X165877245Y-96142870D01*
X165730280Y-96237439D01*
X165631687Y-96381735D01*
X165597001Y-96553020D01*
X165597001Y-96598200D01*
X165349759Y-96598200D01*
X165349759Y-96583500D01*
X165319650Y-96423485D01*
X165225081Y-96276520D01*
X165080785Y-96177927D01*
X164909500Y-96143241D01*
X164274500Y-96143241D01*
X164114485Y-96173350D01*
X163967520Y-96267919D01*
X163951695Y-96291080D01*
X163923827Y-96223801D01*
X163745198Y-96045173D01*
X163511809Y-95948500D01*
X163353750Y-95948500D01*
X163195000Y-96107250D01*
X163195000Y-97028000D01*
X163215000Y-97028000D01*
X163215000Y-97282000D01*
X163195000Y-97282000D01*
X163195000Y-97302000D01*
X162941000Y-97302000D01*
X162941000Y-97282000D01*
X162274250Y-97282000D01*
X162115500Y-97440750D01*
X162115500Y-97852810D01*
X162212173Y-98086199D01*
X162390802Y-98264827D01*
X162605718Y-98353848D01*
X162430325Y-98529241D01*
X162257875Y-98529241D01*
X161810711Y-98082077D01*
X161810834Y-97941379D01*
X161693141Y-97656541D01*
X161475405Y-97438424D01*
X161190773Y-97320235D01*
X160882579Y-97319966D01*
X160633567Y-97422856D01*
X160718500Y-97217810D01*
X160718500Y-96805750D01*
X160559750Y-96647000D01*
X159893000Y-96647000D01*
X159893000Y-97567750D01*
X160051750Y-97726500D01*
X160209809Y-97726500D01*
X160379240Y-97656319D01*
X160261435Y-97940027D01*
X160261237Y-98166725D01*
X160221285Y-98139427D01*
X160050000Y-98104741D01*
X160007766Y-98104741D01*
X159909699Y-98006673D01*
X159676310Y-97910000D01*
X159626250Y-97910000D01*
X159512002Y-98024248D01*
X159512002Y-97910000D01*
X159441800Y-97910000D01*
X159441800Y-97726500D01*
X159480250Y-97726500D01*
X159639000Y-97567750D01*
X159639000Y-96647000D01*
X159619000Y-96647000D01*
X159619000Y-96457190D01*
X162115500Y-96457190D01*
X162115500Y-96869250D01*
X162274250Y-97028000D01*
X162941000Y-97028000D01*
X162941000Y-96107250D01*
X162782250Y-95948500D01*
X162624191Y-95948500D01*
X162390802Y-96045173D01*
X162212173Y-96223801D01*
X162115500Y-96457190D01*
X159619000Y-96457190D01*
X159619000Y-96393000D01*
X159639000Y-96393000D01*
X159639000Y-95472250D01*
X159893000Y-95472250D01*
X159893000Y-96393000D01*
X160559750Y-96393000D01*
X160718500Y-96234250D01*
X160718500Y-95822190D01*
X160621827Y-95588801D01*
X160443198Y-95410173D01*
X160209809Y-95313500D01*
X160051750Y-95313500D01*
X159893000Y-95472250D01*
X159639000Y-95472250D01*
X159480250Y-95313500D01*
X159322191Y-95313500D01*
X159088802Y-95410173D01*
X158910173Y-95588801D01*
X158883145Y-95654052D01*
X158875081Y-95641520D01*
X158730785Y-95542927D01*
X158559500Y-95508241D01*
X158017675Y-95508241D01*
X157486955Y-94977521D01*
X157579580Y-94945077D01*
X157666491Y-94709029D01*
X157972037Y-95015108D01*
X158475975Y-95224361D01*
X159021631Y-95224837D01*
X159525934Y-95016464D01*
X159912108Y-94630963D01*
X159967402Y-94497799D01*
X160126536Y-94882934D01*
X160512037Y-95269108D01*
X161015975Y-95478361D01*
X161561631Y-95478837D01*
X162065934Y-95270464D01*
X162452108Y-94884963D01*
X162612612Y-94498427D01*
X162666536Y-94628934D01*
X163052037Y-95015108D01*
X163555975Y-95224361D01*
X164101631Y-95224837D01*
X164605934Y-95016464D01*
X164992108Y-94630963D01*
X165047402Y-94497799D01*
X165206536Y-94882934D01*
G36*
X156403748Y-94121143D02*
X156224143Y-94300748D01*
X156210000Y-94286605D01*
X156195858Y-94300748D01*
X156016253Y-94121143D01*
X156030395Y-94107000D01*
X156389605Y-94107000D01*
X156403748Y-94121143D01*
X156403748Y-94121143D01*
G37*
X156403748Y-94121143D02*
X156224143Y-94300748D01*
X156210000Y-94286605D01*
X156195858Y-94300748D01*
X156016253Y-94121143D01*
X156030395Y-94107000D01*
X156389605Y-94107000D01*
X156403748Y-94121143D01*
M02*
