G04 #@! TF.FileFunction,Soldermask,Bot*
%FSLAX46Y46*%
G04 Gerber Fmt 4.6, Leading zero omitted, Abs format (unit mm)*
G04 Created by KiCad (PCBNEW 4.0.7) date Monday, 20 November 2017 'AMt' 10:57:52*
%MOMM*%
%LPD*%
G01*
G04 APERTURE LIST*
%ADD10C,0.100000*%
%ADD11R,0.735000X1.243000*%
%ADD12R,0.281000X1.243000*%
%ADD13R,2.500000X2.000000*%
%ADD14R,1.243000X0.735000*%
%ADD15O,1.979600X1.979600*%
%ADD16C,1.979600*%
%ADD17C,2.250000*%
%ADD18C,0.650000*%
G04 APERTURE END LIST*
D10*
D11*
X178458800Y-106095800D03*
X179274800Y-106095800D03*
D12*
X178866800Y-106095800D03*
D13*
X179324000Y-99702400D03*
X179324000Y-103802400D03*
D14*
X182372000Y-104140000D03*
X182372000Y-102616000D03*
X182372000Y-99314000D03*
X182372000Y-100838000D03*
D15*
X156210000Y-96570800D03*
D16*
X153670000Y-93853000D03*
X156210000Y-94107000D03*
X158750000Y-93853000D03*
X161290000Y-94107000D03*
X163830000Y-93853000D03*
X166370000Y-94107000D03*
X168910000Y-93853000D03*
X171450000Y-94107000D03*
X173990000Y-93853000D03*
X176530000Y-94107000D03*
X179070000Y-93853000D03*
X181610000Y-94107000D03*
X184150000Y-93853000D03*
X186690000Y-94107000D03*
X186690000Y-109347000D03*
X184150000Y-109093000D03*
X181610000Y-109347000D03*
X179070000Y-109093000D03*
X176530000Y-109347000D03*
X173990000Y-109093000D03*
X171450000Y-109347000D03*
X168910000Y-109093000D03*
X166370000Y-109347000D03*
X163830000Y-109093000D03*
X161290000Y-109347000D03*
X158750000Y-109093000D03*
X156210000Y-109347000D03*
X153670000Y-109093000D03*
X186563000Y-106680000D03*
X186817000Y-104140000D03*
X186563000Y-101600000D03*
X186728100Y-98958400D03*
X186651900Y-96621600D03*
D17*
X153670000Y-104425000D03*
X153670000Y-98775000D03*
D18*
X155820000Y-103550000D03*
X155820000Y-99650000D03*
D11*
X159080200Y-105511600D03*
X157556200Y-105511600D03*
M02*
