G04 #@! TF.FileFunction,Legend,Bot*
%FSLAX46Y46*%
G04 Gerber Fmt 4.6, Leading zero omitted, Abs format (unit mm)*
G04 Created by KiCad (PCBNEW 4.0.7) date Monday, 20 November 2017 'AMt' 10:57:52*
%MOMM*%
%LPD*%
G01*
G04 APERTURE LIST*
%ADD10C,0.100000*%
%ADD11C,0.127000*%
%ADD12C,0.200000*%
%ADD13C,0.149860*%
%ADD14C,0.150000*%
%ADD15C,0.250000*%
G04 APERTURE END LIST*
D10*
D11*
X160149999Y-107809467D02*
X160149999Y-107342800D01*
X160149999Y-107409467D02*
X160116666Y-107376133D01*
X160049999Y-107342800D01*
X159949999Y-107342800D01*
X159883333Y-107376133D01*
X159849999Y-107442800D01*
X159849999Y-107809467D01*
X159849999Y-107442800D02*
X159816666Y-107376133D01*
X159749999Y-107342800D01*
X159649999Y-107342800D01*
X159583333Y-107376133D01*
X159549999Y-107442800D01*
X159549999Y-107809467D01*
X159216666Y-107809467D02*
X159216666Y-107342800D01*
X159216666Y-107109467D02*
X159250000Y-107142800D01*
X159216666Y-107176133D01*
X159183333Y-107142800D01*
X159216666Y-107109467D01*
X159216666Y-107176133D01*
X158916667Y-107776133D02*
X158850000Y-107809467D01*
X158716667Y-107809467D01*
X158650000Y-107776133D01*
X158616667Y-107709467D01*
X158616667Y-107676133D01*
X158650000Y-107609467D01*
X158716667Y-107576133D01*
X158816667Y-107576133D01*
X158883333Y-107542800D01*
X158916667Y-107476133D01*
X158916667Y-107442800D01*
X158883333Y-107376133D01*
X158816667Y-107342800D01*
X158716667Y-107342800D01*
X158650000Y-107376133D01*
X158216666Y-107809467D02*
X158283333Y-107776133D01*
X158316666Y-107742800D01*
X158350000Y-107676133D01*
X158350000Y-107476133D01*
X158316666Y-107409467D01*
X158283333Y-107376133D01*
X158216666Y-107342800D01*
X158116666Y-107342800D01*
X158050000Y-107376133D01*
X158016666Y-107409467D01*
X157983333Y-107476133D01*
X157983333Y-107676133D01*
X158016666Y-107742800D01*
X158050000Y-107776133D01*
X158116666Y-107809467D01*
X158216666Y-107809467D01*
X157316667Y-107809467D02*
X157716667Y-107809467D01*
X157516667Y-107809467D02*
X157516667Y-107109467D01*
X157583333Y-107209467D01*
X157650000Y-107276133D01*
X157716667Y-107309467D01*
X180954067Y-108329760D02*
X180883355Y-108306190D01*
X180789075Y-108211909D01*
X180765505Y-108141198D01*
X180789075Y-108070488D01*
X180812645Y-108046917D01*
X180883355Y-108023347D01*
X180954067Y-108046917D01*
X181024777Y-108117628D01*
X181095487Y-108141198D01*
X181166199Y-108117628D01*
X181189769Y-108094058D01*
X181213339Y-108023347D01*
X181189769Y-107952637D01*
X181119058Y-107881926D01*
X181048347Y-107858355D01*
X180553373Y-107929066D02*
X180482661Y-107905496D01*
X180388381Y-107811215D01*
X180364811Y-107740504D01*
X180388381Y-107669794D01*
X180411951Y-107646223D01*
X180482661Y-107622653D01*
X180553373Y-107646223D01*
X180624083Y-107716934D01*
X180694793Y-107740504D01*
X180765505Y-107716934D01*
X180789075Y-107693364D01*
X180812645Y-107622653D01*
X180789075Y-107551943D01*
X180718364Y-107481232D01*
X180647653Y-107457661D01*
D12*
X174806429Y-100177762D02*
X174663572Y-100225381D01*
X174425476Y-100225381D01*
X174330238Y-100177762D01*
X174282619Y-100130143D01*
X174235000Y-100034905D01*
X174235000Y-99939667D01*
X174282619Y-99844429D01*
X174330238Y-99796810D01*
X174425476Y-99749190D01*
X174615953Y-99701571D01*
X174711191Y-99653952D01*
X174758810Y-99606333D01*
X174806429Y-99511095D01*
X174806429Y-99415857D01*
X174758810Y-99320619D01*
X174711191Y-99273000D01*
X174615953Y-99225381D01*
X174377857Y-99225381D01*
X174235000Y-99273000D01*
X173949286Y-99225381D02*
X173377857Y-99225381D01*
X173663572Y-100225381D02*
X173663572Y-99225381D01*
X173044524Y-100225381D02*
X173044524Y-99225381D01*
X172711190Y-99939667D01*
X172377857Y-99225381D01*
X172377857Y-100225381D01*
X171996905Y-99225381D02*
X171377857Y-99225381D01*
X171711191Y-99606333D01*
X171568333Y-99606333D01*
X171473095Y-99653952D01*
X171425476Y-99701571D01*
X171377857Y-99796810D01*
X171377857Y-100034905D01*
X171425476Y-100130143D01*
X171473095Y-100177762D01*
X171568333Y-100225381D01*
X171854048Y-100225381D01*
X171949286Y-100177762D01*
X171996905Y-100130143D01*
X170996905Y-99320619D02*
X170949286Y-99273000D01*
X170854048Y-99225381D01*
X170615952Y-99225381D01*
X170520714Y-99273000D01*
X170473095Y-99320619D01*
X170425476Y-99415857D01*
X170425476Y-99511095D01*
X170473095Y-99653952D01*
X171044524Y-100225381D01*
X170425476Y-100225381D01*
X169996905Y-99844429D02*
X169235000Y-99844429D01*
X168092143Y-100320619D02*
X168187381Y-100273000D01*
X168282619Y-100177762D01*
X168425476Y-100034905D01*
X168520715Y-99987286D01*
X168615953Y-99987286D01*
X168568334Y-100225381D02*
X168663572Y-100177762D01*
X168758810Y-100082524D01*
X168806429Y-99892048D01*
X168806429Y-99558714D01*
X168758810Y-99368238D01*
X168663572Y-99273000D01*
X168568334Y-99225381D01*
X168377857Y-99225381D01*
X168282619Y-99273000D01*
X168187381Y-99368238D01*
X168139762Y-99558714D01*
X168139762Y-99892048D01*
X168187381Y-100082524D01*
X168282619Y-100177762D01*
X168377857Y-100225381D01*
X168568334Y-100225381D01*
X167377857Y-99701571D02*
X167711191Y-99701571D01*
X167711191Y-100225381D02*
X167711191Y-99225381D01*
X167235000Y-99225381D01*
X166854048Y-100225381D02*
X166854048Y-99225381D01*
X166473095Y-99225381D01*
X166377857Y-99273000D01*
X166330238Y-99320619D01*
X166282619Y-99415857D01*
X166282619Y-99558714D01*
X166330238Y-99653952D01*
X166377857Y-99701571D01*
X166473095Y-99749190D01*
X166854048Y-99749190D01*
X165425476Y-99558714D02*
X165425476Y-100225381D01*
X165663572Y-99177762D02*
X165901667Y-99892048D01*
X165282619Y-99892048D01*
X164758810Y-99653952D02*
X164854048Y-99606333D01*
X164901667Y-99558714D01*
X164949286Y-99463476D01*
X164949286Y-99415857D01*
X164901667Y-99320619D01*
X164854048Y-99273000D01*
X164758810Y-99225381D01*
X164568333Y-99225381D01*
X164473095Y-99273000D01*
X164425476Y-99320619D01*
X164377857Y-99415857D01*
X164377857Y-99463476D01*
X164425476Y-99558714D01*
X164473095Y-99606333D01*
X164568333Y-99653952D01*
X164758810Y-99653952D01*
X164854048Y-99701571D01*
X164901667Y-99749190D01*
X164949286Y-99844429D01*
X164949286Y-100034905D01*
X164901667Y-100130143D01*
X164854048Y-100177762D01*
X164758810Y-100225381D01*
X164568333Y-100225381D01*
X164473095Y-100177762D01*
X164425476Y-100130143D01*
X164377857Y-100034905D01*
X164377857Y-99844429D01*
X164425476Y-99749190D01*
X164473095Y-99701571D01*
X164568333Y-99653952D01*
X163949286Y-99844429D02*
X163187381Y-99844429D01*
X162711191Y-100225381D02*
X162711191Y-99225381D01*
X162711191Y-99606333D02*
X162615953Y-99558714D01*
X162425476Y-99558714D01*
X162330238Y-99606333D01*
X162282619Y-99653952D01*
X162235000Y-99749190D01*
X162235000Y-100034905D01*
X162282619Y-100130143D01*
X162330238Y-100177762D01*
X162425476Y-100225381D01*
X162615953Y-100225381D01*
X162711191Y-100177762D01*
X161806429Y-100225381D02*
X161806429Y-99558714D01*
X161806429Y-99749190D02*
X161758810Y-99653952D01*
X161711191Y-99606333D01*
X161615953Y-99558714D01*
X161520714Y-99558714D01*
X160806428Y-100177762D02*
X160901666Y-100225381D01*
X161092143Y-100225381D01*
X161187381Y-100177762D01*
X161235000Y-100082524D01*
X161235000Y-99701571D01*
X161187381Y-99606333D01*
X161092143Y-99558714D01*
X160901666Y-99558714D01*
X160806428Y-99606333D01*
X160758809Y-99701571D01*
X160758809Y-99796810D01*
X161235000Y-99892048D01*
X159901666Y-100225381D02*
X159901666Y-99701571D01*
X159949285Y-99606333D01*
X160044523Y-99558714D01*
X160235000Y-99558714D01*
X160330238Y-99606333D01*
X159901666Y-100177762D02*
X159996904Y-100225381D01*
X160235000Y-100225381D01*
X160330238Y-100177762D01*
X160377857Y-100082524D01*
X160377857Y-99987286D01*
X160330238Y-99892048D01*
X160235000Y-99844429D01*
X159996904Y-99844429D01*
X159901666Y-99796810D01*
X159425476Y-100225381D02*
X159425476Y-99225381D01*
X159330238Y-99844429D02*
X159044523Y-100225381D01*
X159044523Y-99558714D02*
X159425476Y-99939667D01*
X158473095Y-100225381D02*
X158568333Y-100177762D01*
X158615952Y-100130143D01*
X158663571Y-100034905D01*
X158663571Y-99749190D01*
X158615952Y-99653952D01*
X158568333Y-99606333D01*
X158473095Y-99558714D01*
X158330237Y-99558714D01*
X158234999Y-99606333D01*
X158187380Y-99653952D01*
X158139761Y-99749190D01*
X158139761Y-100034905D01*
X158187380Y-100130143D01*
X158234999Y-100177762D01*
X158330237Y-100225381D01*
X158473095Y-100225381D01*
X157282618Y-99558714D02*
X157282618Y-100225381D01*
X157711190Y-99558714D02*
X157711190Y-100082524D01*
X157663571Y-100177762D01*
X157568333Y-100225381D01*
X157425475Y-100225381D01*
X157330237Y-100177762D01*
X157282618Y-100130143D01*
X156949285Y-99558714D02*
X156568333Y-99558714D01*
X156806428Y-99225381D02*
X156806428Y-100082524D01*
X156758809Y-100177762D01*
X156663571Y-100225381D01*
X156568333Y-100225381D01*
X175354049Y-101925381D02*
X175354049Y-101401571D01*
X175401668Y-101306333D01*
X175496906Y-101258714D01*
X175687383Y-101258714D01*
X175782621Y-101306333D01*
X175354049Y-101877762D02*
X175449287Y-101925381D01*
X175687383Y-101925381D01*
X175782621Y-101877762D01*
X175830240Y-101782524D01*
X175830240Y-101687286D01*
X175782621Y-101592048D01*
X175687383Y-101544429D01*
X175449287Y-101544429D01*
X175354049Y-101496810D01*
X174877859Y-101830143D02*
X174830240Y-101877762D01*
X174877859Y-101925381D01*
X174925478Y-101877762D01*
X174877859Y-101830143D01*
X174877859Y-101925381D01*
X174401669Y-101925381D02*
X174401669Y-100925381D01*
X174306431Y-101544429D02*
X174020716Y-101925381D01*
X174020716Y-101258714D02*
X174401669Y-101639667D01*
X173592145Y-101830143D02*
X173544526Y-101877762D01*
X173592145Y-101925381D01*
X173639764Y-101877762D01*
X173592145Y-101830143D01*
X173592145Y-101925381D01*
X172687383Y-101925381D02*
X172687383Y-101401571D01*
X172735002Y-101306333D01*
X172830240Y-101258714D01*
X173020717Y-101258714D01*
X173115955Y-101306333D01*
X172687383Y-101877762D02*
X172782621Y-101925381D01*
X173020717Y-101925381D01*
X173115955Y-101877762D01*
X173163574Y-101782524D01*
X173163574Y-101687286D01*
X173115955Y-101592048D01*
X173020717Y-101544429D01*
X172782621Y-101544429D01*
X172687383Y-101496810D01*
X172211193Y-101830143D02*
X172163574Y-101877762D01*
X172211193Y-101925381D01*
X172258812Y-101877762D01*
X172211193Y-101830143D01*
X172211193Y-101925381D01*
X171115955Y-101258714D02*
X170735003Y-101258714D01*
X170973098Y-100925381D02*
X170973098Y-101782524D01*
X170925479Y-101877762D01*
X170830241Y-101925381D01*
X170735003Y-101925381D01*
X170401669Y-101925381D02*
X170401669Y-100925381D01*
X169973097Y-101925381D02*
X169973097Y-101401571D01*
X170020716Y-101306333D01*
X170115954Y-101258714D01*
X170258812Y-101258714D01*
X170354050Y-101306333D01*
X170401669Y-101353952D01*
X169115954Y-101877762D02*
X169211192Y-101925381D01*
X169401669Y-101925381D01*
X169496907Y-101877762D01*
X169544526Y-101782524D01*
X169544526Y-101401571D01*
X169496907Y-101306333D01*
X169401669Y-101258714D01*
X169211192Y-101258714D01*
X169115954Y-101306333D01*
X169068335Y-101401571D01*
X169068335Y-101496810D01*
X169544526Y-101592048D01*
X167877859Y-101925381D02*
X167877859Y-100925381D01*
X167877859Y-101306333D02*
X167782621Y-101258714D01*
X167592144Y-101258714D01*
X167496906Y-101306333D01*
X167449287Y-101353952D01*
X167401668Y-101449190D01*
X167401668Y-101734905D01*
X167449287Y-101830143D01*
X167496906Y-101877762D01*
X167592144Y-101925381D01*
X167782621Y-101925381D01*
X167877859Y-101877762D01*
X166544525Y-101925381D02*
X166544525Y-101401571D01*
X166592144Y-101306333D01*
X166687382Y-101258714D01*
X166877859Y-101258714D01*
X166973097Y-101306333D01*
X166544525Y-101877762D02*
X166639763Y-101925381D01*
X166877859Y-101925381D01*
X166973097Y-101877762D01*
X167020716Y-101782524D01*
X167020716Y-101687286D01*
X166973097Y-101592048D01*
X166877859Y-101544429D01*
X166639763Y-101544429D01*
X166544525Y-101496810D01*
X166211192Y-101258714D02*
X165830240Y-101258714D01*
X166068335Y-100925381D02*
X166068335Y-101782524D01*
X166020716Y-101877762D01*
X165925478Y-101925381D01*
X165830240Y-101925381D01*
X164735001Y-101925381D02*
X164735001Y-100925381D01*
X164735001Y-101306333D02*
X164639763Y-101258714D01*
X164449286Y-101258714D01*
X164354048Y-101306333D01*
X164306429Y-101353952D01*
X164258810Y-101449190D01*
X164258810Y-101734905D01*
X164306429Y-101830143D01*
X164354048Y-101877762D01*
X164449286Y-101925381D01*
X164639763Y-101925381D01*
X164735001Y-101877762D01*
X163687382Y-101925381D02*
X163782620Y-101877762D01*
X163830239Y-101830143D01*
X163877858Y-101734905D01*
X163877858Y-101449190D01*
X163830239Y-101353952D01*
X163782620Y-101306333D01*
X163687382Y-101258714D01*
X163544524Y-101258714D01*
X163449286Y-101306333D01*
X163401667Y-101353952D01*
X163354048Y-101449190D01*
X163354048Y-101734905D01*
X163401667Y-101830143D01*
X163449286Y-101877762D01*
X163544524Y-101925381D01*
X163687382Y-101925381D01*
X162496905Y-101925381D02*
X162496905Y-101401571D01*
X162544524Y-101306333D01*
X162639762Y-101258714D01*
X162830239Y-101258714D01*
X162925477Y-101306333D01*
X162496905Y-101877762D02*
X162592143Y-101925381D01*
X162830239Y-101925381D01*
X162925477Y-101877762D01*
X162973096Y-101782524D01*
X162973096Y-101687286D01*
X162925477Y-101592048D01*
X162830239Y-101544429D01*
X162592143Y-101544429D01*
X162496905Y-101496810D01*
X162020715Y-101925381D02*
X162020715Y-101258714D01*
X162020715Y-101449190D02*
X161973096Y-101353952D01*
X161925477Y-101306333D01*
X161830239Y-101258714D01*
X161735000Y-101258714D01*
X160973095Y-101925381D02*
X160973095Y-100925381D01*
X160973095Y-101877762D02*
X161068333Y-101925381D01*
X161258810Y-101925381D01*
X161354048Y-101877762D01*
X161401667Y-101830143D01*
X161449286Y-101734905D01*
X161449286Y-101449190D01*
X161401667Y-101353952D01*
X161354048Y-101306333D01*
X161258810Y-101258714D01*
X161068333Y-101258714D01*
X160973095Y-101306333D01*
X159449285Y-102306333D02*
X159496905Y-102258714D01*
X159592143Y-102115857D01*
X159639762Y-102020619D01*
X159687381Y-101877762D01*
X159735000Y-101639667D01*
X159735000Y-101449190D01*
X159687381Y-101211095D01*
X159639762Y-101068238D01*
X159592143Y-100973000D01*
X159496905Y-100830143D01*
X159449285Y-100782524D01*
X159068333Y-101925381D02*
X159068333Y-101258714D01*
X159068333Y-101449190D02*
X159020714Y-101353952D01*
X158973095Y-101306333D01*
X158877857Y-101258714D01*
X158782618Y-101258714D01*
X158068332Y-101877762D02*
X158163570Y-101925381D01*
X158354047Y-101925381D01*
X158449285Y-101877762D01*
X158496904Y-101782524D01*
X158496904Y-101401571D01*
X158449285Y-101306333D01*
X158354047Y-101258714D01*
X158163570Y-101258714D01*
X158068332Y-101306333D01*
X158020713Y-101401571D01*
X158020713Y-101496810D01*
X158496904Y-101592048D01*
X157687380Y-101258714D02*
X157449285Y-101925381D01*
X157211189Y-101258714D01*
X156925475Y-100925381D02*
X156306427Y-100925381D01*
X156639761Y-101306333D01*
X156496903Y-101306333D01*
X156401665Y-101353952D01*
X156354046Y-101401571D01*
X156306427Y-101496810D01*
X156306427Y-101734905D01*
X156354046Y-101830143D01*
X156401665Y-101877762D01*
X156496903Y-101925381D01*
X156782618Y-101925381D01*
X156877856Y-101877762D01*
X156925475Y-101830143D01*
X155973094Y-102306333D02*
X155925475Y-102258714D01*
X155830237Y-102115857D01*
X155782618Y-102020619D01*
X155734999Y-101877762D01*
X155687380Y-101639667D01*
X155687380Y-101449190D01*
X155734999Y-101211095D01*
X155782618Y-101068238D01*
X155830237Y-100973000D01*
X155925475Y-100830143D01*
X155973094Y-100782524D01*
X173211192Y-104006333D02*
X173258812Y-103958714D01*
X173354050Y-103815857D01*
X173401669Y-103720619D01*
X173449288Y-103577762D01*
X173496907Y-103339667D01*
X173496907Y-103149190D01*
X173449288Y-102911095D01*
X173401669Y-102768238D01*
X173354050Y-102673000D01*
X173258812Y-102530143D01*
X173211192Y-102482524D01*
X172401668Y-103577762D02*
X172496906Y-103625381D01*
X172687383Y-103625381D01*
X172782621Y-103577762D01*
X172830240Y-103530143D01*
X172877859Y-103434905D01*
X172877859Y-103149190D01*
X172830240Y-103053952D01*
X172782621Y-103006333D01*
X172687383Y-102958714D01*
X172496906Y-102958714D01*
X172401668Y-103006333D01*
X172068335Y-104006333D02*
X172020716Y-103958714D01*
X171925478Y-103815857D01*
X171877859Y-103720619D01*
X171830240Y-103577762D01*
X171782621Y-103339667D01*
X171782621Y-103149190D01*
X171830240Y-102911095D01*
X171877859Y-102768238D01*
X171925478Y-102673000D01*
X172020716Y-102530143D01*
X172068335Y-102482524D01*
X170592144Y-102720619D02*
X170544525Y-102673000D01*
X170449287Y-102625381D01*
X170211191Y-102625381D01*
X170115953Y-102673000D01*
X170068334Y-102720619D01*
X170020715Y-102815857D01*
X170020715Y-102911095D01*
X170068334Y-103053952D01*
X170639763Y-103625381D01*
X170020715Y-103625381D01*
X169401668Y-102625381D02*
X169306429Y-102625381D01*
X169211191Y-102673000D01*
X169163572Y-102720619D01*
X169115953Y-102815857D01*
X169068334Y-103006333D01*
X169068334Y-103244429D01*
X169115953Y-103434905D01*
X169163572Y-103530143D01*
X169211191Y-103577762D01*
X169306429Y-103625381D01*
X169401668Y-103625381D01*
X169496906Y-103577762D01*
X169544525Y-103530143D01*
X169592144Y-103434905D01*
X169639763Y-103244429D01*
X169639763Y-103006333D01*
X169592144Y-102815857D01*
X169544525Y-102720619D01*
X169496906Y-102673000D01*
X169401668Y-102625381D01*
X168115953Y-103625381D02*
X168687382Y-103625381D01*
X168401668Y-103625381D02*
X168401668Y-102625381D01*
X168496906Y-102768238D01*
X168592144Y-102863476D01*
X168687382Y-102911095D01*
X167782620Y-102625381D02*
X167115953Y-102625381D01*
X167544525Y-103625381D01*
X166115953Y-102958714D02*
X165735001Y-102958714D01*
X165973096Y-103625381D02*
X165973096Y-102768238D01*
X165925477Y-102673000D01*
X165830239Y-102625381D01*
X165735001Y-102625381D01*
X165258810Y-103625381D02*
X165354048Y-103577762D01*
X165401667Y-103482524D01*
X165401667Y-102625381D01*
X164449285Y-103625381D02*
X164449285Y-103101571D01*
X164496904Y-103006333D01*
X164592142Y-102958714D01*
X164782619Y-102958714D01*
X164877857Y-103006333D01*
X164449285Y-103577762D02*
X164544523Y-103625381D01*
X164782619Y-103625381D01*
X164877857Y-103577762D01*
X164925476Y-103482524D01*
X164925476Y-103387286D01*
X164877857Y-103292048D01*
X164782619Y-103244429D01*
X164544523Y-103244429D01*
X164449285Y-103196810D01*
X163973095Y-103625381D02*
X163973095Y-102625381D01*
X163973095Y-103006333D02*
X163877857Y-102958714D01*
X163687380Y-102958714D01*
X163592142Y-103006333D01*
X163544523Y-103053952D01*
X163496904Y-103149190D01*
X163496904Y-103434905D01*
X163544523Y-103530143D01*
X163592142Y-103577762D01*
X163687380Y-103625381D01*
X163877857Y-103625381D01*
X163973095Y-103577762D01*
X163068333Y-103625381D02*
X163068333Y-102625381D01*
X163068333Y-103006333D02*
X162973095Y-102958714D01*
X162782618Y-102958714D01*
X162687380Y-103006333D01*
X162639761Y-103053952D01*
X162592142Y-103149190D01*
X162592142Y-103434905D01*
X162639761Y-103530143D01*
X162687380Y-103577762D01*
X162782618Y-103625381D01*
X162973095Y-103625381D01*
X163068333Y-103577762D01*
X161782618Y-103577762D02*
X161877856Y-103625381D01*
X162068333Y-103625381D01*
X162163571Y-103577762D01*
X162211190Y-103482524D01*
X162211190Y-103101571D01*
X162163571Y-103006333D01*
X162068333Y-102958714D01*
X161877856Y-102958714D01*
X161782618Y-103006333D01*
X161734999Y-103101571D01*
X161734999Y-103196810D01*
X162211190Y-103292048D01*
X161306428Y-103625381D02*
X161306428Y-102958714D01*
X161306428Y-103149190D02*
X161258809Y-103053952D01*
X161211190Y-103006333D01*
X161115952Y-102958714D01*
X161020713Y-102958714D01*
X160258808Y-102958714D02*
X160258808Y-103768238D01*
X160306427Y-103863476D01*
X160354046Y-103911095D01*
X160449285Y-103958714D01*
X160592142Y-103958714D01*
X160687380Y-103911095D01*
X160258808Y-103577762D02*
X160354046Y-103625381D01*
X160544523Y-103625381D01*
X160639761Y-103577762D01*
X160687380Y-103530143D01*
X160734999Y-103434905D01*
X160734999Y-103149190D01*
X160687380Y-103053952D01*
X160639761Y-103006333D01*
X160544523Y-102958714D01*
X160354046Y-102958714D01*
X160258808Y-103006333D01*
X159354046Y-103625381D02*
X159354046Y-103101571D01*
X159401665Y-103006333D01*
X159496903Y-102958714D01*
X159687380Y-102958714D01*
X159782618Y-103006333D01*
X159354046Y-103577762D02*
X159449284Y-103625381D01*
X159687380Y-103625381D01*
X159782618Y-103577762D01*
X159830237Y-103482524D01*
X159830237Y-103387286D01*
X159782618Y-103292048D01*
X159687380Y-103244429D01*
X159449284Y-103244429D01*
X159354046Y-103196810D01*
X158925475Y-103577762D02*
X158830237Y-103625381D01*
X158639761Y-103625381D01*
X158544522Y-103577762D01*
X158496903Y-103482524D01*
X158496903Y-103434905D01*
X158544522Y-103339667D01*
X158639761Y-103292048D01*
X158782618Y-103292048D01*
X158877856Y-103244429D01*
X158925475Y-103149190D01*
X158925475Y-103101571D01*
X158877856Y-103006333D01*
X158782618Y-102958714D01*
X158639761Y-102958714D01*
X158544522Y-103006333D01*
X158211189Y-102958714D02*
X157830237Y-102958714D01*
X158068332Y-102625381D02*
X158068332Y-103482524D01*
X158020713Y-103577762D01*
X157925475Y-103625381D01*
X157830237Y-103625381D01*
D13*
X177317763Y-100785023D02*
X176418603Y-100785023D01*
X177317763Y-101170377D02*
X176846774Y-101170377D01*
X176761140Y-101127560D01*
X176718323Y-101041926D01*
X176718323Y-100913474D01*
X176761140Y-100827840D01*
X176803957Y-100785023D01*
X177274946Y-101555732D02*
X177317763Y-101641366D01*
X177317763Y-101812634D01*
X177274946Y-101898269D01*
X177189311Y-101941086D01*
X177146494Y-101941086D01*
X177060860Y-101898269D01*
X177018043Y-101812634D01*
X177018043Y-101684183D01*
X176975226Y-101598549D01*
X176889591Y-101555732D01*
X176846774Y-101555732D01*
X176761140Y-101598549D01*
X176718323Y-101684183D01*
X176718323Y-101812634D01*
X176761140Y-101898269D01*
X177274946Y-102668977D02*
X177317763Y-102583343D01*
X177317763Y-102412074D01*
X177274946Y-102326440D01*
X177189311Y-102283623D01*
X176846774Y-102283623D01*
X176761140Y-102326440D01*
X176718323Y-102412074D01*
X176718323Y-102583343D01*
X176761140Y-102668977D01*
X176846774Y-102711794D01*
X176932409Y-102711794D01*
X177018043Y-102283623D01*
X171213054Y-107860374D02*
X171170237Y-107774740D01*
X171170237Y-107603472D01*
X171213054Y-107517837D01*
X171298689Y-107475020D01*
X171341506Y-107475020D01*
X171427140Y-107517837D01*
X171469957Y-107603472D01*
X171469957Y-107731923D01*
X171512774Y-107817557D01*
X171598409Y-107860374D01*
X171641226Y-107860374D01*
X171726860Y-107817557D01*
X171769677Y-107731923D01*
X171769677Y-107603472D01*
X171726860Y-107517837D01*
X171170237Y-106704312D02*
X172069397Y-106704312D01*
X171213054Y-106704312D02*
X171170237Y-106789946D01*
X171170237Y-106961215D01*
X171213054Y-107046849D01*
X171255871Y-107089666D01*
X171341506Y-107132483D01*
X171598409Y-107132483D01*
X171684043Y-107089666D01*
X171726860Y-107046849D01*
X171769677Y-106961215D01*
X171769677Y-106789946D01*
X171726860Y-106704312D01*
X171170237Y-105890786D02*
X171641226Y-105890786D01*
X171726860Y-105933603D01*
X171769677Y-106019237D01*
X171769677Y-106190506D01*
X171726860Y-106276140D01*
X171213054Y-105890786D02*
X171170237Y-105976420D01*
X171170237Y-106190506D01*
X171213054Y-106276140D01*
X171298689Y-106318957D01*
X171384323Y-106318957D01*
X171469957Y-106276140D01*
X171512774Y-106190506D01*
X171512774Y-105976420D01*
X171555591Y-105890786D01*
X171170237Y-104991626D02*
X171170237Y-105505431D01*
X171170237Y-105248529D02*
X172069397Y-105248529D01*
X171940946Y-105334163D01*
X171855311Y-105419797D01*
X171812494Y-105505431D01*
X168673054Y-107794697D02*
X168630237Y-107709063D01*
X168630237Y-107537795D01*
X168673054Y-107452160D01*
X168758689Y-107409343D01*
X168801506Y-107409343D01*
X168887140Y-107452160D01*
X168929957Y-107537795D01*
X168929957Y-107666246D01*
X168972774Y-107751880D01*
X169058409Y-107794697D01*
X169101226Y-107794697D01*
X169186860Y-107751880D01*
X169229677Y-107666246D01*
X169229677Y-107537795D01*
X169186860Y-107452160D01*
X168673054Y-106638635D02*
X168630237Y-106724269D01*
X168630237Y-106895538D01*
X168673054Y-106981172D01*
X168715871Y-107023989D01*
X168801506Y-107066806D01*
X169058409Y-107066806D01*
X169144043Y-107023989D01*
X169186860Y-106981172D01*
X169229677Y-106895538D01*
X169229677Y-106724269D01*
X169186860Y-106638635D01*
X168630237Y-106124829D02*
X168673054Y-106210463D01*
X168758689Y-106253280D01*
X169529397Y-106253280D01*
X168630237Y-105311303D02*
X168630237Y-105825108D01*
X168630237Y-105568206D02*
X169529397Y-105568206D01*
X169400946Y-105653840D01*
X169315311Y-105739474D01*
X169272494Y-105825108D01*
X166090237Y-107790342D02*
X166689677Y-107790342D01*
X166518409Y-107790342D02*
X166604043Y-107747525D01*
X166646860Y-107704708D01*
X166689677Y-107619074D01*
X166689677Y-107533439D01*
X166090237Y-107319354D02*
X166689677Y-106848365D01*
X166689677Y-107319354D02*
X166090237Y-106848365D01*
X166090237Y-106034840D02*
X166090237Y-106548645D01*
X166090237Y-106291743D02*
X166989397Y-106291743D01*
X166860946Y-106377377D01*
X166775311Y-106463011D01*
X166732494Y-106548645D01*
X164149677Y-107897386D02*
X164149677Y-107554849D01*
X164449397Y-107768934D02*
X163678689Y-107768934D01*
X163593054Y-107726117D01*
X163550237Y-107640483D01*
X163550237Y-107554849D01*
X163550237Y-107340763D02*
X164149677Y-106869774D01*
X164149677Y-107340763D02*
X163550237Y-106869774D01*
X163550237Y-106056249D02*
X163550237Y-106570054D01*
X163550237Y-106313152D02*
X164449397Y-106313152D01*
X164320946Y-106398786D01*
X164235311Y-106484420D01*
X164192494Y-106570054D01*
X155973054Y-107796148D02*
X155930237Y-107710514D01*
X155930237Y-107539246D01*
X155973054Y-107453611D01*
X156058689Y-107410794D01*
X156101506Y-107410794D01*
X156187140Y-107453611D01*
X156229957Y-107539246D01*
X156229957Y-107667697D01*
X156272774Y-107753331D01*
X156358409Y-107796148D01*
X156401226Y-107796148D01*
X156486860Y-107753331D01*
X156529677Y-107667697D01*
X156529677Y-107539246D01*
X156486860Y-107453611D01*
X155973054Y-106640086D02*
X155930237Y-106725720D01*
X155930237Y-106896989D01*
X155973054Y-106982623D01*
X156015871Y-107025440D01*
X156101506Y-107068257D01*
X156358409Y-107068257D01*
X156444043Y-107025440D01*
X156486860Y-106982623D01*
X156529677Y-106896989D01*
X156529677Y-106725720D01*
X156486860Y-106640086D01*
X155930237Y-106254731D02*
X156829397Y-106254731D01*
X156272774Y-106169097D02*
X155930237Y-105912194D01*
X156529677Y-105912194D02*
X156187140Y-106254731D01*
X155930237Y-105055852D02*
X155930237Y-105569657D01*
X155930237Y-105312755D02*
X156829397Y-105312755D01*
X156700946Y-105398389D01*
X156615311Y-105484023D01*
X156572494Y-105569657D01*
X161010237Y-107843319D02*
X161609677Y-107843319D01*
X161524043Y-107843319D02*
X161566860Y-107800502D01*
X161609677Y-107714868D01*
X161609677Y-107586416D01*
X161566860Y-107500782D01*
X161481226Y-107457965D01*
X161010237Y-107457965D01*
X161481226Y-107457965D02*
X161566860Y-107415148D01*
X161609677Y-107329514D01*
X161609677Y-107201062D01*
X161566860Y-107115428D01*
X161481226Y-107072611D01*
X161010237Y-107072611D01*
X161010237Y-106515988D02*
X161053054Y-106601622D01*
X161095871Y-106644439D01*
X161181506Y-106687256D01*
X161438409Y-106687256D01*
X161524043Y-106644439D01*
X161566860Y-106601622D01*
X161609677Y-106515988D01*
X161609677Y-106387536D01*
X161566860Y-106301902D01*
X161524043Y-106259085D01*
X161438409Y-106216268D01*
X161181506Y-106216268D01*
X161095871Y-106259085D01*
X161053054Y-106301902D01*
X161010237Y-106387536D01*
X161010237Y-106515988D01*
X161053054Y-105873730D02*
X161010237Y-105788096D01*
X161010237Y-105616828D01*
X161053054Y-105531193D01*
X161138689Y-105488376D01*
X161181506Y-105488376D01*
X161267140Y-105531193D01*
X161309957Y-105616828D01*
X161309957Y-105745279D01*
X161352774Y-105830913D01*
X161438409Y-105873730D01*
X161481226Y-105873730D01*
X161566860Y-105830913D01*
X161609677Y-105745279D01*
X161609677Y-105616828D01*
X161566860Y-105531193D01*
X161010237Y-105103022D02*
X161609677Y-105103022D01*
X161909397Y-105103022D02*
X161866580Y-105145839D01*
X161823763Y-105103022D01*
X161866580Y-105060205D01*
X161909397Y-105103022D01*
X161823763Y-105103022D01*
X161010237Y-104203863D02*
X161010237Y-104717668D01*
X161010237Y-104460766D02*
X161909397Y-104460766D01*
X161780946Y-104546400D01*
X161695311Y-104632034D01*
X161652494Y-104717668D01*
D11*
X183027933Y-108037768D02*
X183522908Y-107542793D01*
X183051504Y-108014197D02*
X183075074Y-108084909D01*
X183169355Y-108179189D01*
X183240066Y-108202759D01*
X183287206Y-108202759D01*
X183357917Y-108179189D01*
X183499339Y-108037768D01*
X183522908Y-107967057D01*
X183522909Y-107919917D01*
X183499338Y-107849206D01*
X183405057Y-107754925D01*
X183334347Y-107731355D01*
X182721521Y-107731355D02*
X182792232Y-107754925D01*
X182839372Y-107754925D01*
X182910083Y-107731355D01*
X183051505Y-107589934D01*
X183075074Y-107519223D01*
X183075075Y-107472083D01*
X183051504Y-107401372D01*
X182980793Y-107330661D01*
X182910083Y-107307091D01*
X182862942Y-107307091D01*
X182792232Y-107330661D01*
X182650811Y-107472083D01*
X182627240Y-107542793D01*
X182627241Y-107589934D01*
X182650810Y-107660645D01*
X182721521Y-107731355D01*
X185461867Y-108312702D02*
X185956842Y-107817727D01*
X185485438Y-108289131D02*
X185509008Y-108359843D01*
X185603289Y-108454123D01*
X185674000Y-108477693D01*
X185721140Y-108477693D01*
X185791851Y-108454123D01*
X185933273Y-108312702D01*
X185956842Y-108241991D01*
X185956843Y-108194851D01*
X185933272Y-108124140D01*
X185838991Y-108029859D01*
X185768281Y-108006289D01*
X185226165Y-108077000D02*
X185556149Y-107747017D01*
X185721140Y-107582025D02*
X185721141Y-107629166D01*
X185674000Y-107629165D01*
X185674000Y-107582025D01*
X185721140Y-107582025D01*
X185674000Y-107629165D01*
X185702842Y-95494851D02*
X185773553Y-95471281D01*
X185867834Y-95377001D01*
X185891404Y-95306289D01*
X185891404Y-95259149D01*
X185867834Y-95188438D01*
X185726413Y-95047017D01*
X185655702Y-95023447D01*
X185608561Y-95023447D01*
X185537851Y-95047017D01*
X185443570Y-95141298D01*
X185419999Y-95212009D01*
X185514281Y-95730554D02*
X185019306Y-95235579D01*
X185278579Y-95589132D02*
X185325719Y-95919115D01*
X184995736Y-95589132D02*
X185372859Y-95589133D01*
D13*
X183957323Y-95302614D02*
X183957323Y-95645151D01*
X183657603Y-95431066D02*
X184428311Y-95431066D01*
X184513946Y-95473883D01*
X184556763Y-95559517D01*
X184556763Y-95645151D01*
X184556763Y-95859237D02*
X183957323Y-96330226D01*
X183957323Y-95859237D02*
X184556763Y-96330226D01*
X183743237Y-96629946D02*
X183700420Y-96672763D01*
X183657603Y-96758397D01*
X183657603Y-96972483D01*
X183700420Y-97058117D01*
X183743237Y-97100934D01*
X183828871Y-97143751D01*
X183914506Y-97143751D01*
X184042957Y-97100934D01*
X184556763Y-96587128D01*
X184556763Y-97143751D01*
X181889763Y-95409658D02*
X181290323Y-95409658D01*
X181461591Y-95409658D02*
X181375957Y-95452475D01*
X181333140Y-95495292D01*
X181290323Y-95580926D01*
X181290323Y-95666561D01*
X181889763Y-95880646D02*
X181290323Y-96351635D01*
X181290323Y-95880646D02*
X181889763Y-96351635D01*
X181076237Y-96651355D02*
X181033420Y-96694172D01*
X180990603Y-96779806D01*
X180990603Y-96993892D01*
X181033420Y-97079526D01*
X181076237Y-97122343D01*
X181161871Y-97165160D01*
X181247506Y-97165160D01*
X181375957Y-97122343D01*
X181889763Y-96608537D01*
X181889763Y-97165160D01*
X173710237Y-107767483D02*
X174309677Y-107767483D01*
X174138409Y-107767483D02*
X174224043Y-107724666D01*
X174266860Y-107681849D01*
X174309677Y-107596215D01*
X174309677Y-107510580D01*
X174309677Y-107339312D02*
X174309677Y-106996775D01*
X174609397Y-107210860D02*
X173838689Y-107210860D01*
X173753054Y-107168043D01*
X173710237Y-107082409D01*
X173710237Y-106996775D01*
X173753054Y-106311700D02*
X173710237Y-106397334D01*
X173710237Y-106568603D01*
X173753054Y-106654237D01*
X173795871Y-106697054D01*
X173881506Y-106739871D01*
X174138409Y-106739871D01*
X174224043Y-106697054D01*
X174266860Y-106654237D01*
X174309677Y-106568603D01*
X174309677Y-106397334D01*
X174266860Y-106311700D01*
D11*
X179969199Y-107860267D02*
X180035866Y-107826933D01*
X180069199Y-107793600D01*
X180102533Y-107726933D01*
X180102533Y-107526933D01*
X180069199Y-107460267D01*
X180035866Y-107426933D01*
X179969199Y-107393600D01*
X179869199Y-107393600D01*
X179802533Y-107426933D01*
X179769199Y-107460267D01*
X179735866Y-107526933D01*
X179735866Y-107726933D01*
X179769199Y-107793600D01*
X179802533Y-107826933D01*
X179869199Y-107860267D01*
X179969199Y-107860267D01*
X179469200Y-107826933D02*
X179402533Y-107860267D01*
X179269200Y-107860267D01*
X179202533Y-107826933D01*
X179169200Y-107760267D01*
X179169200Y-107726933D01*
X179202533Y-107660267D01*
X179269200Y-107626933D01*
X179369200Y-107626933D01*
X179435866Y-107593600D01*
X179469200Y-107526933D01*
X179469200Y-107493600D01*
X179435866Y-107426933D01*
X179369200Y-107393600D01*
X179269200Y-107393600D01*
X179202533Y-107426933D01*
X178569199Y-107826933D02*
X178635866Y-107860267D01*
X178769199Y-107860267D01*
X178835866Y-107826933D01*
X178869199Y-107793600D01*
X178902533Y-107726933D01*
X178902533Y-107526933D01*
X178869199Y-107460267D01*
X178835866Y-107426933D01*
X178769199Y-107393600D01*
X178635866Y-107393600D01*
X178569199Y-107426933D01*
X178169199Y-107860267D02*
X178235866Y-107826933D01*
X178269199Y-107793600D01*
X178302533Y-107726933D01*
X178302533Y-107526933D01*
X178269199Y-107460267D01*
X178235866Y-107426933D01*
X178169199Y-107393600D01*
X178069199Y-107393600D01*
X178002533Y-107426933D01*
X177969199Y-107460267D01*
X177935866Y-107526933D01*
X177935866Y-107726933D01*
X177969199Y-107793600D01*
X178002533Y-107826933D01*
X178069199Y-107860267D01*
X178169199Y-107860267D01*
D13*
X176250237Y-107707611D02*
X176293054Y-107793245D01*
X176335871Y-107836062D01*
X176421506Y-107878879D01*
X176678409Y-107878879D01*
X176764043Y-107836062D01*
X176806860Y-107793245D01*
X176849677Y-107707611D01*
X176849677Y-107579159D01*
X176806860Y-107493525D01*
X176764043Y-107450708D01*
X176678409Y-107407891D01*
X176421506Y-107407891D01*
X176335871Y-107450708D01*
X176293054Y-107493525D01*
X176250237Y-107579159D01*
X176250237Y-107707611D01*
X176293054Y-107065353D02*
X176250237Y-106979719D01*
X176250237Y-106808451D01*
X176293054Y-106722816D01*
X176378689Y-106679999D01*
X176421506Y-106679999D01*
X176507140Y-106722816D01*
X176549957Y-106808451D01*
X176549957Y-106936902D01*
X176592774Y-107022536D01*
X176678409Y-107065353D01*
X176721226Y-107065353D01*
X176806860Y-107022536D01*
X176849677Y-106936902D01*
X176849677Y-106808451D01*
X176806860Y-106722816D01*
X176293054Y-105909291D02*
X176250237Y-105994925D01*
X176250237Y-106166194D01*
X176293054Y-106251828D01*
X176335871Y-106294645D01*
X176421506Y-106337462D01*
X176678409Y-106337462D01*
X176764043Y-106294645D01*
X176806860Y-106251828D01*
X176849677Y-106166194D01*
X176849677Y-105994925D01*
X176806860Y-105909291D01*
X176250237Y-105523936D02*
X176849677Y-105523936D01*
X177149397Y-105523936D02*
X177106580Y-105566753D01*
X177063763Y-105523936D01*
X177106580Y-105481119D01*
X177149397Y-105523936D01*
X177063763Y-105523936D01*
X179306946Y-95405303D02*
X179349763Y-95490937D01*
X179349763Y-95662205D01*
X179306946Y-95747840D01*
X179221311Y-95790657D01*
X179178494Y-95790657D01*
X179092860Y-95747840D01*
X179050043Y-95662205D01*
X179050043Y-95533754D01*
X179007226Y-95448120D01*
X178921591Y-95405303D01*
X178878774Y-95405303D01*
X178793140Y-95448120D01*
X178750323Y-95533754D01*
X178750323Y-95662205D01*
X178793140Y-95747840D01*
X179306946Y-96561365D02*
X179349763Y-96475731D01*
X179349763Y-96304462D01*
X179306946Y-96218828D01*
X179264129Y-96176011D01*
X179178494Y-96133194D01*
X178921591Y-96133194D01*
X178835957Y-96176011D01*
X178793140Y-96218828D01*
X178750323Y-96304462D01*
X178750323Y-96475731D01*
X178793140Y-96561365D01*
X179349763Y-97075171D02*
X179306946Y-96989537D01*
X179221311Y-96946720D01*
X178450603Y-96946720D01*
X178536237Y-97374892D02*
X178493420Y-97417709D01*
X178450603Y-97503343D01*
X178450603Y-97717429D01*
X178493420Y-97803063D01*
X178536237Y-97845880D01*
X178621871Y-97888697D01*
X178707506Y-97888697D01*
X178835957Y-97845880D01*
X179349763Y-97332074D01*
X179349763Y-97888697D01*
X176766946Y-95339626D02*
X176809763Y-95425260D01*
X176809763Y-95596528D01*
X176766946Y-95682163D01*
X176681311Y-95724980D01*
X176638494Y-95724980D01*
X176552860Y-95682163D01*
X176510043Y-95596528D01*
X176510043Y-95468077D01*
X176467226Y-95382443D01*
X176381591Y-95339626D01*
X176338774Y-95339626D01*
X176253140Y-95382443D01*
X176210323Y-95468077D01*
X176210323Y-95596528D01*
X176253140Y-95682163D01*
X176809763Y-96495688D02*
X175910603Y-96495688D01*
X176766946Y-96495688D02*
X176809763Y-96410054D01*
X176809763Y-96238785D01*
X176766946Y-96153151D01*
X176724129Y-96110334D01*
X176638494Y-96067517D01*
X176381591Y-96067517D01*
X176295957Y-96110334D01*
X176253140Y-96153151D01*
X176210323Y-96238785D01*
X176210323Y-96410054D01*
X176253140Y-96495688D01*
X176809763Y-97309214D02*
X176338774Y-97309214D01*
X176253140Y-97266397D01*
X176210323Y-97180763D01*
X176210323Y-97009494D01*
X176253140Y-96923860D01*
X176766946Y-97309214D02*
X176809763Y-97223580D01*
X176809763Y-97009494D01*
X176766946Y-96923860D01*
X176681311Y-96881043D01*
X176595677Y-96881043D01*
X176510043Y-96923860D01*
X176467226Y-97009494D01*
X176467226Y-97223580D01*
X176424409Y-97309214D01*
X175996237Y-97694569D02*
X175953420Y-97737386D01*
X175910603Y-97823020D01*
X175910603Y-98037106D01*
X175953420Y-98122740D01*
X175996237Y-98165557D01*
X176081871Y-98208374D01*
X176167506Y-98208374D01*
X176295957Y-98165557D01*
X176809763Y-97651751D01*
X176809763Y-98208374D01*
X174777763Y-95768160D02*
X173878603Y-95768160D01*
X174734946Y-95768160D02*
X174777763Y-95682526D01*
X174777763Y-95511257D01*
X174734946Y-95425623D01*
X174692129Y-95382806D01*
X174606494Y-95339989D01*
X174349591Y-95339989D01*
X174263957Y-95382806D01*
X174221140Y-95425623D01*
X174178323Y-95511257D01*
X174178323Y-95682526D01*
X174221140Y-95768160D01*
X174777763Y-96581686D02*
X174306774Y-96581686D01*
X174221140Y-96538869D01*
X174178323Y-96453235D01*
X174178323Y-96281966D01*
X174221140Y-96196332D01*
X174734946Y-96581686D02*
X174777763Y-96496052D01*
X174777763Y-96281966D01*
X174734946Y-96196332D01*
X174649311Y-96153515D01*
X174563677Y-96153515D01*
X174478043Y-96196332D01*
X174435226Y-96281966D01*
X174435226Y-96496052D01*
X174392409Y-96581686D01*
X174734946Y-97395212D02*
X174777763Y-97309578D01*
X174777763Y-97138309D01*
X174734946Y-97052675D01*
X174692129Y-97009858D01*
X174606494Y-96967041D01*
X174349591Y-96967041D01*
X174263957Y-97009858D01*
X174221140Y-97052675D01*
X174178323Y-97138309D01*
X174178323Y-97309578D01*
X174221140Y-97395212D01*
X161071923Y-95582014D02*
X161071923Y-95924551D01*
X160772203Y-95710466D02*
X161542911Y-95710466D01*
X161628546Y-95753283D01*
X161671363Y-95838917D01*
X161671363Y-95924551D01*
X161671363Y-96138637D02*
X161071923Y-96609626D01*
X161071923Y-96138637D02*
X161671363Y-96609626D01*
X161671363Y-97423151D02*
X161671363Y-96909346D01*
X161671363Y-97166248D02*
X160772203Y-97166248D01*
X160900654Y-97080614D01*
X160986289Y-96994980D01*
X161029106Y-96909346D01*
X164109763Y-95663658D02*
X163510323Y-95663658D01*
X163681591Y-95663658D02*
X163595957Y-95706475D01*
X163553140Y-95749292D01*
X163510323Y-95834926D01*
X163510323Y-95920561D01*
X164109763Y-96134646D02*
X163510323Y-96605635D01*
X163510323Y-96134646D02*
X164109763Y-96605635D01*
X164109763Y-97419160D02*
X164109763Y-96905355D01*
X164109763Y-97162257D02*
X163210603Y-97162257D01*
X163339054Y-97076623D01*
X163424689Y-96990989D01*
X163467506Y-96905355D01*
X154818443Y-98490677D02*
X155032529Y-97891237D01*
X155246615Y-98490677D01*
X155974506Y-98490677D02*
X155974506Y-97891237D01*
X155589152Y-98490677D02*
X155589152Y-98019689D01*
X155631969Y-97934054D01*
X155717603Y-97891237D01*
X155846055Y-97891237D01*
X155931689Y-97934054D01*
X155974506Y-97976871D01*
X156359861Y-97934054D02*
X156445495Y-97891237D01*
X156616763Y-97891237D01*
X156702398Y-97934054D01*
X156745215Y-98019689D01*
X156745215Y-98062506D01*
X156702398Y-98148140D01*
X156616763Y-98190957D01*
X156488312Y-98190957D01*
X156402678Y-98233774D01*
X156359861Y-98319409D01*
X156359861Y-98362226D01*
X156402678Y-98447860D01*
X156488312Y-98490677D01*
X156616763Y-98490677D01*
X156702398Y-98447860D01*
X157130569Y-97891237D02*
X157130569Y-98790397D01*
X157130569Y-98447860D02*
X157216203Y-98490677D01*
X157387472Y-98490677D01*
X157473106Y-98447860D01*
X157515923Y-98405043D01*
X157558740Y-98319409D01*
X157558740Y-98062506D01*
X157515923Y-97976871D01*
X157473106Y-97934054D01*
X157387472Y-97891237D01*
X157216203Y-97891237D01*
X157130569Y-97934054D01*
X157082550Y-95429837D02*
X157597247Y-94915140D01*
X157627524Y-94824311D01*
X157627524Y-94763758D01*
X157597247Y-94672929D01*
X157506418Y-94582100D01*
X157415590Y-94551824D01*
X157476142Y-95036245D02*
X157445866Y-94945416D01*
X157324760Y-94824311D01*
X157233932Y-94794035D01*
X157173380Y-94794035D01*
X157082550Y-94824311D01*
X156900892Y-95005969D01*
X156870616Y-95096798D01*
X156870616Y-95157350D01*
X156900892Y-95248179D01*
X157021998Y-95369284D01*
X157112826Y-95399560D01*
X157385314Y-95732600D02*
X157809182Y-95308732D01*
X157445866Y-95672048D02*
X157445866Y-95732600D01*
X157476142Y-95823429D01*
X157566971Y-95914258D01*
X157657800Y-95944534D01*
X157748629Y-95914258D01*
X158081668Y-95581218D01*
X158656918Y-96156468D02*
X158021116Y-96792270D01*
X158626642Y-96186744D02*
X158596365Y-96095916D01*
X158475260Y-95974810D01*
X158384431Y-95944534D01*
X158323879Y-95944534D01*
X158233050Y-95974811D01*
X158051392Y-96156469D01*
X158021116Y-96247297D01*
X158021116Y-96307850D01*
X158051392Y-96398678D01*
X158172497Y-96519784D01*
X158263326Y-96550060D01*
X159293923Y-95162188D02*
X159893363Y-95376274D01*
X159293923Y-95590360D01*
X159893363Y-96318251D02*
X158994203Y-96318251D01*
X159850546Y-96318251D02*
X159893363Y-96232617D01*
X159893363Y-96061348D01*
X159850546Y-95975714D01*
X159807729Y-95932897D01*
X159722094Y-95890080D01*
X159465191Y-95890080D01*
X159379557Y-95932897D01*
X159336740Y-95975714D01*
X159293923Y-96061348D01*
X159293923Y-96232617D01*
X159336740Y-96318251D01*
X159893363Y-97131777D02*
X158994203Y-97131777D01*
X159850546Y-97131777D02*
X159893363Y-97046143D01*
X159893363Y-96874874D01*
X159850546Y-96789240D01*
X159807729Y-96746423D01*
X159722094Y-96703606D01*
X159465191Y-96703606D01*
X159379557Y-96746423D01*
X159336740Y-96789240D01*
X159293923Y-96874874D01*
X159293923Y-97046143D01*
X159336740Y-97131777D01*
X184592323Y-105652388D02*
X185191763Y-105866474D01*
X184592323Y-106080560D01*
X185191763Y-106808451D02*
X184292603Y-106808451D01*
X185148946Y-106808451D02*
X185191763Y-106722817D01*
X185191763Y-106551548D01*
X185148946Y-106465914D01*
X185106129Y-106423097D01*
X185020494Y-106380280D01*
X184763591Y-106380280D01*
X184677957Y-106423097D01*
X184635140Y-106465914D01*
X184592323Y-106551548D01*
X184592323Y-106722817D01*
X184635140Y-106808451D01*
X185191763Y-107621977D02*
X184720774Y-107621977D01*
X184635140Y-107579160D01*
X184592323Y-107493526D01*
X184592323Y-107322257D01*
X184635140Y-107236623D01*
X185148946Y-107621977D02*
X185191763Y-107536343D01*
X185191763Y-107322257D01*
X185148946Y-107236623D01*
X185063311Y-107193806D01*
X184977677Y-107193806D01*
X184892043Y-107236623D01*
X184849226Y-107322257D01*
X184849226Y-107536343D01*
X184806409Y-107621977D01*
X184592323Y-103112388D02*
X185191763Y-103326474D01*
X184592323Y-103540560D01*
X185191763Y-104268451D02*
X184292603Y-104268451D01*
X185148946Y-104268451D02*
X185191763Y-104182817D01*
X185191763Y-104011548D01*
X185148946Y-103925914D01*
X185106129Y-103883097D01*
X185020494Y-103840280D01*
X184763591Y-103840280D01*
X184677957Y-103883097D01*
X184635140Y-103925914D01*
X184592323Y-104011548D01*
X184592323Y-104182817D01*
X184635140Y-104268451D01*
X185191763Y-105081977D02*
X184292603Y-105081977D01*
X185148946Y-105081977D02*
X185191763Y-104996343D01*
X185191763Y-104825074D01*
X185148946Y-104739440D01*
X185106129Y-104696623D01*
X185020494Y-104653806D01*
X184763591Y-104653806D01*
X184677957Y-104696623D01*
X184635140Y-104739440D01*
X184592323Y-104825074D01*
X184592323Y-104996343D01*
X184635140Y-105081977D01*
X184592323Y-100979151D02*
X185320214Y-100979151D01*
X185405849Y-100936334D01*
X185448666Y-100893517D01*
X185491483Y-100807882D01*
X185491483Y-100679431D01*
X185448666Y-100593797D01*
X185148946Y-100979151D02*
X185191763Y-100893517D01*
X185191763Y-100722248D01*
X185148946Y-100636614D01*
X185106129Y-100593797D01*
X185020494Y-100550980D01*
X184763591Y-100550980D01*
X184677957Y-100593797D01*
X184635140Y-100636614D01*
X184592323Y-100722248D01*
X184592323Y-100893517D01*
X184635140Y-100979151D01*
X184592323Y-101407323D02*
X185191763Y-101407323D01*
X184677957Y-101407323D02*
X184635140Y-101450140D01*
X184592323Y-101535774D01*
X184592323Y-101664226D01*
X184635140Y-101749860D01*
X184720774Y-101792677D01*
X185191763Y-101792677D01*
X185191763Y-102606203D02*
X184292603Y-102606203D01*
X185148946Y-102606203D02*
X185191763Y-102520569D01*
X185191763Y-102349300D01*
X185148946Y-102263666D01*
X185106129Y-102220849D01*
X185020494Y-102178032D01*
X184763591Y-102178032D01*
X184677957Y-102220849D01*
X184635140Y-102263666D01*
X184592323Y-102349300D01*
X184592323Y-102520569D01*
X184635140Y-102606203D01*
X154290849Y-106868323D02*
X154290849Y-107596214D01*
X154333666Y-107681849D01*
X154376483Y-107724666D01*
X154462118Y-107767483D01*
X154590569Y-107767483D01*
X154676203Y-107724666D01*
X154290849Y-107424946D02*
X154376483Y-107467763D01*
X154547752Y-107467763D01*
X154633386Y-107424946D01*
X154676203Y-107382129D01*
X154719020Y-107296494D01*
X154719020Y-107039591D01*
X154676203Y-106953957D01*
X154633386Y-106911140D01*
X154547752Y-106868323D01*
X154376483Y-106868323D01*
X154290849Y-106911140D01*
X153862677Y-106868323D02*
X153862677Y-107467763D01*
X153862677Y-106953957D02*
X153819860Y-106911140D01*
X153734226Y-106868323D01*
X153605774Y-106868323D01*
X153520140Y-106911140D01*
X153477323Y-106996774D01*
X153477323Y-107467763D01*
X152663797Y-107467763D02*
X152663797Y-106568603D01*
X152663797Y-107424946D02*
X152749431Y-107467763D01*
X152920700Y-107467763D01*
X153006334Y-107424946D01*
X153049151Y-107382129D01*
X153091968Y-107296494D01*
X153091968Y-107039591D01*
X153049151Y-106953957D01*
X153006334Y-106911140D01*
X152920700Y-106868323D01*
X152749431Y-106868323D01*
X152663797Y-106911140D01*
X152962066Y-95950677D02*
X153176152Y-95351237D01*
X153390238Y-95950677D01*
X153732775Y-95351237D02*
X153732775Y-95950677D01*
X153732775Y-96250397D02*
X153689958Y-96207580D01*
X153732775Y-96164763D01*
X153775592Y-96207580D01*
X153732775Y-96250397D01*
X153732775Y-96164763D01*
X154160946Y-95950677D02*
X154160946Y-95351237D01*
X154160946Y-95865043D02*
X154203763Y-95907860D01*
X154289397Y-95950677D01*
X154417849Y-95950677D01*
X154503483Y-95907860D01*
X154546300Y-95822226D01*
X154546300Y-95351237D01*
X177966800Y-106857800D02*
X179766800Y-106857800D01*
X179766800Y-106857800D02*
X179766800Y-105333800D01*
X179766800Y-105333800D02*
X177966800Y-105333800D01*
X177966800Y-105333800D02*
X177966800Y-106857800D01*
D14*
X168910000Y-98552000D02*
X168910000Y-98171000D01*
X169291000Y-98552000D02*
X169291000Y-98171000D01*
X168529000Y-98552000D02*
X168529000Y-98171000D01*
X168529000Y-96139000D02*
X168529000Y-95758000D01*
X169291000Y-96139000D02*
X169291000Y-95758000D01*
X168910000Y-96139000D02*
X168910000Y-95758000D01*
X167513000Y-97155000D02*
X167894000Y-97155000D01*
X167513000Y-97536000D02*
X167894000Y-97536000D01*
X167513000Y-96774000D02*
X167894000Y-96774000D01*
X169926000Y-96774000D02*
X170307000Y-96774000D01*
X169926000Y-97536000D02*
X170307000Y-97536000D01*
X169926000Y-97155000D02*
X170307000Y-97155000D01*
D15*
X169418000Y-96520000D02*
X168402000Y-96520000D01*
X169545000Y-97663000D02*
X169545000Y-96647000D01*
X168402000Y-97790000D02*
X169418000Y-97790000D01*
X168275000Y-96647000D02*
X168275000Y-97663000D01*
D14*
X177624000Y-99152400D02*
X177924000Y-99152400D01*
X177624000Y-104352400D02*
X177924000Y-104352400D01*
X181024000Y-104352400D02*
X180724000Y-104352400D01*
X181024000Y-99152400D02*
X180724000Y-99152400D01*
X181024000Y-104352400D02*
X181024000Y-99152400D01*
X177624000Y-104352400D02*
X177624000Y-99152400D01*
D13*
X183134000Y-104648000D02*
X183134000Y-102108000D01*
X183134000Y-102108000D02*
X181610000Y-102108000D01*
X181610000Y-102108000D02*
X181610000Y-104648000D01*
X181610000Y-104648000D02*
X183134000Y-104648000D01*
X181610000Y-98806000D02*
X181610000Y-101346000D01*
X181610000Y-101346000D02*
X183134000Y-101346000D01*
X183134000Y-101346000D02*
X183134000Y-98806000D01*
X183134000Y-98806000D02*
X181610000Y-98806000D01*
X159588200Y-104749600D02*
X157048200Y-104749600D01*
X157048200Y-104749600D02*
X157048200Y-106273600D01*
X157048200Y-106273600D02*
X159588200Y-106273600D01*
X159588200Y-106273600D02*
X159588200Y-104749600D01*
X180453574Y-105389318D02*
X180496391Y-105517769D01*
X180539209Y-105560586D01*
X180624843Y-105603403D01*
X180753294Y-105603403D01*
X180838929Y-105560586D01*
X180881746Y-105517769D01*
X180924563Y-105432135D01*
X180924563Y-105089598D01*
X180025403Y-105089598D01*
X180025403Y-105389318D01*
X180068220Y-105474952D01*
X180111037Y-105517769D01*
X180196671Y-105560586D01*
X180282306Y-105560586D01*
X180367940Y-105517769D01*
X180410757Y-105474952D01*
X180453574Y-105389318D01*
X180453574Y-105089598D01*
X180025403Y-105860306D02*
X180025403Y-106374112D01*
X180924563Y-106117209D02*
X180025403Y-106117209D01*
X180025403Y-106845100D02*
X180025403Y-106930735D01*
X180068220Y-107016369D01*
X180111037Y-107059186D01*
X180196671Y-107102003D01*
X180367940Y-107144820D01*
X180582026Y-107144820D01*
X180753294Y-107102003D01*
X180838929Y-107059186D01*
X180881746Y-107016369D01*
X180924563Y-106930735D01*
X180924563Y-106845100D01*
X180881746Y-106759466D01*
X180838929Y-106716649D01*
X180753294Y-106673832D01*
X180582026Y-106631015D01*
X180367940Y-106631015D01*
X180196671Y-106673832D01*
X180111037Y-106716649D01*
X180068220Y-106759466D01*
X180025403Y-106845100D01*
D14*
X179800191Y-101728590D02*
X179800191Y-102204781D01*
X180133524Y-101204781D02*
X179800191Y-101728590D01*
X179466857Y-101204781D01*
X178609714Y-102204781D02*
X179181143Y-102204781D01*
X178895429Y-102204781D02*
X178895429Y-101204781D01*
X178990667Y-101347638D01*
X179085905Y-101442876D01*
X179181143Y-101490495D01*
D13*
X182521860Y-105731129D02*
X182564677Y-105773946D01*
X182693128Y-105816763D01*
X182778762Y-105816763D01*
X182907214Y-105773946D01*
X182992848Y-105688311D01*
X183035665Y-105602677D01*
X183078482Y-105431409D01*
X183078482Y-105302957D01*
X183035665Y-105131689D01*
X182992848Y-105046054D01*
X182907214Y-104960420D01*
X182778762Y-104917603D01*
X182693128Y-104917603D01*
X182564677Y-104960420D01*
X182521860Y-105003237D01*
X182008054Y-105302957D02*
X182093688Y-105260140D01*
X182136505Y-105217323D01*
X182179322Y-105131689D01*
X182179322Y-105088871D01*
X182136505Y-105003237D01*
X182093688Y-104960420D01*
X182008054Y-104917603D01*
X181836785Y-104917603D01*
X181751151Y-104960420D01*
X181708334Y-105003237D01*
X181665517Y-105088871D01*
X181665517Y-105131689D01*
X181708334Y-105217323D01*
X181751151Y-105260140D01*
X181836785Y-105302957D01*
X182008054Y-105302957D01*
X182093688Y-105345774D01*
X182136505Y-105388591D01*
X182179322Y-105474226D01*
X182179322Y-105645494D01*
X182136505Y-105731129D01*
X182093688Y-105773946D01*
X182008054Y-105816763D01*
X181836785Y-105816763D01*
X181751151Y-105773946D01*
X181708334Y-105731129D01*
X181665517Y-105645494D01*
X181665517Y-105474226D01*
X181708334Y-105388591D01*
X181751151Y-105345774D01*
X181836785Y-105302957D01*
X182521860Y-98365129D02*
X182564677Y-98407946D01*
X182693128Y-98450763D01*
X182778762Y-98450763D01*
X182907214Y-98407946D01*
X182992848Y-98322311D01*
X183035665Y-98236677D01*
X183078482Y-98065409D01*
X183078482Y-97936957D01*
X183035665Y-97765689D01*
X182992848Y-97680054D01*
X182907214Y-97594420D01*
X182778762Y-97551603D01*
X182693128Y-97551603D01*
X182564677Y-97594420D01*
X182521860Y-97637237D01*
X182093688Y-98450763D02*
X181922420Y-98450763D01*
X181836785Y-98407946D01*
X181793968Y-98365129D01*
X181708334Y-98236677D01*
X181665517Y-98065409D01*
X181665517Y-97722871D01*
X181708334Y-97637237D01*
X181751151Y-97594420D01*
X181836785Y-97551603D01*
X182008054Y-97551603D01*
X182093688Y-97594420D01*
X182136505Y-97637237D01*
X182179322Y-97722871D01*
X182179322Y-97936957D01*
X182136505Y-98022591D01*
X182093688Y-98065409D01*
X182008054Y-98108226D01*
X181836785Y-98108226D01*
X181751151Y-98065409D01*
X181708334Y-98022591D01*
X181665517Y-97936957D01*
X160756963Y-105361740D02*
X160328791Y-105062020D01*
X160756963Y-104847935D02*
X159857803Y-104847935D01*
X159857803Y-105190472D01*
X159900620Y-105276106D01*
X159943437Y-105318923D01*
X160029071Y-105361740D01*
X160157523Y-105361740D01*
X160243157Y-105318923D01*
X160285974Y-105276106D01*
X160328791Y-105190472D01*
X160328791Y-104847935D01*
X159857803Y-105661460D02*
X159857803Y-106218083D01*
X160200340Y-105918363D01*
X160200340Y-106046815D01*
X160243157Y-106132449D01*
X160285974Y-106175266D01*
X160371609Y-106218083D01*
X160585694Y-106218083D01*
X160671329Y-106175266D01*
X160714146Y-106132449D01*
X160756963Y-106046815D01*
X160756963Y-105789912D01*
X160714146Y-105704278D01*
X160671329Y-105661460D01*
M02*
