M48
INCH,TZ
T1C0.013
T2C0.040
T3C0.059
T4C0.022
%
G90
G05
T1
X62500Y-40330
X62810Y-39240
X62990Y-38330
X63110Y-40490
X63200Y-39200
X63400Y-38620
X63800Y-40800
X64050Y-39760
X64070Y-41450
X64250Y-40810
X64260Y-40030
X64480Y-37790
X65170Y-38570
X65360Y-37750
X65460Y-39160
X65470Y-40880
X65530Y-40430
X65740Y-37630
X65930Y-40180
X66060Y-37750
X66550Y-40870
X66720Y-39360
X66750Y-42275
X66900Y-39000
X67120Y-39930
X67200Y-39000
X67200Y-39600
X67270Y-41200
X67450Y-40450
X67640Y-40850
X67700Y-39130
X67925Y-42275
X67950Y-37870
X68470Y-37950
X68500Y-42040
X68780Y-39020
X68790Y-40790
X68800Y-39760
X68900Y-40110
X69020Y-39260
X69350Y-41340
X69520Y-40620
X69610Y-41590
X70130Y-38310
X70300Y-40470
X71340Y-41740
X71640Y-38560
X72300Y-39700
T2
X60500Y-36950
X60500Y-42950
X61500Y-37050
X61500Y-38020
X61500Y-43050
X62500Y-36950
X62500Y-42950
X63500Y-37050
X63500Y-43050
X64500Y-36950
X64500Y-42950
X65500Y-37050
X65500Y-43050
X66500Y-36950
X66500Y-42950
X67500Y-37050
X67500Y-43050
X68500Y-36950
X68500Y-42950
X69500Y-37050
X69500Y-43050
X70500Y-36950
X70500Y-42950
X71500Y-37050
X71500Y-43050
X72500Y-36950
X72500Y-42950
X73450Y-40000
X73450Y-42000
X73485Y-38040
X73500Y-37050
X73500Y-43050
X73515Y-38960
X73550Y-41000
T3
X60500Y-38888
X60500Y-41112
T4
X61346Y-39232
X61346Y-40768
T0
M30
