G04 #@! TF.FileFunction,Copper,L2,Bot,Signal*
%FSLAX46Y46*%
G04 Gerber Fmt 4.6, Leading zero omitted, Abs format (unit mm)*
G04 Created by KiCad (PCBNEW 4.0.7) date Monday, 20 November 2017 'AMt' 10:57:51*
%MOMM*%
%LPD*%
G01*
G04 APERTURE LIST*
%ADD10C,0.100000*%
%ADD11C,0.149860*%
%ADD12R,0.635000X1.143000*%
%ADD13R,2.400000X1.900000*%
%ADD14R,1.143000X0.635000*%
%ADD15O,1.879600X1.879600*%
%ADD16C,1.879600*%
%ADD17C,2.150000*%
%ADD18C,0.685800*%
%ADD19C,0.250000*%
%ADD20C,0.152400*%
%ADD21C,0.254000*%
G04 APERTURE END LIST*
D10*
D11*
X179113180Y-106095800D02*
X178620420Y-106095800D01*
D12*
X178458800Y-106095800D03*
X179274800Y-106095800D03*
D13*
X179324000Y-99702400D03*
X179324000Y-103802400D03*
D14*
X182372000Y-104140000D03*
X182372000Y-102616000D03*
X182372000Y-99314000D03*
X182372000Y-100838000D03*
D15*
X156210000Y-96570800D03*
D16*
X153670000Y-93853000D03*
X156210000Y-94107000D03*
X158750000Y-93853000D03*
X161290000Y-94107000D03*
X163830000Y-93853000D03*
X166370000Y-94107000D03*
X168910000Y-93853000D03*
X171450000Y-94107000D03*
X173990000Y-93853000D03*
X176530000Y-94107000D03*
X179070000Y-93853000D03*
X181610000Y-94107000D03*
X184150000Y-93853000D03*
X186690000Y-94107000D03*
X186690000Y-109347000D03*
X184150000Y-109093000D03*
X181610000Y-109347000D03*
X179070000Y-109093000D03*
X176530000Y-109347000D03*
X173990000Y-109093000D03*
X171450000Y-109347000D03*
X168910000Y-109093000D03*
X166370000Y-109347000D03*
X163830000Y-109093000D03*
X161290000Y-109347000D03*
X158750000Y-109093000D03*
X156210000Y-109347000D03*
X153670000Y-109093000D03*
X186563000Y-106680000D03*
X186817000Y-104140000D03*
X186563000Y-101600000D03*
X186728100Y-98958400D03*
X186651900Y-96621600D03*
D17*
X153670000Y-104425000D03*
X153670000Y-98775000D03*
D12*
X159080200Y-105511600D03*
X157556200Y-105511600D03*
D18*
X161036000Y-98094800D03*
X165531800Y-97967800D03*
X173913800Y-96393000D03*
X169037000Y-103809800D03*
X166293800Y-103835200D03*
X162052000Y-103632000D03*
X160528000Y-99568000D03*
X170688000Y-99060000D03*
X169926000Y-99060000D03*
X163195000Y-103657400D03*
X183642000Y-100838000D03*
X166014400Y-95885000D03*
X172593000Y-96189800D03*
X163779200Y-95986600D03*
X170865800Y-104648000D03*
X173990000Y-106781600D03*
X162737800Y-105283000D03*
X159994600Y-97358200D03*
X160299400Y-102844600D03*
X159537400Y-99669600D03*
X175310800Y-99720400D03*
X178562000Y-102793800D03*
X175006000Y-101879400D03*
X171805600Y-103759000D03*
X171323000Y-102743000D03*
X176149000Y-105003600D03*
X174726600Y-103606600D03*
X181965600Y-97942400D03*
X174752000Y-100990400D03*
X181203600Y-106019600D03*
X171958000Y-99390200D03*
X178130200Y-97307400D03*
X174701200Y-99110800D03*
X167792400Y-95885000D03*
X166979600Y-95580200D03*
X169468800Y-99974400D03*
X166268400Y-99466400D03*
X170688000Y-100584000D03*
X170484800Y-101422200D03*
X162687000Y-100990400D03*
X163220400Y-101676200D03*
X166446200Y-102692200D03*
X167462200Y-102057200D03*
X158750000Y-102438200D03*
X176809400Y-105638600D03*
X176580800Y-103174800D03*
X172529500Y-107378500D03*
X169545000Y-107378500D03*
D19*
X160528000Y-99568000D02*
X160604200Y-99568000D01*
X161036000Y-99136200D02*
X161036000Y-98094800D01*
X160604200Y-99568000D02*
X161036000Y-99136200D01*
X160985200Y-96088200D02*
X158750000Y-93853000D01*
X161036000Y-98094800D02*
X160985200Y-98044000D01*
X160985200Y-98044000D02*
X160985200Y-96088200D01*
X165531800Y-97967800D02*
X166920201Y-97967800D01*
X172862885Y-97291515D02*
X173913800Y-96393000D01*
X167596486Y-97291515D02*
X172862885Y-97291515D01*
X166920201Y-97967800D02*
X167596486Y-97291515D01*
X166319200Y-103809800D02*
X169037000Y-103809800D01*
X166293800Y-103835200D02*
X166319200Y-103809800D01*
X162052000Y-101092000D02*
X162052000Y-103632000D01*
X160528000Y-99568000D02*
X162052000Y-101092000D01*
D20*
X170865800Y-104648000D02*
X170865800Y-104063800D01*
X169037000Y-99060000D02*
X169926000Y-99060000D01*
X168656000Y-99441000D02*
X169037000Y-99060000D01*
X168656000Y-100965000D02*
X168656000Y-99441000D01*
X169164000Y-101473000D02*
X168656000Y-100965000D01*
X169164000Y-102362000D02*
X169164000Y-101473000D01*
X170865800Y-104063800D02*
X169164000Y-102362000D01*
D19*
X162737800Y-104114600D02*
X163195000Y-103657400D01*
X162737800Y-104114600D02*
X162737800Y-105283000D01*
X182372000Y-100838000D02*
X183642000Y-100838000D01*
X182372000Y-102616000D02*
X182372000Y-100838000D01*
X165912800Y-95986600D02*
X165912800Y-96570800D01*
X166014400Y-95885000D02*
X165912800Y-95986600D01*
X172212000Y-96570800D02*
X172593000Y-96189800D01*
X164363400Y-96570800D02*
X165912800Y-96570800D01*
X165912800Y-96570800D02*
X172212000Y-96570800D01*
X163779200Y-95986600D02*
X164363400Y-96570800D01*
X170688000Y-104825800D02*
X170688000Y-105283000D01*
X170865800Y-104648000D02*
X170688000Y-104825800D01*
X162737800Y-105283000D02*
X170688000Y-105283000D01*
X170688000Y-105283000D02*
X172847000Y-105283000D01*
X172847000Y-105283000D02*
X173990000Y-106781600D01*
X160299400Y-102844600D02*
X162737800Y-105283000D01*
X160248600Y-98958400D02*
X159537400Y-99669600D01*
X160248600Y-97612200D02*
X160248600Y-98958400D01*
X159994600Y-97358200D02*
X160248600Y-97612200D01*
X160299400Y-102844600D02*
X159537400Y-102082600D01*
X159537400Y-102082600D02*
X159537400Y-99669600D01*
X184302400Y-104419400D02*
X186563000Y-106680000D01*
X184302400Y-100533200D02*
X184302400Y-104419400D01*
X183235600Y-99466400D02*
X184302400Y-100533200D01*
X183235600Y-98196400D02*
X183235600Y-99466400D01*
X182143400Y-97104200D02*
X183235600Y-98196400D01*
X181635400Y-97104200D02*
X182143400Y-97104200D01*
X180769802Y-97969798D02*
X181635400Y-97104200D01*
X177932934Y-97969798D02*
X180769802Y-97969798D01*
X177497198Y-98405534D02*
X177932934Y-97969798D01*
X177497198Y-99034600D02*
X177497198Y-98405534D01*
X177319398Y-99212400D02*
X177497198Y-99034600D01*
X175818800Y-99212400D02*
X177319398Y-99212400D01*
X175310800Y-99720400D02*
X175818800Y-99212400D01*
D20*
X178562000Y-102793800D02*
X179324000Y-103555800D01*
X179324000Y-103555800D02*
X179324000Y-103802400D01*
D19*
X179324000Y-103802400D02*
X182034400Y-103802400D01*
X182034400Y-103802400D02*
X182372000Y-104140000D01*
X179324000Y-99702400D02*
X181983600Y-99702400D01*
X181983600Y-99702400D02*
X182372000Y-99314000D01*
D20*
X177172400Y-101854000D02*
X179324000Y-99702400D01*
X175031400Y-101854000D02*
X177172400Y-101854000D01*
X175006000Y-101879400D02*
X175031400Y-101854000D01*
X174574200Y-106426000D02*
X174574200Y-108508800D01*
X171805600Y-103759000D02*
X174574200Y-106426000D01*
X174574200Y-108508800D02*
X173990000Y-109093000D01*
X174879002Y-107696002D02*
X176530000Y-109347000D01*
X174879002Y-105994202D02*
X174879002Y-107696002D01*
X172008800Y-103124000D02*
X174879002Y-105994202D01*
X171526200Y-102946200D02*
X172008800Y-103124000D01*
X171323000Y-102743000D02*
X171526200Y-102946200D01*
X174726600Y-103606600D02*
X176123600Y-105003600D01*
X181584600Y-98323400D02*
X181965600Y-97942400D01*
X178079400Y-98323400D02*
X181584600Y-98323400D01*
X177850800Y-98552000D02*
X178079400Y-98323400D01*
X177850800Y-100482400D02*
X177850800Y-98552000D01*
X176784002Y-101549198D02*
X177850800Y-100482400D01*
X175666400Y-101549198D02*
X176784002Y-101549198D01*
X175310802Y-101193600D02*
X175666400Y-101549198D01*
X174955200Y-101193600D02*
X175310802Y-101193600D01*
X174752000Y-100990400D02*
X174955200Y-101193600D01*
X177469800Y-105206800D02*
X180390800Y-105206800D01*
X180390800Y-105206800D02*
X181203600Y-106019600D01*
X177165000Y-104902000D02*
X177469800Y-105206800D01*
X177165000Y-102913178D02*
X177165000Y-104902000D01*
X171932600Y-101219734D02*
X173316165Y-102603299D01*
X176855121Y-102603299D02*
X177165000Y-102913178D01*
X173316165Y-102603299D02*
X176855121Y-102603299D01*
X171932600Y-101193600D02*
X171932600Y-101219734D01*
X179274800Y-106095800D02*
X181127400Y-106095800D01*
X181127400Y-106095800D02*
X181203600Y-106019600D01*
X171932600Y-101193600D02*
X171958000Y-99390200D01*
X178095264Y-97307400D02*
X178130200Y-97307400D01*
X177143596Y-98259068D02*
X178095264Y-97307400D01*
X177143596Y-98653600D02*
X177143596Y-98259068D01*
X176940396Y-98856800D02*
X177143596Y-98653600D01*
X174955200Y-98856800D02*
X176940396Y-98856800D01*
X174701200Y-99110800D02*
X174955200Y-98856800D01*
X177317398Y-95605602D02*
X179070000Y-93853000D01*
X168071798Y-95605602D02*
X177317398Y-95605602D01*
X167792400Y-95885000D02*
X168071798Y-95605602D01*
X175336200Y-95300800D02*
X176530000Y-94107000D01*
X167259000Y-95300800D02*
X175336200Y-95300800D01*
X166979600Y-95580200D02*
X167259000Y-95300800D01*
X179781204Y-107518204D02*
X181610000Y-109347000D01*
X176937892Y-107518204D02*
X179781204Y-107518204D01*
X171488844Y-102069156D02*
X176937892Y-107518204D01*
X170166556Y-102069156D02*
X171488844Y-102069156D01*
X169824400Y-101727000D02*
X170166556Y-102069156D01*
X169824400Y-100330000D02*
X169824400Y-101727000D01*
X169468800Y-99974400D02*
X169824400Y-100330000D01*
X185470800Y-95326200D02*
X186690000Y-94107000D01*
X178027856Y-95326200D02*
X185470800Y-95326200D01*
X177443652Y-95910404D02*
X178027856Y-95326200D01*
X175234600Y-95910404D02*
X177443652Y-95910404D01*
X173499887Y-97645117D02*
X175234600Y-95910404D01*
X168089683Y-97645117D02*
X173499887Y-97645117D01*
X166268400Y-99466400D02*
X168089683Y-97645117D01*
X170688000Y-100584000D02*
X171145200Y-101041200D01*
X171145200Y-101041200D02*
X171323000Y-101041200D01*
X171323000Y-101041200D02*
X177190400Y-106908600D01*
X177190400Y-106908600D02*
X184251600Y-106908600D01*
X186690000Y-109347000D02*
X184251600Y-106908600D01*
X184150000Y-107924602D02*
X183438800Y-107213402D01*
X183438800Y-107213402D02*
X177064146Y-107213402D01*
X177064146Y-107213402D02*
X171272572Y-101421828D01*
X171272572Y-101421828D02*
X171246426Y-101421828D01*
X171246426Y-101421828D02*
X171246054Y-101422200D01*
X171246054Y-101422200D02*
X170484800Y-101422200D01*
X184150000Y-109093000D02*
X184150000Y-107924602D01*
X162661600Y-99161600D02*
X162661600Y-95478600D01*
X162661600Y-95478600D02*
X161290000Y-94107000D01*
X162661600Y-100965000D02*
X162661600Y-99161600D01*
X162687000Y-100990400D02*
X162661600Y-100965000D01*
X163398200Y-98755200D02*
X163398200Y-97028000D01*
X163398200Y-97028000D02*
X163093400Y-96723200D01*
X163093400Y-96723200D02*
X163093400Y-94589600D01*
X163093400Y-94589600D02*
X163830000Y-93853000D01*
X163398200Y-101498400D02*
X163398200Y-98755200D01*
X163220400Y-101676200D02*
X163398200Y-101498400D01*
X185369200Y-97599500D02*
X186728100Y-98958400D01*
X185369200Y-97053400D02*
X185369200Y-97599500D01*
X184251604Y-95935804D02*
X185369200Y-97053400D01*
X178280364Y-95935804D02*
X184251604Y-95935804D01*
X177696160Y-96520008D02*
X178280364Y-95935804D01*
X175487108Y-96520008D02*
X177696160Y-96520008D01*
X173752395Y-98254721D02*
X175487108Y-96520008D01*
X168342191Y-98254721D02*
X173752395Y-98254721D01*
X168097200Y-98499712D02*
X168342191Y-98254721D01*
X168097200Y-102260400D02*
X168097200Y-98499712D01*
X167665400Y-102692200D02*
X168097200Y-102260400D01*
X166446200Y-102692200D02*
X167665400Y-102692200D01*
X185661302Y-95631002D02*
X186651900Y-96621600D01*
X178154110Y-95631002D02*
X185661302Y-95631002D01*
X177569906Y-96215206D02*
X178154110Y-95631002D01*
X175360854Y-96215206D02*
X177569906Y-96215206D01*
X173626141Y-97949919D02*
X175360854Y-96215206D01*
X168215937Y-97949919D02*
X173626141Y-97949919D01*
X167626928Y-98538928D02*
X168215937Y-97949919D01*
X167626928Y-101892472D02*
X167626928Y-98538928D01*
X167462200Y-102057200D02*
X167626928Y-101892472D01*
X159080200Y-105511600D02*
X160223200Y-105511600D01*
X164820600Y-107797600D02*
X166370000Y-109347000D01*
X162509200Y-107797600D02*
X164820600Y-107797600D01*
X160223200Y-105511600D02*
X162509200Y-107797600D01*
X157556200Y-105511600D02*
X157556200Y-103632000D01*
X158750000Y-102438200D02*
X157556200Y-103632000D01*
X176809400Y-105638600D02*
X176834800Y-105638600D01*
X177292000Y-106095800D02*
X178458800Y-106095800D01*
X176834800Y-105638600D02*
X177292000Y-106095800D01*
X178663600Y-106095800D02*
X178728699Y-106030701D01*
X176809400Y-105638600D02*
X176809400Y-103403400D01*
X176809400Y-103403400D02*
X176580800Y-103174800D01*
X169570400Y-107353100D02*
X172529500Y-107378500D01*
X169545000Y-107378500D02*
X169570400Y-107353100D01*
D21*
G36*
X157318968Y-95036363D02*
X157579580Y-94945077D01*
X157666491Y-94709029D01*
X157972037Y-95015108D01*
X158475975Y-95224361D01*
X159021631Y-95224837D01*
X159242954Y-95133388D01*
X160428400Y-96318834D01*
X160428400Y-97606704D01*
X160379624Y-97655395D01*
X160261435Y-97940027D01*
X160261166Y-98248221D01*
X160378859Y-98533059D01*
X160479200Y-98633576D01*
X160479200Y-98793257D01*
X160374579Y-98793166D01*
X160089741Y-98910859D01*
X159871624Y-99128595D01*
X159753435Y-99413227D01*
X159753166Y-99721421D01*
X159870859Y-100006259D01*
X160088595Y-100224376D01*
X160373227Y-100342565D01*
X160515255Y-100342689D01*
X161495200Y-101322634D01*
X161495200Y-103093193D01*
X161395624Y-103192595D01*
X161277435Y-103477227D01*
X161277166Y-103785421D01*
X161394859Y-104070259D01*
X161612595Y-104288376D01*
X161897227Y-104406565D01*
X162205421Y-104406834D01*
X162490259Y-104289141D01*
X162708376Y-104071405D01*
X162826565Y-103786773D01*
X162826834Y-103478579D01*
X162709141Y-103193741D01*
X162608800Y-103093224D01*
X162608800Y-102160080D01*
X162780995Y-102332576D01*
X163065627Y-102450765D01*
X163373821Y-102451034D01*
X163658659Y-102333341D01*
X163876776Y-102115605D01*
X163994965Y-101830973D01*
X163995234Y-101522779D01*
X163906200Y-101307301D01*
X163906200Y-97028000D01*
X163867531Y-96833597D01*
X163867531Y-96833596D01*
X163757410Y-96668790D01*
X163601400Y-96512780D01*
X163601400Y-95224401D01*
X164101631Y-95224837D01*
X164605934Y-95016464D01*
X164992108Y-94630963D01*
X165047402Y-94497799D01*
X165206536Y-94882934D01*
X165592037Y-95269108D01*
X166095975Y-95478361D01*
X166204989Y-95478456D01*
X166204766Y-95733621D01*
X166322459Y-96018459D01*
X166540195Y-96236576D01*
X166824827Y-96354765D01*
X167133021Y-96355034D01*
X167157062Y-96345100D01*
X167352995Y-96541376D01*
X167637627Y-96659565D01*
X167945821Y-96659834D01*
X168230659Y-96542141D01*
X168448776Y-96324405D01*
X168536309Y-96113602D01*
X173190984Y-96113602D01*
X173139235Y-96238227D01*
X173139161Y-96322736D01*
X172657305Y-96734715D01*
X167596486Y-96734715D01*
X167383408Y-96777099D01*
X167202769Y-96897798D01*
X166689567Y-97411000D01*
X166070607Y-97411000D01*
X165971205Y-97311424D01*
X165686573Y-97193235D01*
X165378379Y-97192966D01*
X165093541Y-97310659D01*
X164875424Y-97528395D01*
X164757235Y-97813027D01*
X164756966Y-98121221D01*
X164874659Y-98406059D01*
X165092395Y-98624176D01*
X165377027Y-98742365D01*
X165685221Y-98742634D01*
X165970059Y-98624941D01*
X166070576Y-98524600D01*
X166491780Y-98524600D01*
X166324631Y-98691749D01*
X166114979Y-98691566D01*
X165830141Y-98809259D01*
X165612024Y-99026995D01*
X165493835Y-99311627D01*
X165493566Y-99619821D01*
X165611259Y-99904659D01*
X165828995Y-100122776D01*
X166113627Y-100240965D01*
X166421821Y-100241234D01*
X166706659Y-100123541D01*
X166924776Y-99905805D01*
X167042965Y-99621173D01*
X167043149Y-99410071D01*
X167118928Y-99334292D01*
X167118928Y-101360811D01*
X167023941Y-101400059D01*
X166805824Y-101617795D01*
X166687635Y-101902427D01*
X166687590Y-101953601D01*
X166600973Y-101917635D01*
X166292779Y-101917366D01*
X166007941Y-102035059D01*
X165789824Y-102252795D01*
X165671635Y-102537427D01*
X165671366Y-102845621D01*
X165789059Y-103130459D01*
X165846042Y-103187542D01*
X165637424Y-103395795D01*
X165519235Y-103680427D01*
X165518966Y-103988621D01*
X165636659Y-104273459D01*
X165854395Y-104491576D01*
X166139027Y-104609765D01*
X166447221Y-104610034D01*
X166732059Y-104492341D01*
X166858020Y-104366600D01*
X168498193Y-104366600D01*
X168597595Y-104466176D01*
X168882227Y-104584365D01*
X169190421Y-104584634D01*
X169475259Y-104466941D01*
X169693376Y-104249205D01*
X169811565Y-103964573D01*
X169811834Y-103656379D01*
X169694141Y-103371541D01*
X169476405Y-103153424D01*
X169191773Y-103035235D01*
X168883579Y-103034966D01*
X168598741Y-103152659D01*
X168498224Y-103253000D01*
X166980969Y-103253000D01*
X167033861Y-103200200D01*
X167665400Y-103200200D01*
X167859803Y-103161531D01*
X168024610Y-103051410D01*
X168456410Y-102619611D01*
X168566531Y-102454804D01*
X168580656Y-102383790D01*
X168605200Y-102260400D01*
X168605200Y-98762721D01*
X171490027Y-98762721D01*
X171301624Y-98950795D01*
X171183435Y-99235427D01*
X171183166Y-99543621D01*
X171300859Y-99828459D01*
X171441788Y-99969635D01*
X171436204Y-100366129D01*
X171345141Y-100145741D01*
X171127405Y-99927624D01*
X170842773Y-99809435D01*
X170534579Y-99809166D01*
X170249741Y-99926859D01*
X170243536Y-99933053D01*
X170243634Y-99820979D01*
X170125941Y-99536141D01*
X169908205Y-99318024D01*
X169623573Y-99199835D01*
X169315379Y-99199566D01*
X169030541Y-99317259D01*
X168812424Y-99534995D01*
X168694235Y-99819627D01*
X168693966Y-100127821D01*
X168811659Y-100412659D01*
X169029395Y-100630776D01*
X169314027Y-100748965D01*
X169316400Y-100748967D01*
X169316400Y-101727000D01*
X169355069Y-101921403D01*
X169465190Y-102086210D01*
X169807346Y-102428366D01*
X169972153Y-102538487D01*
X170166556Y-102577156D01*
X170553032Y-102577156D01*
X170548435Y-102588227D01*
X170548166Y-102896421D01*
X170665859Y-103181259D01*
X170883595Y-103399376D01*
X171081904Y-103481721D01*
X171031035Y-103604227D01*
X171030766Y-103912421D01*
X171148459Y-104197259D01*
X171366195Y-104415376D01*
X171650827Y-104533565D01*
X171877645Y-104533763D01*
X174066200Y-106642004D01*
X174066200Y-107721466D01*
X173718369Y-107721163D01*
X173214066Y-107929536D01*
X172827892Y-108315037D01*
X172667388Y-108701573D01*
X172613464Y-108571066D01*
X172227963Y-108184892D01*
X171724025Y-107975639D01*
X171178369Y-107975163D01*
X170674066Y-108183536D01*
X170287892Y-108569037D01*
X170232598Y-108702201D01*
X170073464Y-108317066D01*
X169848227Y-108091435D01*
X169983259Y-108035641D01*
X170153077Y-107866120D01*
X171936919Y-107881432D01*
X172090095Y-108034876D01*
X172374727Y-108153065D01*
X172682921Y-108153334D01*
X172967759Y-108035641D01*
X173185876Y-107817905D01*
X173304065Y-107533273D01*
X173304334Y-107225079D01*
X173186641Y-106940241D01*
X172968905Y-106722124D01*
X172684273Y-106603935D01*
X172376079Y-106603666D01*
X172091241Y-106721359D01*
X171946867Y-106865480D01*
X170111787Y-106849729D01*
X169984405Y-106722124D01*
X169699773Y-106603935D01*
X169391579Y-106603666D01*
X169106741Y-106721359D01*
X168888624Y-106939095D01*
X168770435Y-107223727D01*
X168770166Y-107531921D01*
X168848435Y-107721346D01*
X168638369Y-107721163D01*
X168134066Y-107929536D01*
X167747892Y-108315037D01*
X167587388Y-108701573D01*
X167533464Y-108571066D01*
X167147963Y-108184892D01*
X166644025Y-107975639D01*
X166098369Y-107975163D01*
X165828210Y-108086790D01*
X165179810Y-107438390D01*
X165015003Y-107328269D01*
X164820600Y-107289600D01*
X162719620Y-107289600D01*
X160582410Y-105152390D01*
X160417603Y-105042269D01*
X160223200Y-105003600D01*
X159837959Y-105003600D01*
X159837959Y-104940100D01*
X159807850Y-104780085D01*
X159713281Y-104633120D01*
X159568985Y-104534527D01*
X159397700Y-104499841D01*
X158762700Y-104499841D01*
X158602685Y-104529950D01*
X158455720Y-104624519D01*
X158357127Y-104768815D01*
X158322441Y-104940100D01*
X158322441Y-106083100D01*
X158352550Y-106243115D01*
X158447119Y-106390080D01*
X158591415Y-106488673D01*
X158762700Y-106523359D01*
X159397700Y-106523359D01*
X159557715Y-106493250D01*
X159704680Y-106398681D01*
X159803273Y-106254385D01*
X159837959Y-106083100D01*
X159837959Y-106019600D01*
X160012780Y-106019600D01*
X162149990Y-108156810D01*
X162314796Y-108266931D01*
X162509200Y-108305600D01*
X162677345Y-108305600D01*
X162667892Y-108315037D01*
X162507388Y-108701573D01*
X162453464Y-108571066D01*
X162067963Y-108184892D01*
X161564025Y-107975639D01*
X161018369Y-107975163D01*
X160514066Y-108183536D01*
X160127892Y-108569037D01*
X160072598Y-108702201D01*
X159913464Y-108317066D01*
X159527963Y-107930892D01*
X159024025Y-107721639D01*
X158478369Y-107721163D01*
X157974066Y-107929536D01*
X157587892Y-108315037D01*
X157427388Y-108701573D01*
X157373464Y-108571066D01*
X156987963Y-108184892D01*
X156484025Y-107975639D01*
X155938369Y-107975163D01*
X155434066Y-108183536D01*
X155134060Y-108483019D01*
X155039580Y-108254923D01*
X154778968Y-108163637D01*
X153849605Y-109093000D01*
X153490395Y-109093000D01*
X153476253Y-109078858D01*
X153655858Y-108899253D01*
X153670000Y-108913395D01*
X154599363Y-107984032D01*
X154508077Y-107723420D01*
X153920167Y-107506955D01*
X153294172Y-107531951D01*
X152906800Y-107692405D01*
X152906800Y-105739631D01*
X153368964Y-105931538D01*
X153968406Y-105932061D01*
X154522419Y-105703148D01*
X154946658Y-105279648D01*
X155087650Y-104940100D01*
X156798441Y-104940100D01*
X156798441Y-106083100D01*
X156828550Y-106243115D01*
X156923119Y-106390080D01*
X157067415Y-106488673D01*
X157238700Y-106523359D01*
X157873700Y-106523359D01*
X158033715Y-106493250D01*
X158180680Y-106398681D01*
X158279273Y-106254385D01*
X158313959Y-106083100D01*
X158313959Y-104940100D01*
X158283850Y-104780085D01*
X158189281Y-104633120D01*
X158064200Y-104547656D01*
X158064200Y-103842420D01*
X158693769Y-103212851D01*
X158903421Y-103213034D01*
X159188259Y-103095341D01*
X159406376Y-102877605D01*
X159524565Y-102592973D01*
X159524834Y-102284779D01*
X159407141Y-101999941D01*
X159189405Y-101781824D01*
X158904773Y-101663635D01*
X158596579Y-101663366D01*
X158311741Y-101781059D01*
X158093624Y-101998795D01*
X157975435Y-102283427D01*
X157975251Y-102494529D01*
X157196990Y-103272790D01*
X157086869Y-103437597D01*
X157048200Y-103632000D01*
X157048200Y-104549566D01*
X156931720Y-104624519D01*
X156833127Y-104768815D01*
X156798441Y-104940100D01*
X155087650Y-104940100D01*
X155176538Y-104726036D01*
X155177061Y-104126594D01*
X154996654Y-103689974D01*
X155113078Y-103689974D01*
X155220455Y-103949847D01*
X155419107Y-104148846D01*
X155678792Y-104256677D01*
X155959974Y-104256922D01*
X156219847Y-104149545D01*
X156418846Y-103950893D01*
X156526677Y-103691208D01*
X156526922Y-103410026D01*
X156419545Y-103150153D01*
X156220893Y-102951154D01*
X155961208Y-102843323D01*
X155680026Y-102843078D01*
X155420153Y-102950455D01*
X155221154Y-103149107D01*
X155113323Y-103408792D01*
X155113078Y-103689974D01*
X154996654Y-103689974D01*
X154948148Y-103572581D01*
X154524648Y-103148342D01*
X153971036Y-102918462D01*
X153371594Y-102917939D01*
X152906800Y-103109988D01*
X152906800Y-100089631D01*
X153368964Y-100281538D01*
X153968406Y-100282061D01*
X154522419Y-100053148D01*
X154786052Y-99789974D01*
X155113078Y-99789974D01*
X155220455Y-100049847D01*
X155419107Y-100248846D01*
X155678792Y-100356677D01*
X155959974Y-100356922D01*
X156219847Y-100249545D01*
X156418846Y-100050893D01*
X156526677Y-99791208D01*
X156526922Y-99510026D01*
X156419545Y-99250153D01*
X156220893Y-99051154D01*
X155961208Y-98943323D01*
X155680026Y-98943078D01*
X155420153Y-99050455D01*
X155221154Y-99249107D01*
X155113323Y-99508792D01*
X155113078Y-99789974D01*
X154786052Y-99789974D01*
X154946658Y-99629648D01*
X155176538Y-99076036D01*
X155177061Y-98476594D01*
X154948148Y-97922581D01*
X154524648Y-97498342D01*
X153971036Y-97268462D01*
X153371594Y-97267939D01*
X152906800Y-97459988D01*
X152906800Y-96543929D01*
X154838400Y-96543929D01*
X154838400Y-96597671D01*
X154942807Y-97122560D01*
X155240132Y-97567539D01*
X155685111Y-97864864D01*
X156210000Y-97969271D01*
X156734889Y-97864864D01*
X157179868Y-97567539D01*
X157477193Y-97122560D01*
X157581600Y-96597671D01*
X157581600Y-96543929D01*
X157477193Y-96019040D01*
X157179868Y-95574061D01*
X157039373Y-95480185D01*
X157048077Y-95476580D01*
X157139363Y-95215968D01*
X156210000Y-94286605D01*
X155280637Y-95215968D01*
X155371923Y-95476580D01*
X155381014Y-95479927D01*
X155240132Y-95574061D01*
X154942807Y-96019040D01*
X154838400Y-96543929D01*
X152906800Y-96543929D01*
X152906800Y-95021238D01*
X153395975Y-95224361D01*
X153941631Y-95224837D01*
X154445934Y-95016464D01*
X154745940Y-94716981D01*
X154840420Y-94945077D01*
X155101032Y-95036363D01*
X156030395Y-94107000D01*
X156389605Y-94107000D01*
X157318968Y-95036363D01*
X157318968Y-95036363D01*
G37*
X157318968Y-95036363D02*
X157579580Y-94945077D01*
X157666491Y-94709029D01*
X157972037Y-95015108D01*
X158475975Y-95224361D01*
X159021631Y-95224837D01*
X159242954Y-95133388D01*
X160428400Y-96318834D01*
X160428400Y-97606704D01*
X160379624Y-97655395D01*
X160261435Y-97940027D01*
X160261166Y-98248221D01*
X160378859Y-98533059D01*
X160479200Y-98633576D01*
X160479200Y-98793257D01*
X160374579Y-98793166D01*
X160089741Y-98910859D01*
X159871624Y-99128595D01*
X159753435Y-99413227D01*
X159753166Y-99721421D01*
X159870859Y-100006259D01*
X160088595Y-100224376D01*
X160373227Y-100342565D01*
X160515255Y-100342689D01*
X161495200Y-101322634D01*
X161495200Y-103093193D01*
X161395624Y-103192595D01*
X161277435Y-103477227D01*
X161277166Y-103785421D01*
X161394859Y-104070259D01*
X161612595Y-104288376D01*
X161897227Y-104406565D01*
X162205421Y-104406834D01*
X162490259Y-104289141D01*
X162708376Y-104071405D01*
X162826565Y-103786773D01*
X162826834Y-103478579D01*
X162709141Y-103193741D01*
X162608800Y-103093224D01*
X162608800Y-102160080D01*
X162780995Y-102332576D01*
X163065627Y-102450765D01*
X163373821Y-102451034D01*
X163658659Y-102333341D01*
X163876776Y-102115605D01*
X163994965Y-101830973D01*
X163995234Y-101522779D01*
X163906200Y-101307301D01*
X163906200Y-97028000D01*
X163867531Y-96833597D01*
X163867531Y-96833596D01*
X163757410Y-96668790D01*
X163601400Y-96512780D01*
X163601400Y-95224401D01*
X164101631Y-95224837D01*
X164605934Y-95016464D01*
X164992108Y-94630963D01*
X165047402Y-94497799D01*
X165206536Y-94882934D01*
X165592037Y-95269108D01*
X166095975Y-95478361D01*
X166204989Y-95478456D01*
X166204766Y-95733621D01*
X166322459Y-96018459D01*
X166540195Y-96236576D01*
X166824827Y-96354765D01*
X167133021Y-96355034D01*
X167157062Y-96345100D01*
X167352995Y-96541376D01*
X167637627Y-96659565D01*
X167945821Y-96659834D01*
X168230659Y-96542141D01*
X168448776Y-96324405D01*
X168536309Y-96113602D01*
X173190984Y-96113602D01*
X173139235Y-96238227D01*
X173139161Y-96322736D01*
X172657305Y-96734715D01*
X167596486Y-96734715D01*
X167383408Y-96777099D01*
X167202769Y-96897798D01*
X166689567Y-97411000D01*
X166070607Y-97411000D01*
X165971205Y-97311424D01*
X165686573Y-97193235D01*
X165378379Y-97192966D01*
X165093541Y-97310659D01*
X164875424Y-97528395D01*
X164757235Y-97813027D01*
X164756966Y-98121221D01*
X164874659Y-98406059D01*
X165092395Y-98624176D01*
X165377027Y-98742365D01*
X165685221Y-98742634D01*
X165970059Y-98624941D01*
X166070576Y-98524600D01*
X166491780Y-98524600D01*
X166324631Y-98691749D01*
X166114979Y-98691566D01*
X165830141Y-98809259D01*
X165612024Y-99026995D01*
X165493835Y-99311627D01*
X165493566Y-99619821D01*
X165611259Y-99904659D01*
X165828995Y-100122776D01*
X166113627Y-100240965D01*
X166421821Y-100241234D01*
X166706659Y-100123541D01*
X166924776Y-99905805D01*
X167042965Y-99621173D01*
X167043149Y-99410071D01*
X167118928Y-99334292D01*
X167118928Y-101360811D01*
X167023941Y-101400059D01*
X166805824Y-101617795D01*
X166687635Y-101902427D01*
X166687590Y-101953601D01*
X166600973Y-101917635D01*
X166292779Y-101917366D01*
X166007941Y-102035059D01*
X165789824Y-102252795D01*
X165671635Y-102537427D01*
X165671366Y-102845621D01*
X165789059Y-103130459D01*
X165846042Y-103187542D01*
X165637424Y-103395795D01*
X165519235Y-103680427D01*
X165518966Y-103988621D01*
X165636659Y-104273459D01*
X165854395Y-104491576D01*
X166139027Y-104609765D01*
X166447221Y-104610034D01*
X166732059Y-104492341D01*
X166858020Y-104366600D01*
X168498193Y-104366600D01*
X168597595Y-104466176D01*
X168882227Y-104584365D01*
X169190421Y-104584634D01*
X169475259Y-104466941D01*
X169693376Y-104249205D01*
X169811565Y-103964573D01*
X169811834Y-103656379D01*
X169694141Y-103371541D01*
X169476405Y-103153424D01*
X169191773Y-103035235D01*
X168883579Y-103034966D01*
X168598741Y-103152659D01*
X168498224Y-103253000D01*
X166980969Y-103253000D01*
X167033861Y-103200200D01*
X167665400Y-103200200D01*
X167859803Y-103161531D01*
X168024610Y-103051410D01*
X168456410Y-102619611D01*
X168566531Y-102454804D01*
X168580656Y-102383790D01*
X168605200Y-102260400D01*
X168605200Y-98762721D01*
X171490027Y-98762721D01*
X171301624Y-98950795D01*
X171183435Y-99235427D01*
X171183166Y-99543621D01*
X171300859Y-99828459D01*
X171441788Y-99969635D01*
X171436204Y-100366129D01*
X171345141Y-100145741D01*
X171127405Y-99927624D01*
X170842773Y-99809435D01*
X170534579Y-99809166D01*
X170249741Y-99926859D01*
X170243536Y-99933053D01*
X170243634Y-99820979D01*
X170125941Y-99536141D01*
X169908205Y-99318024D01*
X169623573Y-99199835D01*
X169315379Y-99199566D01*
X169030541Y-99317259D01*
X168812424Y-99534995D01*
X168694235Y-99819627D01*
X168693966Y-100127821D01*
X168811659Y-100412659D01*
X169029395Y-100630776D01*
X169314027Y-100748965D01*
X169316400Y-100748967D01*
X169316400Y-101727000D01*
X169355069Y-101921403D01*
X169465190Y-102086210D01*
X169807346Y-102428366D01*
X169972153Y-102538487D01*
X170166556Y-102577156D01*
X170553032Y-102577156D01*
X170548435Y-102588227D01*
X170548166Y-102896421D01*
X170665859Y-103181259D01*
X170883595Y-103399376D01*
X171081904Y-103481721D01*
X171031035Y-103604227D01*
X171030766Y-103912421D01*
X171148459Y-104197259D01*
X171366195Y-104415376D01*
X171650827Y-104533565D01*
X171877645Y-104533763D01*
X174066200Y-106642004D01*
X174066200Y-107721466D01*
X173718369Y-107721163D01*
X173214066Y-107929536D01*
X172827892Y-108315037D01*
X172667388Y-108701573D01*
X172613464Y-108571066D01*
X172227963Y-108184892D01*
X171724025Y-107975639D01*
X171178369Y-107975163D01*
X170674066Y-108183536D01*
X170287892Y-108569037D01*
X170232598Y-108702201D01*
X170073464Y-108317066D01*
X169848227Y-108091435D01*
X169983259Y-108035641D01*
X170153077Y-107866120D01*
X171936919Y-107881432D01*
X172090095Y-108034876D01*
X172374727Y-108153065D01*
X172682921Y-108153334D01*
X172967759Y-108035641D01*
X173185876Y-107817905D01*
X173304065Y-107533273D01*
X173304334Y-107225079D01*
X173186641Y-106940241D01*
X172968905Y-106722124D01*
X172684273Y-106603935D01*
X172376079Y-106603666D01*
X172091241Y-106721359D01*
X171946867Y-106865480D01*
X170111787Y-106849729D01*
X169984405Y-106722124D01*
X169699773Y-106603935D01*
X169391579Y-106603666D01*
X169106741Y-106721359D01*
X168888624Y-106939095D01*
X168770435Y-107223727D01*
X168770166Y-107531921D01*
X168848435Y-107721346D01*
X168638369Y-107721163D01*
X168134066Y-107929536D01*
X167747892Y-108315037D01*
X167587388Y-108701573D01*
X167533464Y-108571066D01*
X167147963Y-108184892D01*
X166644025Y-107975639D01*
X166098369Y-107975163D01*
X165828210Y-108086790D01*
X165179810Y-107438390D01*
X165015003Y-107328269D01*
X164820600Y-107289600D01*
X162719620Y-107289600D01*
X160582410Y-105152390D01*
X160417603Y-105042269D01*
X160223200Y-105003600D01*
X159837959Y-105003600D01*
X159837959Y-104940100D01*
X159807850Y-104780085D01*
X159713281Y-104633120D01*
X159568985Y-104534527D01*
X159397700Y-104499841D01*
X158762700Y-104499841D01*
X158602685Y-104529950D01*
X158455720Y-104624519D01*
X158357127Y-104768815D01*
X158322441Y-104940100D01*
X158322441Y-106083100D01*
X158352550Y-106243115D01*
X158447119Y-106390080D01*
X158591415Y-106488673D01*
X158762700Y-106523359D01*
X159397700Y-106523359D01*
X159557715Y-106493250D01*
X159704680Y-106398681D01*
X159803273Y-106254385D01*
X159837959Y-106083100D01*
X159837959Y-106019600D01*
X160012780Y-106019600D01*
X162149990Y-108156810D01*
X162314796Y-108266931D01*
X162509200Y-108305600D01*
X162677345Y-108305600D01*
X162667892Y-108315037D01*
X162507388Y-108701573D01*
X162453464Y-108571066D01*
X162067963Y-108184892D01*
X161564025Y-107975639D01*
X161018369Y-107975163D01*
X160514066Y-108183536D01*
X160127892Y-108569037D01*
X160072598Y-108702201D01*
X159913464Y-108317066D01*
X159527963Y-107930892D01*
X159024025Y-107721639D01*
X158478369Y-107721163D01*
X157974066Y-107929536D01*
X157587892Y-108315037D01*
X157427388Y-108701573D01*
X157373464Y-108571066D01*
X156987963Y-108184892D01*
X156484025Y-107975639D01*
X155938369Y-107975163D01*
X155434066Y-108183536D01*
X155134060Y-108483019D01*
X155039580Y-108254923D01*
X154778968Y-108163637D01*
X153849605Y-109093000D01*
X153490395Y-109093000D01*
X153476253Y-109078858D01*
X153655858Y-108899253D01*
X153670000Y-108913395D01*
X154599363Y-107984032D01*
X154508077Y-107723420D01*
X153920167Y-107506955D01*
X153294172Y-107531951D01*
X152906800Y-107692405D01*
X152906800Y-105739631D01*
X153368964Y-105931538D01*
X153968406Y-105932061D01*
X154522419Y-105703148D01*
X154946658Y-105279648D01*
X155087650Y-104940100D01*
X156798441Y-104940100D01*
X156798441Y-106083100D01*
X156828550Y-106243115D01*
X156923119Y-106390080D01*
X157067415Y-106488673D01*
X157238700Y-106523359D01*
X157873700Y-106523359D01*
X158033715Y-106493250D01*
X158180680Y-106398681D01*
X158279273Y-106254385D01*
X158313959Y-106083100D01*
X158313959Y-104940100D01*
X158283850Y-104780085D01*
X158189281Y-104633120D01*
X158064200Y-104547656D01*
X158064200Y-103842420D01*
X158693769Y-103212851D01*
X158903421Y-103213034D01*
X159188259Y-103095341D01*
X159406376Y-102877605D01*
X159524565Y-102592973D01*
X159524834Y-102284779D01*
X159407141Y-101999941D01*
X159189405Y-101781824D01*
X158904773Y-101663635D01*
X158596579Y-101663366D01*
X158311741Y-101781059D01*
X158093624Y-101998795D01*
X157975435Y-102283427D01*
X157975251Y-102494529D01*
X157196990Y-103272790D01*
X157086869Y-103437597D01*
X157048200Y-103632000D01*
X157048200Y-104549566D01*
X156931720Y-104624519D01*
X156833127Y-104768815D01*
X156798441Y-104940100D01*
X155087650Y-104940100D01*
X155176538Y-104726036D01*
X155177061Y-104126594D01*
X154996654Y-103689974D01*
X155113078Y-103689974D01*
X155220455Y-103949847D01*
X155419107Y-104148846D01*
X155678792Y-104256677D01*
X155959974Y-104256922D01*
X156219847Y-104149545D01*
X156418846Y-103950893D01*
X156526677Y-103691208D01*
X156526922Y-103410026D01*
X156419545Y-103150153D01*
X156220893Y-102951154D01*
X155961208Y-102843323D01*
X155680026Y-102843078D01*
X155420153Y-102950455D01*
X155221154Y-103149107D01*
X155113323Y-103408792D01*
X155113078Y-103689974D01*
X154996654Y-103689974D01*
X154948148Y-103572581D01*
X154524648Y-103148342D01*
X153971036Y-102918462D01*
X153371594Y-102917939D01*
X152906800Y-103109988D01*
X152906800Y-100089631D01*
X153368964Y-100281538D01*
X153968406Y-100282061D01*
X154522419Y-100053148D01*
X154786052Y-99789974D01*
X155113078Y-99789974D01*
X155220455Y-100049847D01*
X155419107Y-100248846D01*
X155678792Y-100356677D01*
X155959974Y-100356922D01*
X156219847Y-100249545D01*
X156418846Y-100050893D01*
X156526677Y-99791208D01*
X156526922Y-99510026D01*
X156419545Y-99250153D01*
X156220893Y-99051154D01*
X155961208Y-98943323D01*
X155680026Y-98943078D01*
X155420153Y-99050455D01*
X155221154Y-99249107D01*
X155113323Y-99508792D01*
X155113078Y-99789974D01*
X154786052Y-99789974D01*
X154946658Y-99629648D01*
X155176538Y-99076036D01*
X155177061Y-98476594D01*
X154948148Y-97922581D01*
X154524648Y-97498342D01*
X153971036Y-97268462D01*
X153371594Y-97267939D01*
X152906800Y-97459988D01*
X152906800Y-96543929D01*
X154838400Y-96543929D01*
X154838400Y-96597671D01*
X154942807Y-97122560D01*
X155240132Y-97567539D01*
X155685111Y-97864864D01*
X156210000Y-97969271D01*
X156734889Y-97864864D01*
X157179868Y-97567539D01*
X157477193Y-97122560D01*
X157581600Y-96597671D01*
X157581600Y-96543929D01*
X157477193Y-96019040D01*
X157179868Y-95574061D01*
X157039373Y-95480185D01*
X157048077Y-95476580D01*
X157139363Y-95215968D01*
X156210000Y-94286605D01*
X155280637Y-95215968D01*
X155371923Y-95476580D01*
X155381014Y-95479927D01*
X155240132Y-95574061D01*
X154942807Y-96019040D01*
X154838400Y-96543929D01*
X152906800Y-96543929D01*
X152906800Y-95021238D01*
X153395975Y-95224361D01*
X153941631Y-95224837D01*
X154445934Y-95016464D01*
X154745940Y-94716981D01*
X154840420Y-94945077D01*
X155101032Y-95036363D01*
X156030395Y-94107000D01*
X156389605Y-94107000D01*
X157318968Y-95036363D01*
G36*
X181165500Y-100394191D02*
X181165500Y-100552250D01*
X181324250Y-100711000D01*
X182245000Y-100711000D01*
X182245000Y-100691000D01*
X182499000Y-100691000D01*
X182499000Y-100711000D01*
X183419750Y-100711000D01*
X183556258Y-100574492D01*
X183745600Y-100763834D01*
X183745600Y-104419400D01*
X183787984Y-104632478D01*
X183908683Y-104813117D01*
X185282565Y-106186999D01*
X185191639Y-106405975D01*
X185191163Y-106951631D01*
X185316577Y-107255157D01*
X184610810Y-106549390D01*
X184446003Y-106439269D01*
X184251600Y-106400600D01*
X181884228Y-106400600D01*
X181978165Y-106174373D01*
X181978434Y-105866179D01*
X181860741Y-105581341D01*
X181643005Y-105363224D01*
X181358373Y-105245035D01*
X181147271Y-105244851D01*
X180887573Y-104985153D01*
X180929573Y-104923685D01*
X180964259Y-104752400D01*
X180964259Y-104359200D01*
X181360241Y-104359200D01*
X181360241Y-104457500D01*
X181390350Y-104617515D01*
X181484919Y-104764480D01*
X181629215Y-104863073D01*
X181800500Y-104897759D01*
X182943500Y-104897759D01*
X183103515Y-104867650D01*
X183250480Y-104773081D01*
X183349073Y-104628785D01*
X183383759Y-104457500D01*
X183383759Y-103822500D01*
X183353650Y-103662485D01*
X183259081Y-103515520D01*
X183235920Y-103499695D01*
X183303199Y-103471827D01*
X183481827Y-103293198D01*
X183578500Y-103059809D01*
X183578500Y-102901750D01*
X183419750Y-102743000D01*
X182499000Y-102743000D01*
X182499000Y-102763000D01*
X182245000Y-102763000D01*
X182245000Y-102743000D01*
X181324250Y-102743000D01*
X181165500Y-102901750D01*
X181165500Y-103059809D01*
X181242457Y-103245600D01*
X180964259Y-103245600D01*
X180964259Y-102852400D01*
X180934150Y-102692385D01*
X180839581Y-102545420D01*
X180695285Y-102446827D01*
X180524000Y-102412141D01*
X179242528Y-102412141D01*
X179219141Y-102355541D01*
X179001405Y-102137424D01*
X178716773Y-102019235D01*
X178408579Y-102018966D01*
X178123741Y-102136659D01*
X177905624Y-102354395D01*
X177834563Y-102525531D01*
X177817020Y-102536819D01*
X177718427Y-102681115D01*
X177683741Y-102852400D01*
X177683741Y-104698800D01*
X177680220Y-104698800D01*
X177673000Y-104691580D01*
X177673000Y-102913178D01*
X177653589Y-102815590D01*
X177634331Y-102718774D01*
X177524210Y-102553968D01*
X177305723Y-102335481D01*
X177366803Y-102323331D01*
X177531610Y-102213210D01*
X178621070Y-101123750D01*
X181165500Y-101123750D01*
X181165500Y-101281809D01*
X181262173Y-101515198D01*
X181440801Y-101693827D01*
X181520888Y-101727000D01*
X181440801Y-101760173D01*
X181262173Y-101938802D01*
X181165500Y-102172191D01*
X181165500Y-102330250D01*
X181324250Y-102489000D01*
X182245000Y-102489000D01*
X182245000Y-101822250D01*
X182149750Y-101727000D01*
X182245000Y-101631750D01*
X182245000Y-100965000D01*
X182499000Y-100965000D01*
X182499000Y-101631750D01*
X182594250Y-101727000D01*
X182499000Y-101822250D01*
X182499000Y-102489000D01*
X183419750Y-102489000D01*
X183578500Y-102330250D01*
X183578500Y-102172191D01*
X183481827Y-101938802D01*
X183303199Y-101760173D01*
X183223112Y-101727000D01*
X183303199Y-101693827D01*
X183481827Y-101515198D01*
X183578500Y-101281809D01*
X183578500Y-101123750D01*
X183419750Y-100965000D01*
X182499000Y-100965000D01*
X182245000Y-100965000D01*
X181324250Y-100965000D01*
X181165500Y-101123750D01*
X178621070Y-101123750D01*
X178652161Y-101092659D01*
X180524000Y-101092659D01*
X180684015Y-101062550D01*
X180830980Y-100967981D01*
X180929573Y-100823685D01*
X180964259Y-100652400D01*
X180964259Y-100259200D01*
X181221415Y-100259200D01*
X181165500Y-100394191D01*
X181165500Y-100394191D01*
G37*
X181165500Y-100394191D02*
X181165500Y-100552250D01*
X181324250Y-100711000D01*
X182245000Y-100711000D01*
X182245000Y-100691000D01*
X182499000Y-100691000D01*
X182499000Y-100711000D01*
X183419750Y-100711000D01*
X183556258Y-100574492D01*
X183745600Y-100763834D01*
X183745600Y-104419400D01*
X183787984Y-104632478D01*
X183908683Y-104813117D01*
X185282565Y-106186999D01*
X185191639Y-106405975D01*
X185191163Y-106951631D01*
X185316577Y-107255157D01*
X184610810Y-106549390D01*
X184446003Y-106439269D01*
X184251600Y-106400600D01*
X181884228Y-106400600D01*
X181978165Y-106174373D01*
X181978434Y-105866179D01*
X181860741Y-105581341D01*
X181643005Y-105363224D01*
X181358373Y-105245035D01*
X181147271Y-105244851D01*
X180887573Y-104985153D01*
X180929573Y-104923685D01*
X180964259Y-104752400D01*
X180964259Y-104359200D01*
X181360241Y-104359200D01*
X181360241Y-104457500D01*
X181390350Y-104617515D01*
X181484919Y-104764480D01*
X181629215Y-104863073D01*
X181800500Y-104897759D01*
X182943500Y-104897759D01*
X183103515Y-104867650D01*
X183250480Y-104773081D01*
X183349073Y-104628785D01*
X183383759Y-104457500D01*
X183383759Y-103822500D01*
X183353650Y-103662485D01*
X183259081Y-103515520D01*
X183235920Y-103499695D01*
X183303199Y-103471827D01*
X183481827Y-103293198D01*
X183578500Y-103059809D01*
X183578500Y-102901750D01*
X183419750Y-102743000D01*
X182499000Y-102743000D01*
X182499000Y-102763000D01*
X182245000Y-102763000D01*
X182245000Y-102743000D01*
X181324250Y-102743000D01*
X181165500Y-102901750D01*
X181165500Y-103059809D01*
X181242457Y-103245600D01*
X180964259Y-103245600D01*
X180964259Y-102852400D01*
X180934150Y-102692385D01*
X180839581Y-102545420D01*
X180695285Y-102446827D01*
X180524000Y-102412141D01*
X179242528Y-102412141D01*
X179219141Y-102355541D01*
X179001405Y-102137424D01*
X178716773Y-102019235D01*
X178408579Y-102018966D01*
X178123741Y-102136659D01*
X177905624Y-102354395D01*
X177834563Y-102525531D01*
X177817020Y-102536819D01*
X177718427Y-102681115D01*
X177683741Y-102852400D01*
X177683741Y-104698800D01*
X177680220Y-104698800D01*
X177673000Y-104691580D01*
X177673000Y-102913178D01*
X177653589Y-102815590D01*
X177634331Y-102718774D01*
X177524210Y-102553968D01*
X177305723Y-102335481D01*
X177366803Y-102323331D01*
X177531610Y-102213210D01*
X178621070Y-101123750D01*
X181165500Y-101123750D01*
X181165500Y-101281809D01*
X181262173Y-101515198D01*
X181440801Y-101693827D01*
X181520888Y-101727000D01*
X181440801Y-101760173D01*
X181262173Y-101938802D01*
X181165500Y-102172191D01*
X181165500Y-102330250D01*
X181324250Y-102489000D01*
X182245000Y-102489000D01*
X182245000Y-101822250D01*
X182149750Y-101727000D01*
X182245000Y-101631750D01*
X182245000Y-100965000D01*
X182499000Y-100965000D01*
X182499000Y-101631750D01*
X182594250Y-101727000D01*
X182499000Y-101822250D01*
X182499000Y-102489000D01*
X183419750Y-102489000D01*
X183578500Y-102330250D01*
X183578500Y-102172191D01*
X183481827Y-101938802D01*
X183303199Y-101760173D01*
X183223112Y-101727000D01*
X183303199Y-101693827D01*
X183481827Y-101515198D01*
X183578500Y-101281809D01*
X183578500Y-101123750D01*
X183419750Y-100965000D01*
X182499000Y-100965000D01*
X182245000Y-100965000D01*
X181324250Y-100965000D01*
X181165500Y-101123750D01*
X178621070Y-101123750D01*
X178652161Y-101092659D01*
X180524000Y-101092659D01*
X180684015Y-101062550D01*
X180830980Y-100967981D01*
X180929573Y-100823685D01*
X180964259Y-100652400D01*
X180964259Y-100259200D01*
X181221415Y-100259200D01*
X181165500Y-100394191D01*
G36*
X184861200Y-97263821D02*
X184861200Y-97599500D01*
X184899869Y-97793903D01*
X185009990Y-97958710D01*
X185467914Y-98416634D01*
X185356739Y-98684375D01*
X185356263Y-99230031D01*
X185564636Y-99734334D01*
X185950137Y-100120508D01*
X185970181Y-100128831D01*
X185724923Y-100230420D01*
X185633637Y-100491032D01*
X186563000Y-101420395D01*
X186563000Y-101779605D01*
X185633637Y-102708968D01*
X185724923Y-102969580D01*
X185960971Y-103056491D01*
X185654892Y-103362037D01*
X185445639Y-103865975D01*
X185445163Y-104411631D01*
X185653536Y-104915934D01*
X186039037Y-105302108D01*
X186172201Y-105357402D01*
X186070046Y-105399612D01*
X184859200Y-104188766D01*
X184859200Y-101349833D01*
X184976955Y-101349833D01*
X185001951Y-101975828D01*
X185193420Y-102438077D01*
X185454032Y-102529363D01*
X186383395Y-101600000D01*
X185454032Y-100670637D01*
X185193420Y-100761923D01*
X184976955Y-101349833D01*
X184859200Y-101349833D01*
X184859200Y-100533200D01*
X184816816Y-100320122D01*
X184696117Y-100139483D01*
X183792400Y-99235766D01*
X183792400Y-98196400D01*
X183750016Y-97983322D01*
X183629317Y-97802683D01*
X182537117Y-96710483D01*
X182356478Y-96589784D01*
X182143400Y-96547400D01*
X181635400Y-96547400D01*
X181422322Y-96589784D01*
X181241683Y-96710483D01*
X180539168Y-97412998D01*
X178904808Y-97412998D01*
X178905034Y-97153979D01*
X178787341Y-96869141D01*
X178569605Y-96651024D01*
X178367489Y-96567099D01*
X178490784Y-96443804D01*
X184041184Y-96443804D01*
X184861200Y-97263821D01*
X184861200Y-97263821D01*
G37*
X184861200Y-97263821D02*
X184861200Y-97599500D01*
X184899869Y-97793903D01*
X185009990Y-97958710D01*
X185467914Y-98416634D01*
X185356739Y-98684375D01*
X185356263Y-99230031D01*
X185564636Y-99734334D01*
X185950137Y-100120508D01*
X185970181Y-100128831D01*
X185724923Y-100230420D01*
X185633637Y-100491032D01*
X186563000Y-101420395D01*
X186563000Y-101779605D01*
X185633637Y-102708968D01*
X185724923Y-102969580D01*
X185960971Y-103056491D01*
X185654892Y-103362037D01*
X185445639Y-103865975D01*
X185445163Y-104411631D01*
X185653536Y-104915934D01*
X186039037Y-105302108D01*
X186172201Y-105357402D01*
X186070046Y-105399612D01*
X184859200Y-104188766D01*
X184859200Y-101349833D01*
X184976955Y-101349833D01*
X185001951Y-101975828D01*
X185193420Y-102438077D01*
X185454032Y-102529363D01*
X186383395Y-101600000D01*
X185454032Y-100670637D01*
X185193420Y-100761923D01*
X184976955Y-101349833D01*
X184859200Y-101349833D01*
X184859200Y-100533200D01*
X184816816Y-100320122D01*
X184696117Y-100139483D01*
X183792400Y-99235766D01*
X183792400Y-98196400D01*
X183750016Y-97983322D01*
X183629317Y-97802683D01*
X182537117Y-96710483D01*
X182356478Y-96589784D01*
X182143400Y-96547400D01*
X181635400Y-96547400D01*
X181422322Y-96589784D01*
X181241683Y-96710483D01*
X180539168Y-97412998D01*
X178904808Y-97412998D01*
X178905034Y-97153979D01*
X178787341Y-96869141D01*
X178569605Y-96651024D01*
X178367489Y-96567099D01*
X178490784Y-96443804D01*
X184041184Y-96443804D01*
X184861200Y-97263821D01*
M02*
