G04 #@! TF.FileFunction,Soldermask,Top*
%FSLAX46Y46*%
G04 Gerber Fmt 4.6, Leading zero omitted, Abs format (unit mm)*
G04 Created by KiCad (PCBNEW 4.0.7) date Monday, 20 November 2017 'AMt' 10:57:52*
%MOMM*%
%LPD*%
G01*
G04 APERTURE LIST*
%ADD10C,0.100000*%
%ADD11R,1.243000X0.735000*%
%ADD12R,1.243000X0.281000*%
%ADD13R,0.735000X1.243000*%
%ADD14R,0.999160X1.243000*%
%ADD15R,1.598600X0.348920*%
%ADD16R,0.348920X1.598600*%
%ADD17R,0.897560X0.897560*%
%ADD18O,1.979600X1.979600*%
%ADD19C,1.979600*%
%ADD20R,1.700000X1.200000*%
%ADD21C,2.250000*%
%ADD22R,1.950000X0.500000*%
%ADD23C,0.650000*%
%ADD24R,1.900000X1.300000*%
%ADD25R,0.430000X0.600000*%
G04 APERTURE END LIST*
D10*
D11*
X153670000Y-96674000D03*
X153670000Y-95858000D03*
D12*
X153670000Y-96266000D03*
D13*
X177546000Y-100076000D03*
X176022000Y-100076000D03*
D14*
X176784000Y-100076000D03*
D13*
X158242000Y-96520000D03*
X159766000Y-96520000D03*
D15*
X173207680Y-104348280D03*
X173207680Y-103847900D03*
X173207680Y-103347520D03*
X173207680Y-102849680D03*
X173207680Y-102349300D03*
X173207680Y-101848920D03*
X173207680Y-101351080D03*
X173207680Y-100850700D03*
X173207680Y-100350320D03*
X173207680Y-99852480D03*
X173207680Y-99352100D03*
X173207680Y-98851720D03*
D16*
X171658280Y-97302320D03*
X171157900Y-97302320D03*
X170657520Y-97302320D03*
X170159680Y-97302320D03*
X169659300Y-97302320D03*
X169158920Y-97302320D03*
X168661080Y-97302320D03*
X168160700Y-97302320D03*
X167660320Y-97302320D03*
X167162480Y-97302320D03*
X166662100Y-97302320D03*
X166161720Y-97302320D03*
D15*
X164612320Y-98851720D03*
X164612320Y-99352100D03*
X164612320Y-99852480D03*
X164612320Y-100350320D03*
X164612320Y-100850700D03*
X164612320Y-101351080D03*
X164612320Y-101848920D03*
X164612320Y-102349300D03*
X164612320Y-102849680D03*
X164612320Y-103347520D03*
X164612320Y-103847900D03*
X164612320Y-104348280D03*
D16*
X166161720Y-105897680D03*
X166662100Y-105897680D03*
X167162480Y-105897680D03*
X167660320Y-105897680D03*
X168160700Y-105897680D03*
X168661080Y-105897680D03*
X169158920Y-105897680D03*
X169659300Y-105897680D03*
X170159680Y-105897680D03*
X170657520Y-105897680D03*
X171157900Y-105897680D03*
X171658280Y-105897680D03*
D13*
X174498000Y-105981500D03*
X172974000Y-105981500D03*
X163322000Y-105981500D03*
X164846000Y-105981500D03*
X163068000Y-97155000D03*
X164592000Y-97155000D03*
X174498000Y-97028000D03*
X172974000Y-97028000D03*
X161417000Y-102870000D03*
X159893000Y-102870000D03*
D17*
X158762700Y-104648000D03*
X160261300Y-104648000D03*
D18*
X156210000Y-96570800D03*
D13*
X176022000Y-103124000D03*
X177546000Y-103124000D03*
X158750000Y-106172000D03*
X160274000Y-106172000D03*
D19*
X153670000Y-93853000D03*
X156210000Y-94107000D03*
X158750000Y-93853000D03*
X161290000Y-94107000D03*
X163830000Y-93853000D03*
X166370000Y-94107000D03*
X168910000Y-93853000D03*
X171450000Y-94107000D03*
X173990000Y-93853000D03*
X176530000Y-94107000D03*
X179070000Y-93853000D03*
X181610000Y-94107000D03*
X184150000Y-93853000D03*
X186690000Y-94107000D03*
X186690000Y-109347000D03*
X184150000Y-109093000D03*
X181610000Y-109347000D03*
X179070000Y-109093000D03*
X176530000Y-109347000D03*
X173990000Y-109093000D03*
X171450000Y-109347000D03*
X168910000Y-109093000D03*
X166370000Y-109347000D03*
X163830000Y-109093000D03*
X161290000Y-109347000D03*
X158750000Y-109093000D03*
X156210000Y-109347000D03*
X153670000Y-109093000D03*
X186563000Y-106680000D03*
X186817000Y-104140000D03*
X186563000Y-101600000D03*
X186728100Y-98958400D03*
X186651900Y-96621600D03*
D20*
X179456000Y-97193100D03*
X179456000Y-98894000D03*
X183256000Y-97193100D03*
X183256000Y-98894900D03*
X183256000Y-106006900D03*
X183256000Y-104306000D03*
X179456000Y-106006900D03*
X179456000Y-104305100D03*
D21*
X153670000Y-104425000D03*
D22*
X156670000Y-102900000D03*
X156670000Y-102250000D03*
X156670000Y-101600000D03*
X156670000Y-100950000D03*
X156670000Y-100300000D03*
D21*
X153670000Y-98775000D03*
D23*
X155820000Y-103550000D03*
X155820000Y-99650000D03*
D24*
X153670000Y-100700000D03*
X153670000Y-102500000D03*
D13*
X176022000Y-101600000D03*
X177546000Y-101600000D03*
D25*
X159385000Y-98795000D03*
X158885000Y-100595000D03*
X159885000Y-100595000D03*
X159385000Y-100595000D03*
X159885000Y-98795000D03*
X158885000Y-98795000D03*
D11*
X161925000Y-100103000D03*
X161925000Y-99287000D03*
D12*
X161925000Y-99695000D03*
M02*
