G04 #@! TF.FileFunction,Legend,Top*
%FSLAX46Y46*%
G04 Gerber Fmt 4.6, Leading zero omitted, Abs format (unit mm)*
G04 Created by KiCad (PCBNEW 4.0.7) date Monday, 20 November 2017 'AMt' 10:57:52*
%MOMM*%
%LPD*%
G01*
G04 APERTURE LIST*
%ADD10C,0.100000*%
%ADD11C,0.127000*%
%ADD12C,0.200000*%
%ADD13C,0.149860*%
%ADD14C,0.198120*%
%ADD15C,0.150000*%
%ADD16C,0.203200*%
G04 APERTURE END LIST*
D10*
D11*
X160366234Y-94861898D02*
X159918399Y-94649766D01*
X160130532Y-95097600D01*
X159399855Y-95168311D02*
X159894829Y-95663285D01*
X159423425Y-95191881D02*
X159446995Y-95121170D01*
X159541276Y-95026889D01*
X159611987Y-95003319D01*
X159659127Y-95003319D01*
X159729839Y-95026889D01*
X159871260Y-95168311D01*
X159894829Y-95239021D01*
X159894830Y-95286162D01*
X159871259Y-95356873D01*
X159776979Y-95451153D01*
X159706268Y-95474724D01*
X161462334Y-104837667D02*
X161462334Y-104471000D01*
X161429000Y-104404333D01*
X161362334Y-104371000D01*
X161229000Y-104371000D01*
X161162334Y-104404333D01*
X161462334Y-104804333D02*
X161395667Y-104837667D01*
X161229000Y-104837667D01*
X161162334Y-104804333D01*
X161129000Y-104737667D01*
X161129000Y-104671000D01*
X161162334Y-104604333D01*
X161229000Y-104571000D01*
X161395667Y-104571000D01*
X161462334Y-104537667D01*
X162162333Y-104837667D02*
X161762333Y-104837667D01*
X161962333Y-104837667D02*
X161962333Y-104137667D01*
X161895667Y-104237667D01*
X161829000Y-104304333D01*
X161762333Y-104337667D01*
X162795667Y-104137667D02*
X162462334Y-104137667D01*
X162429000Y-104471000D01*
X162462334Y-104437667D01*
X162529000Y-104404333D01*
X162695667Y-104404333D01*
X162762334Y-104437667D01*
X162795667Y-104471000D01*
X162829000Y-104537667D01*
X162829000Y-104704333D01*
X162795667Y-104771000D01*
X162762334Y-104804333D01*
X162695667Y-104837667D01*
X162529000Y-104837667D01*
X162462334Y-104804333D01*
X162429000Y-104771000D01*
X163029001Y-104204333D02*
X163162334Y-104104333D01*
X163295667Y-104204333D01*
X156693333Y-98194000D02*
X156526666Y-97727333D01*
X156360000Y-98194000D01*
X155793333Y-98194000D02*
X155793333Y-97727333D01*
X156093333Y-98194000D02*
X156093333Y-97827333D01*
X156060000Y-97760667D01*
X155993333Y-97727333D01*
X155893333Y-97727333D01*
X155826667Y-97760667D01*
X155793333Y-97794000D01*
X170307000Y-94712286D02*
X170307000Y-94890857D01*
X170128429Y-94819429D02*
X170307000Y-94890857D01*
X170485572Y-94819429D01*
X170199857Y-95033714D02*
X170307000Y-94890857D01*
X170414143Y-95033714D01*
X173101000Y-94712286D02*
X173101000Y-94890857D01*
X172922429Y-94819429D02*
X173101000Y-94890857D01*
X173279572Y-94819429D01*
X172993857Y-95033714D02*
X173101000Y-94890857D01*
X173208143Y-95033714D01*
D12*
X154747631Y-93314185D02*
G75*
G03X154051000Y-92710000I-1077631J-538815D01*
G01*
X152592369Y-94391815D02*
G75*
G03X153289000Y-94996000I1077631J538815D01*
G01*
D11*
X155002368Y-94815564D02*
X154554533Y-94603432D01*
X154766666Y-95051266D01*
X154248121Y-94909845D02*
X154578104Y-95239828D01*
X154743095Y-95404819D02*
X154743096Y-95357679D01*
X154695955Y-95357679D01*
X154695955Y-95404819D01*
X154743095Y-95404819D01*
X154695955Y-95357679D01*
D13*
X184465323Y-102347849D02*
X185193214Y-102347849D01*
X185278849Y-102390666D01*
X185321666Y-102433483D01*
X185364483Y-102519118D01*
X185364483Y-102647569D01*
X185321666Y-102733203D01*
X185021946Y-102347849D02*
X185064763Y-102433483D01*
X185064763Y-102604752D01*
X185021946Y-102690386D01*
X184979129Y-102733203D01*
X184893494Y-102776020D01*
X184636591Y-102776020D01*
X184550957Y-102733203D01*
X184508140Y-102690386D01*
X184465323Y-102604752D01*
X184465323Y-102433483D01*
X184508140Y-102347849D01*
X184465323Y-101919677D02*
X185064763Y-101919677D01*
X184550957Y-101919677D02*
X184508140Y-101876860D01*
X184465323Y-101791226D01*
X184465323Y-101662774D01*
X184508140Y-101577140D01*
X184593774Y-101534323D01*
X185064763Y-101534323D01*
X185064763Y-100720797D02*
X184165603Y-100720797D01*
X185021946Y-100720797D02*
X185064763Y-100806431D01*
X185064763Y-100977700D01*
X185021946Y-101063334D01*
X184979129Y-101106151D01*
X184893494Y-101148968D01*
X184636591Y-101148968D01*
X184550957Y-101106151D01*
X184508140Y-101063334D01*
X184465323Y-100977700D01*
X184465323Y-100806431D01*
X184508140Y-100720797D01*
X185402946Y-97794354D02*
X185445763Y-97879988D01*
X185445763Y-98051257D01*
X185402946Y-98136891D01*
X185360129Y-98179708D01*
X185274494Y-98222525D01*
X185017591Y-98222525D01*
X184931957Y-98179708D01*
X184889140Y-98136891D01*
X184846323Y-98051257D01*
X184846323Y-97879988D01*
X184889140Y-97794354D01*
X185445763Y-97280548D02*
X185402946Y-97366182D01*
X185317311Y-97408999D01*
X184546603Y-97408999D01*
X185445763Y-96938010D02*
X184546603Y-96938010D01*
X185103226Y-96852376D02*
X185445763Y-96595473D01*
X184846323Y-96595473D02*
X185188860Y-96938010D01*
X185445763Y-99996171D02*
X184546603Y-99996171D01*
X185402946Y-99996171D02*
X185445763Y-100081805D01*
X185445763Y-100253074D01*
X185402946Y-100338708D01*
X185360129Y-100381525D01*
X185274494Y-100424342D01*
X185017591Y-100424342D01*
X184931957Y-100381525D01*
X184889140Y-100338708D01*
X184846323Y-100253074D01*
X184846323Y-100081805D01*
X184889140Y-99996171D01*
X185445763Y-99567999D02*
X184846323Y-99567999D01*
X184546603Y-99567999D02*
X184589420Y-99610816D01*
X184632237Y-99567999D01*
X184589420Y-99525182D01*
X184546603Y-99567999D01*
X184632237Y-99567999D01*
X185445763Y-99011377D02*
X185402946Y-99097011D01*
X185360129Y-99139828D01*
X185274494Y-99182645D01*
X185017591Y-99182645D01*
X184931957Y-99139828D01*
X184889140Y-99097011D01*
X184846323Y-99011377D01*
X184846323Y-98882925D01*
X184889140Y-98797291D01*
X184931957Y-98754474D01*
X185017591Y-98711657D01*
X185274494Y-98711657D01*
X185360129Y-98754474D01*
X185402946Y-98797291D01*
X185445763Y-98882925D01*
X185445763Y-99011377D01*
X184719323Y-106665849D02*
X185318763Y-106451763D01*
X184719323Y-106237677D01*
X185318763Y-105509786D02*
X184847774Y-105509786D01*
X184762140Y-105552603D01*
X184719323Y-105638237D01*
X184719323Y-105809506D01*
X184762140Y-105895140D01*
X185275946Y-105509786D02*
X185318763Y-105595420D01*
X185318763Y-105809506D01*
X185275946Y-105895140D01*
X185190311Y-105937957D01*
X185104677Y-105937957D01*
X185019043Y-105895140D01*
X184976226Y-105809506D01*
X184976226Y-105595420D01*
X184933409Y-105509786D01*
X184719323Y-104760849D02*
X185318763Y-104546763D01*
X184719323Y-104332677D01*
X185318763Y-103604786D02*
X184419603Y-103604786D01*
X185275946Y-103604786D02*
X185318763Y-103690420D01*
X185318763Y-103861689D01*
X185275946Y-103947323D01*
X185233129Y-103990140D01*
X185147494Y-104032957D01*
X184890591Y-104032957D01*
X184804957Y-103990140D01*
X184762140Y-103947323D01*
X184719323Y-103861689D01*
X184719323Y-103690420D01*
X184762140Y-103604786D01*
D11*
X183889666Y-107885667D02*
X183489666Y-107885667D01*
X183689666Y-107885667D02*
X183689666Y-107185667D01*
X183623000Y-107285667D01*
X183556333Y-107352333D01*
X183489666Y-107385667D01*
X184523000Y-107185667D02*
X184189667Y-107185667D01*
X184156333Y-107519000D01*
X184189667Y-107485667D01*
X184256333Y-107452333D01*
X184423000Y-107452333D01*
X184489667Y-107485667D01*
X184523000Y-107519000D01*
X184556333Y-107585667D01*
X184556333Y-107752333D01*
X184523000Y-107819000D01*
X184489667Y-107852333D01*
X184423000Y-107885667D01*
X184256333Y-107885667D01*
X184189667Y-107852333D01*
X184156333Y-107819000D01*
X185101801Y-108079636D02*
X184818959Y-107796793D01*
X184960380Y-107938215D02*
X185455355Y-107443240D01*
X185337504Y-107466811D01*
X185243223Y-107466810D01*
X185172512Y-107443240D01*
X185856049Y-108173917D02*
X185526066Y-108503901D01*
X185926760Y-107867504D02*
X185455355Y-108103206D01*
X185761769Y-108409619D01*
D12*
X157861000Y-94615000D02*
G75*
G03X159639000Y-93091000I889000J762000D01*
G01*
X186817000Y-102997000D02*
G75*
G03X186817000Y-105283000I0J-1143000D01*
G01*
D11*
X185519553Y-94702613D02*
X186014527Y-95197587D01*
X185825966Y-95009026D02*
X185802396Y-95079736D01*
X185708115Y-95174017D01*
X185637405Y-95197587D01*
X185590263Y-95197587D01*
X185519553Y-95174017D01*
X185378132Y-95032596D01*
X185354561Y-94961885D01*
X185354562Y-94914745D01*
X185378131Y-94844034D01*
X185472413Y-94749753D01*
X185543123Y-94726183D01*
X184812447Y-95409719D02*
X185095289Y-95126876D01*
X184953868Y-95268297D02*
X185448843Y-95763272D01*
X185425272Y-95645421D01*
X185425273Y-95551141D01*
X185448843Y-95480429D01*
X185142429Y-96069685D02*
X184836017Y-96376098D01*
X184812447Y-96022545D01*
X184741736Y-96093256D01*
X184671025Y-96116826D01*
X184623885Y-96116826D01*
X184553174Y-96093255D01*
X184435323Y-95975405D01*
X184411753Y-95904694D01*
X184411753Y-95857554D01*
X184435323Y-95786843D01*
X184576744Y-95645421D01*
X184647455Y-95621851D01*
X184694595Y-95621851D01*
D13*
X183750494Y-95224237D02*
X183750494Y-95695226D01*
X183793311Y-95780860D01*
X183878945Y-95823677D01*
X184050214Y-95823677D01*
X184135848Y-95780860D01*
X183750494Y-95267054D02*
X183836128Y-95224237D01*
X184050214Y-95224237D01*
X184135848Y-95267054D01*
X184178665Y-95352689D01*
X184178665Y-95438323D01*
X184135848Y-95523957D01*
X184050214Y-95566774D01*
X183836128Y-95566774D01*
X183750494Y-95609591D01*
X183365139Y-96037763D02*
X183322322Y-96080580D01*
X183236688Y-96123397D01*
X183022602Y-96123397D01*
X182936968Y-96080580D01*
X182894151Y-96037763D01*
X182851334Y-95952129D01*
X182851334Y-95866494D01*
X182894151Y-95738043D01*
X183407957Y-95224237D01*
X182851334Y-95224237D01*
X181845494Y-95224237D02*
X181845494Y-95695226D01*
X181888311Y-95780860D01*
X181973945Y-95823677D01*
X182145214Y-95823677D01*
X182230848Y-95780860D01*
X181845494Y-95267054D02*
X181931128Y-95224237D01*
X182145214Y-95224237D01*
X182230848Y-95267054D01*
X182273665Y-95352689D01*
X182273665Y-95438323D01*
X182230848Y-95523957D01*
X182145214Y-95566774D01*
X181931128Y-95566774D01*
X181845494Y-95609591D01*
X181502957Y-96123397D02*
X180946334Y-96123397D01*
X181246054Y-95780860D01*
X181117602Y-95780860D01*
X181031968Y-95738043D01*
X180989151Y-95695226D01*
X180946334Y-95609591D01*
X180946334Y-95395506D01*
X180989151Y-95309871D01*
X181031968Y-95267054D01*
X181117602Y-95224237D01*
X181374505Y-95224237D01*
X181460139Y-95267054D01*
X181502957Y-95309871D01*
X180119020Y-95224237D02*
X180119020Y-96123397D01*
X180119020Y-95780860D02*
X180033386Y-95823677D01*
X179862117Y-95823677D01*
X179776483Y-95780860D01*
X179733666Y-95738043D01*
X179690849Y-95652409D01*
X179690849Y-95395506D01*
X179733666Y-95309871D01*
X179776483Y-95267054D01*
X179862117Y-95224237D01*
X180033386Y-95224237D01*
X180119020Y-95267054D01*
X178834506Y-95224237D02*
X179348311Y-95224237D01*
X179091409Y-95224237D02*
X179091409Y-96123397D01*
X179177043Y-95994946D01*
X179262677Y-95909311D01*
X179348311Y-95866494D01*
X178277883Y-96123397D02*
X178192248Y-96123397D01*
X178106614Y-96080580D01*
X178063797Y-96037763D01*
X178020980Y-95952129D01*
X177978163Y-95780860D01*
X177978163Y-95566774D01*
X178020980Y-95395506D01*
X178063797Y-95309871D01*
X178106614Y-95267054D01*
X178192248Y-95224237D01*
X178277883Y-95224237D01*
X178363517Y-95267054D01*
X178406334Y-95309871D01*
X178449151Y-95395506D01*
X178491968Y-95566774D01*
X178491968Y-95780860D01*
X178449151Y-95952129D01*
X178406334Y-96037763D01*
X178363517Y-96080580D01*
X178277883Y-96123397D01*
X177579020Y-95224237D02*
X177579020Y-96123397D01*
X177579020Y-95780860D02*
X177493386Y-95823677D01*
X177322117Y-95823677D01*
X177236483Y-95780860D01*
X177193666Y-95738043D01*
X177150849Y-95652409D01*
X177150849Y-95395506D01*
X177193666Y-95309871D01*
X177236483Y-95267054D01*
X177322117Y-95224237D01*
X177493386Y-95224237D01*
X177579020Y-95267054D01*
X176294506Y-95224237D02*
X176808311Y-95224237D01*
X176551409Y-95224237D02*
X176551409Y-96123397D01*
X176637043Y-95994946D01*
X176722677Y-95909311D01*
X176808311Y-95866494D01*
X175438163Y-95224237D02*
X175951968Y-95224237D01*
X175695066Y-95224237D02*
X175695066Y-96123397D01*
X175780700Y-95994946D01*
X175866334Y-95909311D01*
X175951968Y-95866494D01*
X174225494Y-95224237D02*
X174225494Y-95695226D01*
X174268311Y-95780860D01*
X174353945Y-95823677D01*
X174525214Y-95823677D01*
X174610848Y-95780860D01*
X174225494Y-95267054D02*
X174311128Y-95224237D01*
X174525214Y-95224237D01*
X174610848Y-95267054D01*
X174653665Y-95352689D01*
X174653665Y-95438323D01*
X174610848Y-95523957D01*
X174525214Y-95566774D01*
X174311128Y-95566774D01*
X174225494Y-95609591D01*
X173411968Y-95823677D02*
X173411968Y-95224237D01*
X173626054Y-96166214D02*
X173840139Y-95523957D01*
X173283517Y-95523957D01*
X171685494Y-95224237D02*
X171685494Y-95695226D01*
X171728311Y-95780860D01*
X171813945Y-95823677D01*
X171985214Y-95823677D01*
X172070848Y-95780860D01*
X171685494Y-95267054D02*
X171771128Y-95224237D01*
X171985214Y-95224237D01*
X172070848Y-95267054D01*
X172113665Y-95352689D01*
X172113665Y-95438323D01*
X172070848Y-95523957D01*
X171985214Y-95566774D01*
X171771128Y-95566774D01*
X171685494Y-95609591D01*
X170829151Y-96123397D02*
X171257322Y-96123397D01*
X171300139Y-95695226D01*
X171257322Y-95738043D01*
X171171688Y-95780860D01*
X170957602Y-95780860D01*
X170871968Y-95738043D01*
X170829151Y-95695226D01*
X170786334Y-95609591D01*
X170786334Y-95395506D01*
X170829151Y-95309871D01*
X170871968Y-95267054D01*
X170957602Y-95224237D01*
X171171688Y-95224237D01*
X171257322Y-95267054D01*
X171300139Y-95309871D01*
X169145494Y-95224237D02*
X169145494Y-95695226D01*
X169188311Y-95780860D01*
X169273945Y-95823677D01*
X169445214Y-95823677D01*
X169530848Y-95780860D01*
X169145494Y-95267054D02*
X169231128Y-95224237D01*
X169445214Y-95224237D01*
X169530848Y-95267054D01*
X169573665Y-95352689D01*
X169573665Y-95438323D01*
X169530848Y-95523957D01*
X169445214Y-95566774D01*
X169231128Y-95566774D01*
X169145494Y-95609591D01*
X168331968Y-96123397D02*
X168503237Y-96123397D01*
X168588871Y-96080580D01*
X168631688Y-96037763D01*
X168717322Y-95909311D01*
X168760139Y-95738043D01*
X168760139Y-95395506D01*
X168717322Y-95309871D01*
X168674505Y-95267054D01*
X168588871Y-95224237D01*
X168417602Y-95224237D01*
X168331968Y-95267054D01*
X168289151Y-95309871D01*
X168246334Y-95395506D01*
X168246334Y-95609591D01*
X168289151Y-95695226D01*
X168331968Y-95738043D01*
X168417602Y-95780860D01*
X168588871Y-95780860D01*
X168674505Y-95738043D01*
X168717322Y-95695226D01*
X168760139Y-95609591D01*
D11*
X165410333Y-95060333D02*
X165410333Y-95427000D01*
X165443667Y-95493667D01*
X165510333Y-95527000D01*
X165643667Y-95527000D01*
X165710333Y-95493667D01*
X165410333Y-95093667D02*
X165477000Y-95060333D01*
X165643667Y-95060333D01*
X165710333Y-95093667D01*
X165743667Y-95160333D01*
X165743667Y-95227000D01*
X165710333Y-95293667D01*
X165643667Y-95327000D01*
X165477000Y-95327000D01*
X165410333Y-95360333D01*
X165143667Y-95760333D02*
X164677000Y-95760333D01*
X164977000Y-95060333D01*
X161447933Y-95263533D02*
X161447933Y-95630200D01*
X161481267Y-95696867D01*
X161547933Y-95730200D01*
X161681267Y-95730200D01*
X161747933Y-95696867D01*
X161447933Y-95296867D02*
X161514600Y-95263533D01*
X161681267Y-95263533D01*
X161747933Y-95296867D01*
X161781267Y-95363533D01*
X161781267Y-95430200D01*
X161747933Y-95496867D01*
X161681267Y-95530200D01*
X161514600Y-95530200D01*
X161447933Y-95563533D01*
X161081267Y-95263533D02*
X160947934Y-95263533D01*
X160881267Y-95296867D01*
X160847934Y-95330200D01*
X160781267Y-95430200D01*
X160747934Y-95563533D01*
X160747934Y-95830200D01*
X160781267Y-95896867D01*
X160814600Y-95930200D01*
X160881267Y-95963533D01*
X161014600Y-95963533D01*
X161081267Y-95930200D01*
X161114600Y-95896867D01*
X161147934Y-95830200D01*
X161147934Y-95663533D01*
X161114600Y-95596867D01*
X161081267Y-95563533D01*
X161014600Y-95530200D01*
X160881267Y-95530200D01*
X160814600Y-95563533D01*
X160781267Y-95596867D01*
X160747934Y-95663533D01*
X163965666Y-95238133D02*
X163965666Y-95604800D01*
X163999000Y-95671467D01*
X164065666Y-95704800D01*
X164199000Y-95704800D01*
X164265666Y-95671467D01*
X163965666Y-95271467D02*
X164032333Y-95238133D01*
X164199000Y-95238133D01*
X164265666Y-95271467D01*
X164299000Y-95338133D01*
X164299000Y-95404800D01*
X164265666Y-95471467D01*
X164199000Y-95504800D01*
X164032333Y-95504800D01*
X163965666Y-95538133D01*
X163265667Y-95238133D02*
X163665667Y-95238133D01*
X163465667Y-95238133D02*
X163465667Y-95938133D01*
X163532333Y-95838133D01*
X163599000Y-95771467D01*
X163665667Y-95738133D01*
X162832333Y-95938133D02*
X162765666Y-95938133D01*
X162699000Y-95904800D01*
X162665666Y-95871467D01*
X162632333Y-95804800D01*
X162599000Y-95671467D01*
X162599000Y-95504800D01*
X162632333Y-95371467D01*
X162665666Y-95304800D01*
X162699000Y-95271467D01*
X162765666Y-95238133D01*
X162832333Y-95238133D01*
X162899000Y-95271467D01*
X162932333Y-95304800D01*
X162965666Y-95371467D01*
X162999000Y-95504800D01*
X162999000Y-95671467D01*
X162965666Y-95804800D01*
X162932333Y-95871467D01*
X162899000Y-95904800D01*
X162832333Y-95938133D01*
D12*
X185420000Y-101092000D02*
X185420000Y-101346000D01*
X186055000Y-100457000D02*
X185420000Y-101092000D01*
X187071000Y-100457000D02*
X186055000Y-100457000D01*
X187706000Y-101092000D02*
X187071000Y-100457000D01*
X187706000Y-102108000D02*
X187706000Y-101092000D01*
X187071000Y-102743000D02*
X187706000Y-102108000D01*
X186055000Y-102743000D02*
X187071000Y-102743000D01*
X185420000Y-102108000D02*
X186055000Y-102743000D01*
X185420000Y-101346000D02*
X185420000Y-102108000D01*
X157353000Y-94615000D02*
X156718000Y-95250000D01*
X157353000Y-93599000D02*
X157353000Y-94615000D01*
X156718000Y-92964000D02*
X157353000Y-93599000D01*
X155702000Y-92964000D02*
X156718000Y-92964000D01*
X155575000Y-93091000D02*
X155702000Y-92964000D01*
X155067000Y-93599000D02*
X155575000Y-93091000D01*
X155067000Y-94615000D02*
X155067000Y-93599000D01*
X155702000Y-95250000D02*
X155067000Y-94615000D01*
X156718000Y-95250000D02*
X155702000Y-95250000D01*
X154305000Y-110236000D02*
X154813000Y-109728000D01*
X153162000Y-110236000D02*
X154305000Y-110236000D01*
X153035000Y-110109000D02*
X153162000Y-110236000D01*
X152527000Y-109601000D02*
X153035000Y-110109000D01*
X152527000Y-108458000D02*
X152527000Y-109601000D01*
X153035000Y-107950000D02*
X152527000Y-108458000D01*
X154305000Y-107950000D02*
X153035000Y-107950000D01*
X154813000Y-108458000D02*
X154305000Y-107950000D01*
X154813000Y-109728000D02*
X154813000Y-108458000D01*
D13*
X180687980Y-107912263D02*
X180687980Y-107013103D01*
X180687980Y-107355640D02*
X180773614Y-107312823D01*
X180944883Y-107312823D01*
X181030517Y-107355640D01*
X181073334Y-107398457D01*
X181116151Y-107484091D01*
X181116151Y-107740994D01*
X181073334Y-107826629D01*
X181030517Y-107869446D01*
X180944883Y-107912263D01*
X180773614Y-107912263D01*
X180687980Y-107869446D01*
X181972494Y-107912263D02*
X181458689Y-107912263D01*
X181715591Y-107912263D02*
X181715591Y-107013103D01*
X181629957Y-107141554D01*
X181544323Y-107227189D01*
X181458689Y-107270006D01*
X182315032Y-107098737D02*
X182357849Y-107055920D01*
X182443483Y-107013103D01*
X182657569Y-107013103D01*
X182743203Y-107055920D01*
X182786020Y-107098737D01*
X182828837Y-107184371D01*
X182828837Y-107270006D01*
X182786020Y-107398457D01*
X182272214Y-107912263D01*
X182828837Y-107912263D01*
X178427743Y-107869446D02*
X178342109Y-107912263D01*
X178170840Y-107912263D01*
X178085206Y-107869446D01*
X178042389Y-107826629D01*
X177999572Y-107740994D01*
X177999572Y-107484091D01*
X178042389Y-107398457D01*
X178085206Y-107355640D01*
X178170840Y-107312823D01*
X178342109Y-107312823D01*
X178427743Y-107355640D01*
X179284086Y-107912263D02*
X178770281Y-107912263D01*
X179027183Y-107912263D02*
X179027183Y-107013103D01*
X178941549Y-107141554D01*
X178855915Y-107227189D01*
X178770281Y-107270006D01*
X180097612Y-107013103D02*
X179669441Y-107013103D01*
X179626624Y-107441274D01*
X179669441Y-107398457D01*
X179755075Y-107355640D01*
X179969161Y-107355640D01*
X180054795Y-107398457D01*
X180097612Y-107441274D01*
X180140429Y-107526909D01*
X180140429Y-107740994D01*
X180097612Y-107826629D01*
X180054795Y-107869446D01*
X179969161Y-107912263D01*
X179755075Y-107912263D01*
X179669441Y-107869446D01*
X179626624Y-107826629D01*
X175951243Y-107869446D02*
X175865609Y-107912263D01*
X175694340Y-107912263D01*
X175608706Y-107869446D01*
X175565889Y-107826629D01*
X175523072Y-107740994D01*
X175523072Y-107484091D01*
X175565889Y-107398457D01*
X175608706Y-107355640D01*
X175694340Y-107312823D01*
X175865609Y-107312823D01*
X175951243Y-107355640D01*
X176807586Y-107912263D02*
X176293781Y-107912263D01*
X176550683Y-107912263D02*
X176550683Y-107013103D01*
X176465049Y-107141554D01*
X176379415Y-107227189D01*
X176293781Y-107270006D01*
X177578295Y-107312823D02*
X177578295Y-107912263D01*
X177364209Y-106970286D02*
X177150124Y-107612543D01*
X177706746Y-107612543D01*
X173411243Y-107869446D02*
X173325609Y-107912263D01*
X173154340Y-107912263D01*
X173068706Y-107869446D01*
X173025889Y-107826629D01*
X172983072Y-107740994D01*
X172983072Y-107484091D01*
X173025889Y-107398457D01*
X173068706Y-107355640D01*
X173154340Y-107312823D01*
X173325609Y-107312823D01*
X173411243Y-107355640D01*
X174267586Y-107912263D02*
X173753781Y-107912263D01*
X174010683Y-107912263D02*
X174010683Y-107013103D01*
X173925049Y-107141554D01*
X173839415Y-107227189D01*
X173753781Y-107270006D01*
X174567306Y-107013103D02*
X175123929Y-107013103D01*
X174824209Y-107355640D01*
X174952661Y-107355640D01*
X175038295Y-107398457D01*
X175081112Y-107441274D01*
X175123929Y-107526909D01*
X175123929Y-107740994D01*
X175081112Y-107826629D01*
X175038295Y-107869446D01*
X174952661Y-107912263D01*
X174695758Y-107912263D01*
X174610124Y-107869446D01*
X174567306Y-107826629D01*
X170829152Y-107912263D02*
X170829152Y-107013103D01*
X170829152Y-107355640D02*
X170914786Y-107312823D01*
X171086055Y-107312823D01*
X171171689Y-107355640D01*
X171214506Y-107398457D01*
X171257323Y-107484091D01*
X171257323Y-107740994D01*
X171214506Y-107826629D01*
X171171689Y-107869446D01*
X171086055Y-107912263D01*
X170914786Y-107912263D01*
X170829152Y-107869446D01*
X171685495Y-107912263D02*
X171856763Y-107912263D01*
X171942398Y-107869446D01*
X171985215Y-107826629D01*
X172070849Y-107698177D01*
X172113666Y-107526909D01*
X172113666Y-107184371D01*
X172070849Y-107098737D01*
X172028032Y-107055920D01*
X171942398Y-107013103D01*
X171771129Y-107013103D01*
X171685495Y-107055920D01*
X171642678Y-107098737D01*
X171599861Y-107184371D01*
X171599861Y-107398457D01*
X171642678Y-107484091D01*
X171685495Y-107526909D01*
X171771129Y-107569726D01*
X171942398Y-107569726D01*
X172028032Y-107526909D01*
X172070849Y-107484091D01*
X172113666Y-107398457D01*
X167971652Y-107912263D02*
X167971652Y-107013103D01*
X167971652Y-107355640D02*
X168057286Y-107312823D01*
X168228555Y-107312823D01*
X168314189Y-107355640D01*
X168357006Y-107398457D01*
X168399823Y-107484091D01*
X168399823Y-107740994D01*
X168357006Y-107826629D01*
X168314189Y-107869446D01*
X168228555Y-107912263D01*
X168057286Y-107912263D01*
X167971652Y-107869446D01*
X168913629Y-107398457D02*
X168827995Y-107355640D01*
X168785178Y-107312823D01*
X168742361Y-107227189D01*
X168742361Y-107184371D01*
X168785178Y-107098737D01*
X168827995Y-107055920D01*
X168913629Y-107013103D01*
X169084898Y-107013103D01*
X169170532Y-107055920D01*
X169213349Y-107098737D01*
X169256166Y-107184371D01*
X169256166Y-107227189D01*
X169213349Y-107312823D01*
X169170532Y-107355640D01*
X169084898Y-107398457D01*
X168913629Y-107398457D01*
X168827995Y-107441274D01*
X168785178Y-107484091D01*
X168742361Y-107569726D01*
X168742361Y-107740994D01*
X168785178Y-107826629D01*
X168827995Y-107869446D01*
X168913629Y-107912263D01*
X169084898Y-107912263D01*
X169170532Y-107869446D01*
X169213349Y-107826629D01*
X169256166Y-107740994D01*
X169256166Y-107569726D01*
X169213349Y-107484091D01*
X169170532Y-107441274D01*
X169084898Y-107398457D01*
X165812652Y-107912263D02*
X165812652Y-107013103D01*
X165812652Y-107355640D02*
X165898286Y-107312823D01*
X166069555Y-107312823D01*
X166155189Y-107355640D01*
X166198006Y-107398457D01*
X166240823Y-107484091D01*
X166240823Y-107740994D01*
X166198006Y-107826629D01*
X166155189Y-107869446D01*
X166069555Y-107912263D01*
X165898286Y-107912263D01*
X165812652Y-107869446D01*
X166540543Y-107013103D02*
X167139983Y-107013103D01*
X166754629Y-107912263D01*
X163209152Y-107912263D02*
X163209152Y-107013103D01*
X163209152Y-107355640D02*
X163294786Y-107312823D01*
X163466055Y-107312823D01*
X163551689Y-107355640D01*
X163594506Y-107398457D01*
X163637323Y-107484091D01*
X163637323Y-107740994D01*
X163594506Y-107826629D01*
X163551689Y-107869446D01*
X163466055Y-107912263D01*
X163294786Y-107912263D01*
X163209152Y-107869446D01*
X164408032Y-107013103D02*
X164236763Y-107013103D01*
X164151129Y-107055920D01*
X164108312Y-107098737D01*
X164022678Y-107227189D01*
X163979861Y-107398457D01*
X163979861Y-107740994D01*
X164022678Y-107826629D01*
X164065495Y-107869446D01*
X164151129Y-107912263D01*
X164322398Y-107912263D01*
X164408032Y-107869446D01*
X164450849Y-107826629D01*
X164493666Y-107740994D01*
X164493666Y-107526909D01*
X164450849Y-107441274D01*
X164408032Y-107398457D01*
X164322398Y-107355640D01*
X164151129Y-107355640D01*
X164065495Y-107398457D01*
X164022678Y-107441274D01*
X163979861Y-107526909D01*
X160669152Y-107912263D02*
X160669152Y-107013103D01*
X160669152Y-107355640D02*
X160754786Y-107312823D01*
X160926055Y-107312823D01*
X161011689Y-107355640D01*
X161054506Y-107398457D01*
X161097323Y-107484091D01*
X161097323Y-107740994D01*
X161054506Y-107826629D01*
X161011689Y-107869446D01*
X160926055Y-107912263D01*
X160754786Y-107912263D01*
X160669152Y-107869446D01*
X161910849Y-107013103D02*
X161482678Y-107013103D01*
X161439861Y-107441274D01*
X161482678Y-107398457D01*
X161568312Y-107355640D01*
X161782398Y-107355640D01*
X161868032Y-107398457D01*
X161910849Y-107441274D01*
X161953666Y-107526909D01*
X161953666Y-107740994D01*
X161910849Y-107826629D01*
X161868032Y-107869446D01*
X161782398Y-107912263D01*
X161568312Y-107912263D01*
X161482678Y-107869446D01*
X161439861Y-107826629D01*
X158192652Y-107912263D02*
X158192652Y-107013103D01*
X158192652Y-107355640D02*
X158278286Y-107312823D01*
X158449555Y-107312823D01*
X158535189Y-107355640D01*
X158578006Y-107398457D01*
X158620823Y-107484091D01*
X158620823Y-107740994D01*
X158578006Y-107826629D01*
X158535189Y-107869446D01*
X158449555Y-107912263D01*
X158278286Y-107912263D01*
X158192652Y-107869446D01*
X159391532Y-107312823D02*
X159391532Y-107912263D01*
X159177446Y-106970286D02*
X158963361Y-107612543D01*
X159519983Y-107612543D01*
X155525652Y-107912263D02*
X155525652Y-107013103D01*
X155525652Y-107355640D02*
X155611286Y-107312823D01*
X155782555Y-107312823D01*
X155868189Y-107355640D01*
X155911006Y-107398457D01*
X155953823Y-107484091D01*
X155953823Y-107740994D01*
X155911006Y-107826629D01*
X155868189Y-107869446D01*
X155782555Y-107912263D01*
X155611286Y-107912263D01*
X155525652Y-107869446D01*
X156253543Y-107013103D02*
X156810166Y-107013103D01*
X156510446Y-107355640D01*
X156638898Y-107355640D01*
X156724532Y-107398457D01*
X156767349Y-107441274D01*
X156810166Y-107526909D01*
X156810166Y-107740994D01*
X156767349Y-107826629D01*
X156724532Y-107869446D01*
X156638898Y-107912263D01*
X156381995Y-107912263D01*
X156296361Y-107869446D01*
X156253543Y-107826629D01*
X153049151Y-106868323D02*
X153049151Y-107596214D01*
X153006334Y-107681849D01*
X152963517Y-107724666D01*
X152877882Y-107767483D01*
X152749431Y-107767483D01*
X152663797Y-107724666D01*
X153049151Y-107424946D02*
X152963517Y-107467763D01*
X152792248Y-107467763D01*
X152706614Y-107424946D01*
X152663797Y-107382129D01*
X152620980Y-107296494D01*
X152620980Y-107039591D01*
X152663797Y-106953957D01*
X152706614Y-106911140D01*
X152792248Y-106868323D01*
X152963517Y-106868323D01*
X153049151Y-106911140D01*
X153477323Y-106868323D02*
X153477323Y-107467763D01*
X153477323Y-106953957D02*
X153520140Y-106911140D01*
X153605774Y-106868323D01*
X153734226Y-106868323D01*
X153819860Y-106911140D01*
X153862677Y-106996774D01*
X153862677Y-107467763D01*
X154676203Y-107467763D02*
X154676203Y-106568603D01*
X154676203Y-107424946D02*
X154590569Y-107467763D01*
X154419300Y-107467763D01*
X154333666Y-107424946D01*
X154290849Y-107382129D01*
X154248032Y-107296494D01*
X154248032Y-107039591D01*
X154290849Y-106953957D01*
X154333666Y-106911140D01*
X154419300Y-106868323D01*
X154590569Y-106868323D01*
X154676203Y-106911140D01*
X152908000Y-97166000D02*
X152908000Y-95366000D01*
X152908000Y-95366000D02*
X154432000Y-95366000D01*
X154432000Y-95366000D02*
X154432000Y-97166000D01*
X154432000Y-97166000D02*
X152908000Y-97166000D01*
X178054000Y-100838000D02*
X175514000Y-100838000D01*
X175514000Y-100838000D02*
X175514000Y-99314000D01*
X175514000Y-99314000D02*
X178054000Y-99314000D01*
X178054000Y-99314000D02*
X178054000Y-100838000D01*
X157734000Y-95758000D02*
X160274000Y-95758000D01*
X160274000Y-95758000D02*
X160274000Y-97282000D01*
X160274000Y-97282000D02*
X157734000Y-97282000D01*
X157734000Y-97282000D02*
X157734000Y-95758000D01*
X172008800Y-98300540D02*
X172209460Y-98501200D01*
X172209460Y-98501200D02*
X172209460Y-104698800D01*
X172209460Y-104698800D02*
X172008800Y-104899460D01*
X172008800Y-104899460D02*
X165811200Y-104899460D01*
X165811200Y-104899460D02*
X165610540Y-104698800D01*
X165811200Y-98300540D02*
X172008800Y-98300540D01*
X165610540Y-104698800D02*
X165610540Y-98501200D01*
X172008800Y-98198940D02*
X172311060Y-98501200D01*
X165508940Y-98501200D02*
X165811200Y-98198940D01*
X165811200Y-105001060D02*
X165508940Y-104698800D01*
X172008800Y-105001060D02*
X172311060Y-104698800D01*
D14*
X171447852Y-103949500D02*
G75*
G03X171447852Y-103949500I-140092J0D01*
G01*
D13*
X175006000Y-106743500D02*
X172466000Y-106743500D01*
X172466000Y-106743500D02*
X172466000Y-105219500D01*
X172466000Y-105219500D02*
X175006000Y-105219500D01*
X175006000Y-105219500D02*
X175006000Y-106743500D01*
X162814000Y-105219500D02*
X165354000Y-105219500D01*
X165354000Y-105219500D02*
X165354000Y-106743500D01*
X165354000Y-106743500D02*
X162814000Y-106743500D01*
X162814000Y-106743500D02*
X162814000Y-105219500D01*
X162560000Y-96393000D02*
X165100000Y-96393000D01*
X165100000Y-96393000D02*
X165100000Y-97917000D01*
X165100000Y-97917000D02*
X162560000Y-97917000D01*
X162560000Y-97917000D02*
X162560000Y-96393000D01*
X175006000Y-97790000D02*
X172466000Y-97790000D01*
X172466000Y-97790000D02*
X172466000Y-96266000D01*
X172466000Y-96266000D02*
X175006000Y-96266000D01*
X175006000Y-96266000D02*
X175006000Y-97790000D01*
X161925000Y-103632000D02*
X159385000Y-103632000D01*
X159385000Y-103632000D02*
X159385000Y-102108000D01*
X159385000Y-102108000D02*
X161925000Y-102108000D01*
X161925000Y-102108000D02*
X161925000Y-103632000D01*
X159359600Y-104495600D02*
X159664400Y-104648000D01*
X159664400Y-104648000D02*
X159359600Y-104800400D01*
X159359600Y-104800400D02*
X159359600Y-104495600D01*
X158178500Y-104013000D02*
X160845500Y-104013000D01*
X160845500Y-104013000D02*
X160845500Y-105283000D01*
X160845500Y-105283000D02*
X158178500Y-105283000D01*
X158178500Y-105283000D02*
X158178500Y-104013000D01*
X175514000Y-102362000D02*
X178054000Y-102362000D01*
X178054000Y-102362000D02*
X178054000Y-103886000D01*
X178054000Y-103886000D02*
X175514000Y-103886000D01*
X175514000Y-103886000D02*
X175514000Y-102362000D01*
X158242000Y-105410000D02*
X160782000Y-105410000D01*
X160782000Y-105410000D02*
X160782000Y-106934000D01*
X160782000Y-106934000D02*
X158242000Y-106934000D01*
X158242000Y-106934000D02*
X158242000Y-105410000D01*
X178435000Y-96393000D02*
X184277000Y-96393000D01*
X184277000Y-96393000D02*
X184277000Y-99695000D01*
X184277000Y-99695000D02*
X178435000Y-99695000D01*
X178435000Y-99695000D02*
X178435000Y-96393000D01*
X184277000Y-106807000D02*
X178435000Y-106807000D01*
X178435000Y-106807000D02*
X178435000Y-103505000D01*
X178435000Y-103505000D02*
X184277000Y-103505000D01*
X184277000Y-103505000D02*
X184277000Y-106807000D01*
X175514000Y-100838000D02*
X178054000Y-100838000D01*
X178054000Y-100838000D02*
X178054000Y-102362000D01*
X178054000Y-102362000D02*
X175514000Y-102362000D01*
X175514000Y-102362000D02*
X175514000Y-100838000D01*
D15*
X158789000Y-99324000D02*
X158789000Y-100066000D01*
X158685000Y-101122000D02*
X159085000Y-101122000D01*
X158789000Y-99324000D02*
X159981000Y-99324000D01*
X159981000Y-99324000D02*
X159981000Y-100066000D01*
X159981000Y-100066000D02*
X158789000Y-100066000D01*
D13*
X161163000Y-100595000D02*
X161163000Y-98795000D01*
X161163000Y-98795000D02*
X162687000Y-98795000D01*
X162687000Y-98795000D02*
X162687000Y-100595000D01*
X162687000Y-100595000D02*
X161163000Y-100595000D01*
X174687774Y-100375720D02*
X174687774Y-100675440D01*
X175158763Y-100675440D02*
X174259603Y-100675440D01*
X174259603Y-100247269D01*
X175158763Y-99433743D02*
X175158763Y-99947548D01*
X175158763Y-99690646D02*
X174259603Y-99690646D01*
X174388054Y-99776280D01*
X174473689Y-99861914D01*
X174516506Y-99947548D01*
X158346140Y-98365129D02*
X158303323Y-98407946D01*
X158174872Y-98450763D01*
X158089238Y-98450763D01*
X157960786Y-98407946D01*
X157875152Y-98322311D01*
X157832335Y-98236677D01*
X157789518Y-98065409D01*
X157789518Y-97936957D01*
X157832335Y-97765689D01*
X157875152Y-97680054D01*
X157960786Y-97594420D01*
X158089238Y-97551603D01*
X158174872Y-97551603D01*
X158303323Y-97594420D01*
X158346140Y-97637237D01*
X159116849Y-97551603D02*
X158945580Y-97551603D01*
X158859946Y-97594420D01*
X158817129Y-97637237D01*
X158731495Y-97765689D01*
X158688678Y-97936957D01*
X158688678Y-98279494D01*
X158731495Y-98365129D01*
X158774312Y-98407946D01*
X158859946Y-98450763D01*
X159031215Y-98450763D01*
X159116849Y-98407946D01*
X159159666Y-98365129D01*
X159202483Y-98279494D01*
X159202483Y-98065409D01*
X159159666Y-97979774D01*
X159116849Y-97936957D01*
X159031215Y-97894140D01*
X158859946Y-97894140D01*
X158774312Y-97936957D01*
X158731495Y-97979774D01*
X158688678Y-98065409D01*
X168032249Y-103022763D02*
X168032249Y-102123603D01*
X168974225Y-102937129D02*
X168931408Y-102979946D01*
X168802957Y-103022763D01*
X168717323Y-103022763D01*
X168588871Y-102979946D01*
X168503237Y-102894311D01*
X168460420Y-102808677D01*
X168417603Y-102637409D01*
X168417603Y-102508957D01*
X168460420Y-102337689D01*
X168503237Y-102252054D01*
X168588871Y-102166420D01*
X168717323Y-102123603D01*
X168802957Y-102123603D01*
X168931408Y-102166420D01*
X168974225Y-102209237D01*
X169830568Y-103022763D02*
X169316763Y-103022763D01*
X169573665Y-103022763D02*
X169573665Y-102123603D01*
X169488031Y-102252054D01*
X169402397Y-102337689D01*
X169316763Y-102380506D01*
X176089129Y-106131360D02*
X176131946Y-106174177D01*
X176174763Y-106302628D01*
X176174763Y-106388262D01*
X176131946Y-106516714D01*
X176046311Y-106602348D01*
X175960677Y-106645165D01*
X175789409Y-106687982D01*
X175660957Y-106687982D01*
X175489689Y-106645165D01*
X175404054Y-106602348D01*
X175318420Y-106516714D01*
X175275603Y-106388262D01*
X175275603Y-106302628D01*
X175318420Y-106174177D01*
X175361237Y-106131360D01*
X176174763Y-105275017D02*
X176174763Y-105788822D01*
X176174763Y-105531920D02*
X175275603Y-105531920D01*
X175404054Y-105617554D01*
X175489689Y-105703188D01*
X175532506Y-105788822D01*
X162373129Y-106131360D02*
X162415946Y-106174177D01*
X162458763Y-106302628D01*
X162458763Y-106388262D01*
X162415946Y-106516714D01*
X162330311Y-106602348D01*
X162244677Y-106645165D01*
X162073409Y-106687982D01*
X161944957Y-106687982D01*
X161773689Y-106645165D01*
X161688054Y-106602348D01*
X161602420Y-106516714D01*
X161559603Y-106388262D01*
X161559603Y-106302628D01*
X161602420Y-106174177D01*
X161645237Y-106131360D01*
X161645237Y-105788822D02*
X161602420Y-105746005D01*
X161559603Y-105660371D01*
X161559603Y-105446285D01*
X161602420Y-105360651D01*
X161645237Y-105317834D01*
X161730871Y-105275017D01*
X161816506Y-105275017D01*
X161944957Y-105317834D01*
X162458763Y-105831640D01*
X162458763Y-105275017D01*
X162119129Y-97304860D02*
X162161946Y-97347677D01*
X162204763Y-97476128D01*
X162204763Y-97561762D01*
X162161946Y-97690214D01*
X162076311Y-97775848D01*
X161990677Y-97818665D01*
X161819409Y-97861482D01*
X161690957Y-97861482D01*
X161519689Y-97818665D01*
X161434054Y-97775848D01*
X161348420Y-97690214D01*
X161305603Y-97561762D01*
X161305603Y-97476128D01*
X161348420Y-97347677D01*
X161391237Y-97304860D01*
X161305603Y-97005140D02*
X161305603Y-96448517D01*
X161648140Y-96748237D01*
X161648140Y-96619785D01*
X161690957Y-96534151D01*
X161733774Y-96491334D01*
X161819409Y-96448517D01*
X162033494Y-96448517D01*
X162119129Y-96491334D01*
X162161946Y-96534151D01*
X162204763Y-96619785D01*
X162204763Y-96876688D01*
X162161946Y-96962322D01*
X162119129Y-97005140D01*
X176089129Y-97177860D02*
X176131946Y-97220677D01*
X176174763Y-97349128D01*
X176174763Y-97434762D01*
X176131946Y-97563214D01*
X176046311Y-97648848D01*
X175960677Y-97691665D01*
X175789409Y-97734482D01*
X175660957Y-97734482D01*
X175489689Y-97691665D01*
X175404054Y-97648848D01*
X175318420Y-97563214D01*
X175275603Y-97434762D01*
X175275603Y-97349128D01*
X175318420Y-97220677D01*
X175361237Y-97177860D01*
X175575323Y-96407151D02*
X176174763Y-96407151D01*
X175232786Y-96621237D02*
X175875043Y-96835322D01*
X175875043Y-96278700D01*
X163008129Y-103019860D02*
X163050946Y-103062677D01*
X163093763Y-103191128D01*
X163093763Y-103276762D01*
X163050946Y-103405214D01*
X162965311Y-103490848D01*
X162879677Y-103533665D01*
X162708409Y-103576482D01*
X162579957Y-103576482D01*
X162408689Y-103533665D01*
X162323054Y-103490848D01*
X162237420Y-103405214D01*
X162194603Y-103276762D01*
X162194603Y-103191128D01*
X162237420Y-103062677D01*
X162280237Y-103019860D01*
X162194603Y-102206334D02*
X162194603Y-102634505D01*
X162622774Y-102677322D01*
X162579957Y-102634505D01*
X162537140Y-102548871D01*
X162537140Y-102334785D01*
X162579957Y-102249151D01*
X162622774Y-102206334D01*
X162708409Y-102163517D01*
X162922494Y-102163517D01*
X163008129Y-102206334D01*
X163050946Y-102249151D01*
X163093763Y-102334785D01*
X163093763Y-102548871D01*
X163050946Y-102634505D01*
X163008129Y-102677322D01*
X157824763Y-105087665D02*
X156925603Y-105087665D01*
X156925603Y-104873580D01*
X156968420Y-104745128D01*
X157054054Y-104659494D01*
X157139689Y-104616677D01*
X157310957Y-104573860D01*
X157439409Y-104573860D01*
X157610677Y-104616677D01*
X157696311Y-104659494D01*
X157781946Y-104745128D01*
X157824763Y-104873580D01*
X157824763Y-105087665D01*
X157824763Y-103717517D02*
X157824763Y-104231322D01*
X157824763Y-103974420D02*
X156925603Y-103974420D01*
X157054054Y-104060054D01*
X157139689Y-104145688D01*
X157182506Y-104231322D01*
X175158763Y-103273860D02*
X174730591Y-103573580D01*
X175158763Y-103787665D02*
X174259603Y-103787665D01*
X174259603Y-103445128D01*
X174302420Y-103359494D01*
X174345237Y-103316677D01*
X174430871Y-103273860D01*
X174559323Y-103273860D01*
X174644957Y-103316677D01*
X174687774Y-103359494D01*
X174730591Y-103445128D01*
X174730591Y-103787665D01*
X175158763Y-102417517D02*
X175158763Y-102931322D01*
X175158763Y-102674420D02*
X174259603Y-102674420D01*
X174388054Y-102760054D01*
X174473689Y-102845688D01*
X174516506Y-102931322D01*
X157886763Y-106321860D02*
X157458591Y-106621580D01*
X157886763Y-106835665D02*
X156987603Y-106835665D01*
X156987603Y-106493128D01*
X157030420Y-106407494D01*
X157073237Y-106364677D01*
X157158871Y-106321860D01*
X157287323Y-106321860D01*
X157372957Y-106364677D01*
X157415774Y-106407494D01*
X157458591Y-106493128D01*
X157458591Y-106835665D01*
X157073237Y-105979322D02*
X157030420Y-105936505D01*
X156987603Y-105850871D01*
X156987603Y-105636785D01*
X157030420Y-105551151D01*
X157073237Y-105508334D01*
X157158871Y-105465517D01*
X157244506Y-105465517D01*
X157372957Y-105508334D01*
X157886763Y-106022140D01*
X157886763Y-105465517D01*
X181719946Y-98729074D02*
X181762763Y-98600623D01*
X181762763Y-98386537D01*
X181719946Y-98300903D01*
X181677129Y-98258086D01*
X181591494Y-98215269D01*
X181505860Y-98215269D01*
X181420226Y-98258086D01*
X181377409Y-98300903D01*
X181334591Y-98386537D01*
X181291774Y-98557806D01*
X181248957Y-98643440D01*
X181206140Y-98686257D01*
X181120506Y-98729074D01*
X181034871Y-98729074D01*
X180949237Y-98686257D01*
X180906420Y-98643440D01*
X180863603Y-98557806D01*
X180863603Y-98343720D01*
X180906420Y-98215269D01*
X181762763Y-97358926D02*
X181762763Y-97872731D01*
X181762763Y-97615829D02*
X180863603Y-97615829D01*
X180992054Y-97701463D01*
X181077689Y-97787097D01*
X181120506Y-97872731D01*
X180050077Y-100990763D02*
X179750357Y-100562591D01*
X179536272Y-100990763D02*
X179536272Y-100091603D01*
X179878809Y-100091603D01*
X179964443Y-100134420D01*
X180007260Y-100177237D01*
X180050077Y-100262871D01*
X180050077Y-100391323D01*
X180007260Y-100476957D01*
X179964443Y-100519774D01*
X179878809Y-100562591D01*
X179536272Y-100562591D01*
X180435432Y-100519774D02*
X180735152Y-100519774D01*
X180863603Y-100990763D02*
X180435432Y-100990763D01*
X180435432Y-100091603D01*
X180863603Y-100091603D01*
X181206141Y-100947946D02*
X181334592Y-100990763D01*
X181548678Y-100990763D01*
X181634312Y-100947946D01*
X181677129Y-100905129D01*
X181719946Y-100819494D01*
X181719946Y-100733860D01*
X181677129Y-100648226D01*
X181634312Y-100605409D01*
X181548678Y-100562591D01*
X181377409Y-100519774D01*
X181291775Y-100476957D01*
X181248958Y-100434140D01*
X181206141Y-100348506D01*
X181206141Y-100262871D01*
X181248958Y-100177237D01*
X181291775Y-100134420D01*
X181377409Y-100091603D01*
X181591495Y-100091603D01*
X181719946Y-100134420D01*
X182105301Y-100519774D02*
X182405021Y-100519774D01*
X182533472Y-100990763D02*
X182105301Y-100990763D01*
X182105301Y-100091603D01*
X182533472Y-100091603D01*
X182790375Y-100091603D02*
X183304181Y-100091603D01*
X183047278Y-100990763D02*
X183047278Y-100091603D01*
X181719946Y-105841074D02*
X181762763Y-105712623D01*
X181762763Y-105498537D01*
X181719946Y-105412903D01*
X181677129Y-105370086D01*
X181591494Y-105327269D01*
X181505860Y-105327269D01*
X181420226Y-105370086D01*
X181377409Y-105412903D01*
X181334591Y-105498537D01*
X181291774Y-105669806D01*
X181248957Y-105755440D01*
X181206140Y-105798257D01*
X181120506Y-105841074D01*
X181034871Y-105841074D01*
X180949237Y-105798257D01*
X180906420Y-105755440D01*
X180863603Y-105669806D01*
X180863603Y-105455720D01*
X180906420Y-105327269D01*
X180949237Y-104984731D02*
X180906420Y-104941914D01*
X180863603Y-104856280D01*
X180863603Y-104642194D01*
X180906420Y-104556560D01*
X180949237Y-104513743D01*
X181034871Y-104470926D01*
X181120506Y-104470926D01*
X181248957Y-104513743D01*
X181762763Y-105027549D01*
X181762763Y-104470926D01*
X180306980Y-103022763D02*
X180306980Y-102123603D01*
X180649517Y-102123603D01*
X180735151Y-102166420D01*
X180777968Y-102209237D01*
X180820785Y-102294871D01*
X180820785Y-102423323D01*
X180777968Y-102508957D01*
X180735151Y-102551774D01*
X180649517Y-102594591D01*
X180306980Y-102594591D01*
X181163323Y-102765860D02*
X181591494Y-102765860D01*
X181077688Y-103022763D02*
X181377408Y-102123603D01*
X181677128Y-103022763D01*
X182447837Y-103022763D02*
X181934032Y-103022763D01*
X182190934Y-103022763D02*
X182190934Y-102123603D01*
X182105300Y-102252054D01*
X182019666Y-102337689D01*
X181934032Y-102380506D01*
D16*
X154494895Y-101870933D02*
X155075467Y-101870933D01*
X155191581Y-101909637D01*
X155268990Y-101987047D01*
X155307695Y-102103161D01*
X155307695Y-102180571D01*
X155307695Y-101058133D02*
X155307695Y-101522590D01*
X155307695Y-101290361D02*
X154494895Y-101290361D01*
X154611010Y-101367771D01*
X154688419Y-101445180D01*
X154727124Y-101522590D01*
D13*
X175073129Y-101749860D02*
X175115946Y-101792677D01*
X175158763Y-101921128D01*
X175158763Y-102006762D01*
X175115946Y-102135214D01*
X175030311Y-102220848D01*
X174944677Y-102263665D01*
X174773409Y-102306482D01*
X174644957Y-102306482D01*
X174473689Y-102263665D01*
X174388054Y-102220848D01*
X174302420Y-102135214D01*
X174259603Y-102006762D01*
X174259603Y-101921128D01*
X174302420Y-101792677D01*
X174345237Y-101749860D01*
X174259603Y-101450140D02*
X174259603Y-100850700D01*
X175158763Y-101236054D01*
D15*
X158476905Y-100475952D02*
X157676905Y-100475952D01*
X158400714Y-99637857D02*
X158438810Y-99675952D01*
X158476905Y-99790238D01*
X158476905Y-99866428D01*
X158438810Y-99980714D01*
X158362619Y-100056905D01*
X158286429Y-100095000D01*
X158134048Y-100133095D01*
X158019762Y-100133095D01*
X157867381Y-100095000D01*
X157791190Y-100056905D01*
X157715000Y-99980714D01*
X157676905Y-99866428D01*
X157676905Y-99790238D01*
X157715000Y-99675952D01*
X157753095Y-99637857D01*
X157753095Y-99333095D02*
X157715000Y-99295000D01*
X157676905Y-99218809D01*
X157676905Y-99028333D01*
X157715000Y-98952143D01*
X157753095Y-98914047D01*
X157829286Y-98875952D01*
X157905476Y-98875952D01*
X158019762Y-98914047D01*
X158476905Y-99371190D01*
X158476905Y-98875952D01*
D13*
X161068657Y-101625763D02*
X161068657Y-101026323D01*
X161068657Y-101197591D02*
X161111474Y-101111957D01*
X161154291Y-101069140D01*
X161239925Y-101026323D01*
X161325560Y-101026323D01*
X161967817Y-101582946D02*
X161882183Y-101625763D01*
X161710914Y-101625763D01*
X161625280Y-101582946D01*
X161582463Y-101497311D01*
X161582463Y-101154774D01*
X161625280Y-101069140D01*
X161710914Y-101026323D01*
X161882183Y-101026323D01*
X161967817Y-101069140D01*
X162010634Y-101154774D01*
X162010634Y-101240409D01*
X161582463Y-101326043D01*
X162781343Y-101026323D02*
X162781343Y-101754214D01*
X162738526Y-101839849D01*
X162695709Y-101882666D01*
X162610074Y-101925483D01*
X162481623Y-101925483D01*
X162395989Y-101882666D01*
X162781343Y-101582946D02*
X162695709Y-101625763D01*
X162524440Y-101625763D01*
X162438806Y-101582946D01*
X162395989Y-101540129D01*
X162353172Y-101454494D01*
X162353172Y-101197591D01*
X162395989Y-101111957D01*
X162438806Y-101069140D01*
X162524440Y-101026323D01*
X162695709Y-101026323D01*
X162781343Y-101069140D01*
M02*
